<?xml version="1.0" standalone="no"?>
<!-- Generator: Adobe Fireworks 10, Export SVG Extension by Aaron Beall (http://fireworks.abeall.com) . Version: 0.6.0  -->
<!DOCTYPE svg PUBLIC "-//W3C//DTD SVG 1.1//EN" "http://www.w3.org/Graphics/SVG/1.1/DTD/svg11.dtd">
<svg id="bar_top" viewBox="0 0 721 20" style="background-color:#ffffff00" version="1.1"
	xmlns="http://www.w3.org/2000/svg" xmlns:xlink="http://www.w3.org/1999/xlink" xml:space="preserve"
	x="0px" y="0px" width="721px" height="20px"
>
	<g id="Layer%201">
		<path d="M 242.4128 4.9202 C 242.2659 6.6567 242.0656 18.8627 241.9648 20 L 262.7109 20 L 262.343 6.6803 L 261.7219 1.08 L 278.9858 1.08 L 278.3499 5.6403 L 277.7329 20 L 298.5037 20 C 298.5271 19.1775 298.4365 8.0037 298.2458 6.3603 L 297.6396 1.08 L 314.7811 1.08 L 313.6884 20 L 334.7302 20 C 334.6616 19.0756 334.5242 7.8684 334.334 6.6053 C 333.9585 4.1002 333.8699 1.835 334.1289 1.5651 C 334.3877 1.295 338.1698 1.08 342.5231 1.08 L 350.4446 1.08 L 350.1162 6.5453 L 349.9102 20 L 370.3406 20 L 370.1395 6.5053 L 369.8214 1.08 L 386.9771 1.08 L 386.4836 4.2002 C 386.2097 5.9153 385.8777 18.3854 385.7355 19.6854 L 385.7027 20 L 406.572 20 L 405.5823 1.08 L 422.6753 1.08 L 421.6878 20 L 442.6163 20 L 442.5123 8.7004 C 442.3705 6.8853 442.0429 4.4252 441.7933 3.2401 C 441.3383 1.12 441.4998 1.08 449.8945 1.08 L 458.4556 1.08 L 458.1279 6.6003 L 457.9291 20 L 478.3448 20 L 478.1511 6.6003 L 477.8379 1.08 L 485.8462 1.08 C 490.2489 1.08 494.0452 1.4 494.2753 1.8 C 494.51 2.1951 494.3877 4.5702 494.011 7.0803 C 493.8174 8.361 493.6634 19.3068 493.6528 20 L 514.5813 20 L 514.2202 6.7253 L 513.5938 1.08 L 530.7797 1.08 L 529.766 20 L 550.6008 20 L 550.1472 4.9202 L 549.8539 1.5601 L 566.4769 1 L 565.9434 20 L 586.7831 20 L 586.3633 6.3603 L 585.7566 1.075 L 603.0059 1.075 L 602.5118 4.1952 C 602.0591 7.0677 601.6499 18.8682 601.7805 20 L 622.6005 20 L 622.2268 6.5953 L 621.6151 1.075 L 638.7081 1.075 L 638.0916 6.6103 L 637.7163 20 L 658.5856 20 L 658.5552 19.7205 C 658.4132 18.4004 658.0757 5.9153 657.8066 4.2002 L 657.3126 1.08 L 674.5669 1.08 L 673.9553 6.3603 L 673.5385 20 L 694.3832 20 L 694.1838 6.5403 L 693.8708 1.08 L 711.0223 1.08 L 710.4255 4.6802 C 709.9878 7.3397 709.7444 18.9839 709.2771 20 L 721 20 L 721 0 L 0 0 L 0 20 L 10.5892 20 L 10.3822 6.5753 L 10.0558 1.08 L 18.6171 1.08 C 27.011 1.08 27.1731 1.12 26.7168 3.2401 C 26.4681 4.4252 26.1399 6.8853 25.9983 8.7004 L 25.8972 20 L 46.8304 20 L 46.452 6.6003 L 45.8358 1.075 L 62.9329 1.075 L 62.317 6.6453 L 61.9463 20 L 82.8054 20 C 82.7992 18.8538 82.48 7.0399 82.0313 4.2002 L 81.5378 1.08 L 98.7872 1.08 L 98.1807 6.3603 C 97.9856 8.0621 97.853 19.2155 97.8525 20 L 118.8696 20 C 118.7915 19.0876 118.6128 7.8102 118.365 6.4453 C 117.3521 0.92 117.3922 0.9 127.2595 1.275 L 134.6898 1.5551 L 134.3966 4.9152 C 134.2488 6.6586 134.0511 18.868 133.9508 20 L 154.7758 20 L 154.4246 6.9203 L 153.7646 1.08 L 170.9493 1.08 L 169.9604 20 L 190.7804 20 L 190.1658 5.6403 L 189.5244 1.08 L 206.7308 1.08 L 206.1047 6.6003 L 205.7135 20 L 227.0464 20 C 226.9005 19.0807 226.642 7.6318 226.3613 6.1453 C 225.9419 3.9152 225.8344 1.85 226.1226 1.55 C 226.4153 1.25 230.2664 1.135 234.6785 1.285 L 242.7063 1.5601 L 242.4128 4.9202 Z" fill="#d3b158"/>
	</g>
</svg>