<?xml version="1.0" standalone="no"?>
<!-- Generator: Adobe Fireworks 10, Export SVG Extension by Aaron Beall (http://fireworks.abeall.com) . Version: 0.6.0  -->
<!DOCTYPE svg PUBLIC "-//W3C//DTD SVG 1.1//EN" "http://www.w3.org/Graphics/SVG/1.1/DTD/svg11.dtd">
<svg id="" viewBox="0 0 100 100" style="background-color:#ffffff00" version="1.1"
	xmlns="http://www.w3.org/2000/svg" xmlns:xlink="http://www.w3.org/1999/xlink" xml:space="preserve"
	x="0px" y="0px" width="100px" height="100px"
>
	<g id="Layer%201">
		<path d="M 61.2002 49.8777 C 61.2002 56.2013 56.1255 61.1197 50.0642 61.1197 C 43.7209 61.1197 38.9282 55.7798 38.9282 49.8777 C 38.9282 43.5541 44.144 38.7762 50.0642 38.7762 C 56.5481 38.7762 61.2002 43.9756 61.2002 49.8777 ZM 67.5432 70.5349 C 68.1392 69.911 71.7717 66.6869 71.7717 64.9139 C 71.7717 61.9629 68.3889 61.5413 68.3889 58.7308 C 68.3889 57.3255 68.9526 56.0608 70.7852 55.4987 L 73.8862 55.4987 C 74.3091 55.4987 74.873 55.2177 75.155 55.0771 C 77.2693 54.3745 76.9875 51.564 76.9875 49.8777 C 76.9875 48.1914 77.2693 45.0999 74.4502 44.3973 L 71.3491 44.3973 C 69.6575 44.3973 68.3889 42.4299 68.3889 41.0246 C 68.3889 38.3547 71.7717 37.7925 71.7717 34.9821 C 71.7717 33.9984 72.0537 33.8578 70.9263 32.7337 C 68.5298 30.0637 67.4023 28.3774 65.147 28.3774 C 62.7505 28.3774 61.2002 31.8905 58.9446 31.8905 C 57.958 31.8905 56.1255 30.9068 55.7026 29.3611 L 55.7026 26.5506 C 55.7026 22.6159 52.1787 23.0374 50.0642 23.0374 C 48.3726 23.0374 45.2715 22.4754 44.5669 25.7074 L 44.5669 28.9395 C 44.2849 30.6258 42.4524 31.8905 41.1836 31.8905 C 38.3647 31.8905 38.0825 28.5179 34.9814 28.5179 C 34.5586 28.5179 33.5718 28.5179 33.1489 28.9395 C 30.3298 31.3284 28.3564 32.7337 28.3564 34.9821 C 28.3564 37.2304 31.8804 38.9168 31.8804 41.0246 C 31.8804 42.2894 30.7529 44.1162 28.9204 44.3973 L 25.6782 44.3973 C 24.5505 44.3973 23 46.6456 23 47.0672 L 23 52.8287 C 23 53.8124 24.8325 55.2177 25.6782 55.4987 L 28.7793 55.4987 C 30.6118 55.4987 31.8804 57.3255 31.8804 58.7308 C 31.8804 61.5413 28.3564 61.9629 28.3564 64.9139 C 28.3564 65.1949 28.4973 66.4596 29.0613 67.0217 C 31.1758 69.4107 32.7263 71.5186 34.9814 71.5186 C 37.8008 71.5186 38.2236 68.146 41.1836 68.146 C 42.7344 68.146 43.8623 68.708 44.5669 70.9565 L 44.5669 74.329 C 44.5669 75.3127 46.6812 76.718 47.104 76.718 C 48.0908 76.999 49.6416 76.999 50.0642 76.999 C 52.0376 76.999 54.4338 77.1395 55.7026 74.048 L 55.7026 70.8159 C 55.7026 69.1296 57.958 68.146 58.9446 68.146 C 61.6228 68.146 62.6094 71.5186 65.147 71.5186 C 65.8516 71.5186 66.9795 71.097 67.5432 70.5349 Z" fill="#2c2c2c"/>
	</g>
</svg>