<?xml version="1.0" standalone="no"?>
<!-- Generator: Adobe Fireworks 10, Export SVG Extension by Aaron Beall (http://fireworks.abeall.com) . Version: 0.6.0  -->
<!DOCTYPE svg PUBLIC "-//W3C//DTD SVG 1.1//EN" "http://www.w3.org/Graphics/SVG/1.1/DTD/svg11.dtd">
<svg id="logo_bag" viewBox="0 0 91 92" style="background-color:#ffffff00" version="1.1"
	xmlns="http://www.w3.org/2000/svg" xmlns:xlink="http://www.w3.org/1999/xlink" xml:space="preserve"
	x="0px" y="0px" width="91px" height="92px"
>
	<g id="Layer%201">
		<g>
			<g>
				<path d="M 21.1787 27.2911 C 21.2697 37.974 18.1615 47.9807 14.1472 57.7762 C 13.9982 58.1394 13.8103 58.4981 13.5792 58.8143 C 12.8412 59.8235 12.4251 59.7711 11.7167 58.7302 C 8.6053 54.159 8.6081 49.1844 9.7307 44.0481 C 11.1979 37.3351 13.8399 31.0732 16.9956 24.9944 C 17.5897 23.8498 18.1258 23.6384 19.2783 24.2627 C 20.5347 24.9425 21.9743 25.3432 21.1787 27.2911 ZM 91 61.6212 L 91 60.7281 L 88.5464 55.0774 C 87.6747 54.2855 87.2535 53.099 86.2203 52.4486 C 85.2354 51.3323 85.4205 50.0593 85.8124 48.813 C 86.0783 47.9674 86.4719 47.1545 86.8736 46.3599 C 87.8719 44.3846 87.8232 42.4802 86.68 40.5672 C 84.7127 37.2741 83.4039 33.6828 81.9978 30.1368 C 80.2966 25.8467 78.6189 21.5195 75.7445 17.848 C 71.1336 11.9579 65.0817 7.9336 58.2096 5.103 C 56.5684 4.4271 54.8202 4.0201 52.9689 4.4421 C 51.8626 4.6944 50.7993 4.2915 49.8258 3.7448 C 48.6984 3.1114 47.5999 2.4262 46.4652 1.8059 C 44.7113 0.8468 42.9013 0.0511 40.8434 0.0038 C 35.9127 -0.1088 32.1378 2.2754 29.0268 5.7326 C 27.869 7.019 26.837 7.6584 25.1135 7.4737 C 20.0481 6.9317 15.9788 8.8637 12.7101 12.6505 C 10.9773 14.6581 9.5105 16.8398 8.5004 19.2881 C 5.1191 27.4847 2.4008 35.8927 0.7085 44.5992 C 0.115 47.6529 -0.2553 50.7489 0.2103 53.8891 C 1.1762 60.4023 4.8385 65.4879 8.9215 70.3545 C 9.856 71.4684 11.026 72.3166 12.336 72.9691 C 13.6332 73.6153 14.5343 74.603 15.1246 75.9436 C 15.8228 77.529 16.6588 79.0539 17.418 80.6135 C 20.0877 86.0976 24.2782 89.7606 30.2597 91.3223 C 34.6636 92.4717 39.0436 91.9678 43.426 91.2186 C 47.1705 90.5782 50.9284 90.1709 54.6689 91.1459 C 56.4049 91.5985 58.1025 92.2598 59.9287 91.8911 C 64.8958 90.8879 68.9816 88.5233 71.4238 83.9582 C 72.6619 81.6437 74.5904 81.0147 76.9746 80.9947 C 79.6874 80.9717 82.1852 80.1206 84.4327 78.6855 C 86.844 77.1456 88.7932 75.1964 88.9214 72.076 C 89.1012 71.8136 89.0509 71.5138 89.0452 71.227 C 89.0412 70.9998 89.128 70.7005 88.8456 70.5923 C 88.4884 70.4558 88.3455 70.781 88.1654 70.9976 C 87.777 72.2139 87.6565 73.5326 86.7921 74.5626 C 84.4898 77.305 81.6017 79.0234 77.9757 79.2015 C 75.898 79.3034 73.8189 79.1032 73.0726 76.581 C 73.0048 76.3517 72.8445 76.1404 72.5406 76.159 C 71.6831 76.9026 72.2776 78.0079 71.8669 78.8634 C 71.4226 83.6235 68.9077 87.6628 62.8646 88.4167 C 61.0965 88.6375 59.5049 88.3888 57.9357 87.7033 C 56.6459 87.1401 56.0011 86.1319 55.8019 84.7201 C 55.4545 82.2561 55.3441 79.774 55.5596 77.3201 C 55.7271 75.4125 55.543 73.4624 56.0969 71.5889 C 56.2897 71.1143 56.1155 70.7029 55.8371 70.3395 C 55.1785 69.4804 55.4054 68.8139 56.2008 68.1834 C 58.9007 66.0416 61.7475 64.1612 65.0443 63.0324 C 68.4783 61.8563 68.6318 61.8951 70.8589 64.8214 C 71.0094 65.0188 71.1466 65.2295 71.3382 65.3886 C 71.7659 65.7435 72.203 65.8862 72.6335 65.3888 C 73.06 64.4853 72.6611 63.469 73.0211 62.5553 C 73.418 61.9149 73.3104 61.3172 72.8364 60.777 C 72.1616 60.0076 72.3113 59.3463 73.0621 58.7436 C 76.1572 56.2598 79.5381 54.3033 83.3816 53.1931 C 84.535 52.86 85.4598 52.9886 85.9139 54.2613 C 86.0803 54.5825 86.3144 54.8459 86.6038 55.0631 C 88.2864 56.4437 88.9665 58.4519 89.6993 60.3494 C 90.1814 61.5968 88.5773 62.3174 88.2603 63.4406 C 88.0972 63.876 87.9604 64.3187 87.9243 64.7856 C 87.8773 65.366 87.8748 65.9485 87.887 66.5303 C 87.9186 67.6696 87.6731 68.8308 88.1467 69.9375 C 88.5817 70.3484 88.9738 70.5605 89.0412 69.6942 C 89.0667 69.3678 89.115 69.0232 88.9275 68.7145 L 88.9486 65.885 C 89.4546 64.8149 89.8743 63.7173 90.0228 62.5336 C 90.1372 62.0055 90.3487 61.5798 91 61.6212 Z" fill="#969696"/>
				<path d="M 68.5592 52.7078 C 69.2518 51.63 68.368 50.5088 68.7624 49.3092 C 69.6658 46.5598 72.8466 44.2506 75.6978 44.6584 C 76.8605 44.8247 78.0386 46.4794 78.1449 48.008 C 78.1912 48.6705 77.8771 49.3939 78.4233 49.9886 C 78.3243 50.2992 78.2257 50.6096 78.1271 50.9205 C 77.4616 53.4692 73.6456 55.716 71.0553 55.0882 C 70.5002 54.9539 70.0675 54.6592 69.7611 54.1808 C 69.3606 53.6896 68.9596 53.1987 68.5592 52.7078 Z" fill="#969696"/>
			</g>
			<g>
				<path d="M 41.6384 63.7135 C 40.3585 64.3819 40.1235 65.7233 39.6231 66.876 C 39.0736 68.1405 38.6196 69.4459 38.1147 70.7302 C 36.6355 74.4924 34.8621 75.3032 30.9642 74.2114 C 28.6819 73.5723 26.6414 72.506 24.7098 71.1971 C 22.6642 69.811 20.3302 69.1578 18.0024 68.4759 C 16.8747 67.2853 16.8987 66.0394 17.2062 64.4243 C 17.6488 62.1 17.9423 59.7675 18.8999 57.5788 C 19.5981 55.9837 20.6043 54.5912 21.7384 53.2751 C 23.1339 51.6557 24.9577 52.1819 26.5806 52.47 C 32.2616 53.4793 37.4914 55.6873 42.3186 58.8284 C 43.9309 59.8773 43.9041 59.8883 42.7227 61.2916 C 42.1364 61.9884 41.8328 62.8317 41.6384 63.7135 Z" fill="#949494"/>
				<path d="M 72.4359 65.4853 C 72.5645 69.0628 72.1896 72.6539 72.7354 76.2201 C 72.0195 76.9967 72.8855 78.1102 72.1624 78.8847 C 72.1591 78.045 72.0983 77.2006 72.1677 76.3669 C 72.2578 75.2828 71.9578 74.969 70.854 75.3561 C 69.1406 75.9573 67.6846 76.9602 66.2841 78.049 C 64.7461 79.2451 62.954 79.8491 61.0941 80.0126 C 59.4818 80.1545 58.9214 78.6568 58.3966 77.4659 C 57.8423 76.2082 57.4693 74.8684 57.0591 73.5517 C 56.8208 72.7874 56.4788 72.091 55.993 71.4591 C 55.9885 71.4101 55.9979 71.3539 55.9772 71.313 C 54.6944 68.7628 54.6538 68.7069 57.1966 66.882 C 60.0913 64.8048 63.1617 63.0342 66.6587 62.1061 C 68.3655 61.6529 69.3001 62.009 70.3829 63.4051 C 70.9733 64.1669 71.1125 65.4259 72.4359 65.4853 Z" fill="#949494"/>
				<path d="M 86.213 54.1802 C 82.0586 54.1941 78.767 56.3074 75.4471 58.4434 C 74.0519 59.3411 73.9212 60.134 74.7551 61.5142 C 75.9628 63.5133 76.3739 65.8662 77.3081 67.9942 C 78.1279 69.8619 78.3097 69.9122 80.2422 69.3052 C 80.6659 69.1719 81.0656 68.9515 81.4604 68.7416 C 82.3768 68.2543 83.201 67.7442 82.0367 66.6571 C 81.8412 66.4738 81.7989 66.1207 81.7035 65.8402 C 81.2271 64.4374 81.6589 63.1465 82.7002 62.8443 C 84.6388 62.2819 85.8814 62.9371 86.2093 64.6964 C 86.2446 64.8855 86.2674 65.0771 86.3088 65.3545 C 87.0157 65.0836 87.6585 64.8367 88.3017 64.59 C 88.3009 65.192 88.3005 65.7937 88.2997 66.3959 C 86.9203 66.7322 85.7475 67.4707 84.6908 68.3661 C 83.3138 69.5331 81.775 70.345 80.0766 70.9554 C 77.9453 71.7214 77.1819 71.1319 76.1723 69.2568 C 75.5234 68.0518 75.1058 66.7134 74.676 65.4053 C 74.2742 64.1831 73.9102 62.971 72.7435 62.2223 C 73.4431 61.522 72.711 61.1714 72.3466 60.7915 C 71.7034 60.1209 71.6669 59.4865 72.3686 58.8841 C 75.7441 55.9861 79.5222 53.8257 83.8629 52.692 C 85.2163 52.3388 85.9102 52.9329 86.213 54.1802 Z" fill="#939393"/>
				<path d="M 88.6073 63.4063 C 88.3415 63.2048 88.2839 62.9147 88.3139 62.6162 C 88.5927 59.8532 87.8419 57.2891 86.8018 54.7789 C 88.6276 56.2275 89.2976 58.376 90.0934 60.4011 C 90.6246 61.7522 88.9632 62.324 88.6073 63.4063 Z" fill="#939393"/>
			</g>
			<g>
				<path d="M 68.5592 52.7078 C 67.6152 52.0972 66.8296 52.4744 66.162 53.1624 C 65.4051 53.943 64.7505 54.8223 63.9868 55.5959 C 62.1578 57.4492 60.0435 57.23 58.4177 55.1645 C 56.0108 52.1064 54.6035 48.6018 53.5958 44.9037 C 52.5301 40.9923 51.0505 37.2949 47.9777 34.4623 C 46.4778 33.0797 44.792 31.9414 42.963 31.0233 C 39.5456 29.3087 36.1011 27.6657 32.919 25.5007 C 29.7033 23.3127 29.9286 21.3921 32.2738 19.0093 C 35.0601 16.1781 38.5656 14.363 42.0081 12.4949 C 45.8102 10.4314 49.8384 8.8449 53.8397 7.2113 C 54.4217 6.9738 55.2629 6.9607 55.3157 6.1817 C 55.3745 5.3105 54.3571 5.5632 53.8665 5.1611 C 55.7255 4.7287 57.3777 5.4092 58.9072 6.1151 C 65.4221 9.1199 71.3739 12.9364 75.6431 18.8472 C 78.2708 22.485 79.8985 26.6489 81.5164 30.8031 C 82.8621 34.2581 84.1449 37.7465 86.1192 40.9202 C 86.4959 41.5256 86.5814 41.9568 85.9086 42.5542 C 85.1092 43.2637 84.485 44.204 83.9128 45.1233 C 82.8046 46.9043 81.4321 48.3208 79.3668 48.9704 C 78.8904 49.1204 78.4371 49.3748 78.4233 49.9884 C 77.4875 49.79 77.7886 49.0126 77.7582 48.4549 C 77.7051 47.4807 77.4461 46.6183 76.8046 45.873 C 76.3212 45.3111 75.7178 44.978 74.9764 45.0797 C 71.8523 45.5076 68.6679 47.1854 69.0847 51.4417 C 69.1317 51.9221 69.3923 52.559 68.5592 52.7078 Z" fill="#bfbfbf"/>
				<path d="M 41.6384 63.7135 C 42.067 63.4836 42.4955 63.2533 43.0312 62.9658 C 43.1168 64.1655 43.2601 65.2723 43.2638 66.3794 C 43.2775 70.3648 44.0928 74.3312 43.4995 78.3336 C 43.3408 79.4027 43.5105 80.5211 43.3444 81.5882 C 42.8007 85.0828 40.7383 86.2894 37.2625 86.8712 C 30.7504 87.9616 25.1127 86.0572 20.4353 81.4397 C 18.8554 79.8802 18.367 77.8019 17.9797 75.6862 C 17.5373 73.2711 17.7256 70.8781 18.0024 68.4759 C 18.5363 68.0472 19.047 68.4041 19.5534 68.5369 C 21.8903 69.1501 24.032 70.195 26.0161 71.5493 C 28.201 73.0411 30.627 73.8367 33.223 74.2372 C 34.3617 74.4128 35.2768 74.1391 36.058 73.3098 C 36.782 72.5411 37.3457 71.684 37.7491 70.7057 C 38.4868 68.9174 39.1187 67.0891 39.8625 65.3038 C 40.2002 64.4943 40.6543 63.81 41.6384 63.7135 Z" fill="#bfbfbf"/>
				<path d="M 49.2085 4.4023 C 45.6033 4.6607 43.0296 6.5079 40.8568 9.0006 C 40.3629 9.5674 39.8236 9.846 39.1447 10.0257 C 35.5897 10.9664 32.1257 12.1681 28.785 13.7032 C 27.1021 14.476 25.4333 13.7543 23.8036 13.607 C 18.674 13.1437 14.585 14.8953 11.3939 18.8196 C 9.5482 21.0891 8.1727 23.6645 6.7318 26.2134 C 7.6461 23.2257 8.6 20.2479 10.1224 17.5133 C 11.8928 14.3325 14.1654 11.571 17.3639 9.6531 C 19.7231 8.2383 22.3572 7.6685 24.9358 8.1572 C 27.154 8.5771 28.294 7.6144 29.5037 6.2229 C 32.1971 3.1257 35.5288 1.0923 39.6548 0.6332 C 42.3446 0.3339 44.7019 1.5211 46.9364 2.8445 C 47.6839 3.287 48.5633 3.5793 49.2085 4.4023 Z" fill="#bfbfbf"/>
				<path d="M 72.1624 78.8847 C 72.3199 82.4852 70.3618 85.1232 67.8786 87.3064 C 66.9152 88.1526 65.2562 88.2305 63.9032 88.6206 C 61.6529 89.2685 59.4919 89.0025 57.4195 87.9277 C 56.1707 87.2806 55.5803 86.2692 55.3758 84.8761 C 54.7666 80.7267 55.3068 76.5915 55.3969 72.4507 C 55.4066 72.009 55.3331 71.515 55.993 71.4591 C 56.7969 71.6565 57.014 72.3489 57.2551 72.9917 C 57.7425 74.2909 58.1256 75.6272 58.6085 76.9279 C 59.5735 79.5277 60.6599 80.017 63.3059 79.1139 C 64.544 78.6909 65.6531 78.0593 66.694 77.2692 C 68.0027 76.2762 69.3712 75.3583 71.0022 74.9571 C 72.1567 74.673 72.5507 74.972 72.3612 76.0996 C 72.2046 77.0296 72.5024 77.9784 72.1624 78.8847 Z" fill="#bfbfbf"/>
				<path d="M 88.3216 69.9506 C 88.3212 70.3508 88.3203 70.751 88.3203 71.1511 C 88.4109 73.7838 86.8136 75.5061 84.9342 76.9369 C 82.3954 78.8696 79.5474 79.9415 76.2307 79.5077 C 74.0251 79.2194 73.1408 78.5055 72.7354 76.2203 C 72.0277 74.9146 71.9635 73.5042 71.9806 72.0595 C 72 70.3791 71.97 68.6976 71.9883 67.0166 C 71.9944 66.4678 72.0467 65.9259 72.4358 65.4853 C 72.6152 64.4047 72.1051 63.2601 72.7435 62.2225 C 73.7893 62.4474 74.3277 63.1737 74.6257 64.1253 C 75.0834 65.5897 75.6569 67.0122 76.2076 68.4412 C 77.132 70.84 78.1652 71.2627 80.5936 70.3658 C 82.1049 69.8078 83.3734 68.8799 84.664 67.9428 C 85.7296 67.1692 86.7145 66.0301 88.2997 66.3959 C 88.307 67.5808 88.3143 68.7659 88.3216 69.9506 Z" fill="#bfbfbf"/>
				<path d="M 88.6073 63.4063 C 88.5055 63.8011 88.4036 64.1955 88.3017 64.59 C 86.9617 65.9457 86.409 65.887 85.6948 64.314 C 85.2439 63.3204 84.0459 62.8719 82.9157 63.3239 C 81.861 63.7462 81.7928 64.6013 82.0351 65.5515 C 82.1211 65.889 82.2262 66.2371 82.4413 66.5045 C 83.4263 67.7282 82.9206 68.2689 81.7746 68.9743 C 81.3501 69.2357 80.9017 69.4494 80.428 69.6096 C 78.4298 70.2848 77.761 70.042 76.9343 68.0738 C 75.8996 65.6096 75.1987 63.0126 73.952 60.629 C 73.5742 59.9067 73.8084 59.2781 74.4288 58.791 C 77.3954 56.4623 80.6277 54.6594 84.3693 53.893 C 85.0016 53.7633 85.6615 53.6876 86.213 54.1802 C 86.409 54.3798 86.6054 54.5795 86.8014 54.7793 C 88.7765 57.3705 88.921 60.341 88.6073 63.4063 Z" fill="#bfbfbf"/>
				<path d="M 29.763 35.3198 C 33.1925 37.4851 37.0422 38.5293 40.7773 39.8263 C 42.0601 40.2716 42.6676 40.6992 42.3182 42.2344 C 42.0633 43.3535 42.0885 44.579 41.9269 45.7517 C 41.6688 47.624 40.9924 48.1874 39.1166 48.2364 C 36.8165 48.2966 34.5443 48.2112 32.376 47.3404 C 28.3418 45.7204 27.1037 43.3247 28.2006 39.1471 C 28.5512 37.8125 29.0614 36.5218 29.763 35.3198 Z" fill="#bfbfbf"/>
				<path d="M 41.1969 38.32 C 40.3913 38.0455 39.6897 37.7984 38.9827 37.567 C 36.5767 36.7801 34.1763 35.9791 31.9369 34.7784 C 31.577 34.5859 31.0295 34.4803 31.368 33.8202 C 31.635 33.2988 31.9787 33.4813 32.3663 33.6012 C 35.2127 34.4842 38.0336 35.4268 40.6572 36.8698 C 41.0151 37.0666 41.3535 37.2796 41.5232 37.6518 C 41.7025 38.0445 41.5933 38.3087 41.1969 38.32 Z" fill="#bfbfbf"/>
				<path d="M 16.3765 24.3822 C 13.7166 29.6527 11.4686 35.0907 9.8027 40.8477 C 9.5018 38.276 13.1302 27.8964 16.3765 24.3822 Z" fill="#bfbfbf"/>
				<path d="M 69.7611 54.1808 C 72.7451 55.6405 76.3082 54.2517 78.1271 50.9201 C 78.6644 54.0905 73.808 56.5828 71.2521 55.8781 C 70.5095 55.6732 69.9077 55.0522 69.7611 54.1808 Z" fill="#bfbfbf"/>
				<path d="M 18.5921 66.1815 C 19.1562 61.993 19.5696 58.0538 22.4449 54.9154 C 23.3484 53.9287 24.3532 53.7282 25.5214 53.904 C 30.8502 54.7069 35.7431 56.6946 40.3772 59.3742 C 41.1437 59.8175 41.3625 60.2128 40.7456 61.0709 C 38.7234 63.8839 37.9991 67.3007 36.5519 70.3866 C 36.5105 70.4752 36.5052 70.5802 36.4679 70.6709 C 35.593 72.7963 34.7785 73.2799 32.5518 72.905 C 31.8217 72.7821 31.0981 72.5716 30.3989 72.3243 C 29.4704 71.9961 28.2517 71.9908 27.7258 71.1497 C 27.1459 70.2216 28.4794 69.7263 28.7501 68.9017 C 29.1324 67.7351 29.321 66.648 28.4684 65.6922 C 27.6994 64.8302 26.5676 64.4697 25.4987 64.7987 C 24.2613 65.1799 23.5615 66.1916 23.6906 67.5573 C 23.7965 68.6782 23.3062 68.6613 22.4889 68.3249 C 21.5718 67.9474 20.6361 67.6099 19.6938 67.298 C 18.9974 67.0673 18.5888 66.6613 18.5921 66.1815 Z" fill="#bfbfbf"/>
				<path d="M 65.8024 76.3869 C 64.6961 77.2466 63.6475 77.7965 62.4146 78.1283 C 61.0673 78.4914 60.3117 78.0686 59.8592 76.8578 C 58.9798 74.5038 58.3751 72.0425 57.1281 69.8322 C 56.8358 69.3143 57.0509 68.9842 57.4405 68.6962 C 60.1566 66.6894 62.96 64.8325 66.2366 63.8336 C 68.0271 63.288 68.7531 63.5056 69.6654 65.0795 C 70.5886 66.6729 71.1133 68.4253 71.2493 70.2737 C 71.2781 70.6676 71.1413 71.1143 71.2834 71.453 C 71.9984 73.1595 71.0196 73.7297 69.6285 74.2065 C 68.7665 74.5018 68.5352 74.2647 68.5587 73.4612 C 68.5883 72.4505 68.2986 71.6075 67.2832 71.166 C 65.8645 70.5491 64.5111 70.847 63.833 71.9286 C 63.1358 73.0399 63.4848 74.7521 64.6272 75.6803 C 64.9299 75.926 65.3001 76.0889 65.8024 76.3869 Z" fill="#bfbfbf"/>
			</g>
		</g>
	</g>
</svg>