<?xml version="1.0" standalone="no"?>
<!-- Generator: Adobe Fireworks 10, Export SVG Extension by Aaron Beall (http://fireworks.abeall.com) . Version: 0.6.0  -->
<!DOCTYPE svg PUBLIC "-//W3C//DTD SVG 1.1//EN" "http://www.w3.org/Graphics/SVG/1.1/DTD/svg11.dtd">
<svg id="" viewBox="0 0 67 66" style="background-color:#ffffff00" version="1.1"
	xmlns="http://www.w3.org/2000/svg" xmlns:xlink="http://www.w3.org/1999/xlink" xml:space="preserve"
	x="0px" y="0px" width="67px" height="66px"
>
	<path d="M 5.5095 5.1473 C 6.1924 11.6884 5.1924 10.7867 5.1924 11.8195 C 5.1924 14.5736 4.803 15.9506 3.0962 15.9506 C 1.0481 15.9506 0 13.5408 0 11.8195 L 0 4.426 C 0.3413 2.7047 1.7307 0.049 2.4136 0.049 C 4.1201 0.049 4.8269 1.3604 5.5095 5.1473 ZM 5.8511 23.0162 C 7.6667 26 9.2886 28.3113 9.2886 29.3441 C 9.2886 32.0983 8.8989 32.7867 7.1924 32.7867 C 3.4375 32.7867 1.0481 26.1802 1.0481 24.1146 C 1.0481 21.0162 1.4136 21.0162 3.803 21.0162 C 4.4856 21.0162 5.4536 22.363 5.8511 23.0162 ZM 16.3845 38.8851 C 18.7739 40.9507 19.1636 40.0163 21.2114 42.4261 C 21.553 42.7704 21.8943 43.4589 21.8943 44.1475 C 21.8943 46.9016 19.4807 46.5901 18.7981 46.5901 C 16.4087 46.5901 9.5818 40.0491 9.5818 39.3605 C 9.5818 39.0163 9.5818 38.6721 9.5818 37.6392 C 9.5818 35.2294 10.947 36.5409 12.9951 36.5409 C 13.678 36.5409 15.7019 38.5409 16.3845 38.8851 ZM 63.2932 48.9999 C 65 51.4098 67.3174 54.5737 66.6345 55.9508 C 65.6106 57.6721 60.9038 61.3934 59.197 62.7704 C 58.1731 63.8033 51.8364 67.2787 51.8364 65.5574 C 51.8364 61.7704 55.6636 58.6721 57.7114 57.6393 C 54.2981 57.295 50.2019 57.295 46.7886 56.6065 C 44.0576 56.2623 44.7405 55.8852 44.7405 54.5082 C 44.7405 53.1311 45.3989 52.0655 48.8125 52.0655 L 59.6667 52.1667 C 57.6187 50.4454 53.2261 46.2458 53.2261 43.1475 C 53.2261 40.7376 62.6106 47.2786 63.2932 48.9999 ZM 36.9614 51.3442 C 37.5562 51.6797 40.6443 56.5737 38.9375 56.5737 C 37.9136 56.5737 32.3799 55.1639 27.9424 53.0983 C 26.2356 52.4098 25.5769 50.0327 25.5769 49.3442 C 25.5769 46.2458 27.9424 48.2458 29.9905 48.2458 C 31.0144 48.2458 33.25 49.25 36.9614 51.3442 Z" fill="#d3b158"/>
</svg>