<?xml version="1.0" standalone="no"?>
<!-- Generator: Adobe Fireworks 10, Export SVG Extension by Aaron Beall (http://fireworks.abeall.com) . Version: 0.6.0  -->
<!DOCTYPE svg PUBLIC "-//W3C//DTD SVG 1.1//EN" "http://www.w3.org/Graphics/SVG/1.1/DTD/svg11.dtd">
<svg id="logo_bag3" viewBox="0 0 62 91" style="background-color:#ffffff00" version="1.1"
	xmlns="http://www.w3.org/2000/svg" xmlns:xlink="http://www.w3.org/1999/xlink" xml:space="preserve"
	x="0px" y="0px" width="62px" height="91px"
>
	<defs>
		<linearGradient id="gradient1" x1="48.0028%" y1="83.4358%" x2="42.6695%" y2="98.2689%">
			<stop stop-color="#ffffff" stop-opacity="1" offset="0%"/>
			<stop stop-color="#000000" stop-opacity="1" offset="100%"/>
		</linearGradient>
			<mask id="mask1">
				<rect x="17" y="2" width="22" height="90" fill="url(#gradient1)"/>
			</mask>
	</defs>
	<g id="Layer%201">
		<g>
			<path mask="url(#mask1)" d="M 27.4344 2.5567 L 38.2731 18.4496 L 34.9381 21.9046 L 35.216 76.4935 C 38.9679 98.7436 9.509 96.5324 22.432 73.1767 C 22.5818 72.9059 17.4296 15.962 17.4296 15.962 L 27.4344 2.5567 Z" fill="#7b7d7b"/>
			<path d="M 29.3451 0.0346 C 29.8769 0.3793 32.978 2.3299 33.896 7.4628 C 36.1046 12.4876 39.6627 14.4419 39.8363 17.3095 C 39.8363 18.6291 38.5111 19.5991 37.5436 20.2808 C 41.6775 21.8355 44.7346 20.5917 46.8537 27.5363 C 50.1989 38.4991 46.0331 46.3146 48.4517 52.2049 C 51.9053 60.6159 62 65.7467 62 75.9061 C 62 80.8034 48.9944 78.2866 45.5336 79.292 C 39.0799 81.1669 37.0753 88.0533 30.5957 90.9008 L 30.1094 90.2789 C 32.7216 81.3937 27.5039 69.929 27.6776 58.2857 C 27.7847 51.1065 32.0297 44.6601 31.4989 37.4175 C 31.1729 32.9684 28.3724 28.2258 28.3724 24.0813 C 28.3724 20.5883 34.3405 22.2435 35.3203 18.4151 L 33.5833 16.964 C 30.3294 15.893 32.6916 9.6279 26.7049 6.3226 C 21.6677 8.338 25.9291 15.6626 20.1045 18.5533 C 20.1045 18.5533 19.236 19.728 20.2434 20.6954 C 22.7564 21.1285 27.024 21.0019 27.2607 24.3577 C 27.5679 28.7113 24.829 34.3849 24.829 39.145 C 24.829 66.1713 30.1082 66.2631 20.6603 88.8969 C 20.245 89.1722 19.9404 88.6442 19.8266 88.3441 C 18.7811 85.5883 18.817 79.0215 15.241 77.8409 C 11.379 76.566 1.1878 79.2341 0.1641 74.6623 C -1.3366 67.9599 7.956 62.6619 7.6678 56.6273 C 8.1889 42.5655 1.1021 23.7703 15.7273 20.0044 L 15.7273 19.7971 L 14.4767 18.2769 C 14.3468 13.7074 17.7908 12.2121 19.4097 8.4647 C 21.6594 3.2568 22.3481 -0.2122 29.3451 0.0346 Z" fill="#bfbfbf"/>
			<path d="M 14.5809 18.4496 C 14.5809 18.4496 17.8117 19.7626 20.0003 18.8642 C 20.0003 18.8642 19.3749 19.2788 20.1392 20.6608 L 15.8315 19.9698 L 14.5809 18.4496 Z" fill="#969696"/>
			<path d="M 27.2955 3.3168 C 27.2955 3.3168 26.4617 4.8831 26.6702 6.1499 C 26.8786 7.4167 27.2955 3.3168 27.2955 3.3168 Z" fill="#969696"/>
			<path d="M 29.3104 0 C 29.3104 0 28.7314 0.4146 28.5461 0.8292 C 28.3608 1.2438 29.3104 0 29.3104 0 Z" fill="#969696"/>
			<path d="M 28.5693 0.4376 C 28.5693 0.4376 28.5461 0.0461 28.1061 1.2668 C 27.9725 1.6373 28.5693 0.4376 28.5693 0.4376 Z" fill="#969696"/>
			<path d="M 42.0944 23.9776 C 42.0944 23.9776 45.4546 26.2265 44.5956 27.5017 C 43.7366 28.7769 42.0944 23.9776 42.0944 23.9776 Z" fill="#969696"/>
			<path d="M 40.2185 44.1548 C 40.2185 44.1548 39.1574 35.7037 37.7173 31.7168 C 36.2772 27.7299 40.2185 44.1548 40.2185 44.1548 Z" fill="#969696"/>
			<path d="M 22.432 33.8589 C 22.432 33.8589 23.6826 29.4365 23.9605 26.3961 C 24.2062 23.708 22.432 33.8589 22.432 33.8589 Z" fill="#969696"/>
			<path d="M 8.7447 35.4482 C 9.0816 38.3546 8.7447 40.4234 8.7447 40.4234 C 8.7447 40.4234 8.4079 32.5418 8.7447 35.4482 Z" fill="#969696"/>
			<path d="M 9.7869 59.0803 L 8.6058 62.9499 C 8.6058 62.9499 10.4206 61.2077 9.7869 59.0803 Z" fill="#969696"/>
			<path d="M 3.0822 70.8964 C 3.0822 70.8964 3.3021 72.626 2.3568 73.2576 C 1.4115 73.8893 3.0822 70.8964 3.0822 70.8964 Z" fill="#969696"/>
			<path d="M 50.1704 76.0675 C 52.0023 79.2936 54.1121 77.9405 54.1121 77.9405 C 54.1121 77.9405 48.3049 72.7822 50.1704 76.0675 Z" fill="#969696"/>
			<path d="M 37.4394 39.0414 " stroke="#ffffff00" stroke-width="1" fill="#969696"/>
			<path d="M 37.4394 50.0974 C 37.1908 49.9737 38.6899 52.5849 38.6899 52.5849 C 38.6899 52.5849 37.9952 50.3737 37.4394 50.0974 Z" stroke="#ffffff00" stroke-width="1" fill="#969696"/>
			<path d="M 33.2706 27.709 C 33.2706 27.709 34.1044 32.1314 34.6602 33.6516 C 35.216 35.1718 34.9381 28.9528 33.2706 27.709 Z" stroke="#ffffff00" stroke-width="1" fill="#969696"/>
			<path id="Ellipse" d="M 29.3798 23.9776 C 29.3798 23.5197 29.7531 23.1484 30.2136 23.1484 C 30.6741 23.1484 31.0473 23.5197 31.0473 23.9776 C 31.0473 24.4356 30.6741 24.8068 30.2136 24.8068 C 29.7531 24.8068 29.3798 24.4356 29.3798 23.9776 Z" stroke="#ffffff00" stroke-width="1" fill="#969696"/>
			<g>
				<path d="M 31.3429 2.7755 C 31.5251 2.7776 31.7514 2.7305 31.8438 2.5567 C 32.6091 3.5143 32.9998 4.5901 33.3624 5.7244 C 34.3823 8.9139 35.2846 10.4597 36.9652 12.421 C 37.5579 13.1125 38.1243 13.8351 38.624 14.5951 C 40.3659 17.2461 40.0788 18.5423 37.3633 20.2485 C 38.1268 20.7939 39.0184 20.7312 39.8254 20.8839 C 43.429 21.5651 45.8356 23.4962 46.6963 27.1589 C 47.3802 30.0691 48.2852 32.9839 48.1874 36.0008 C 48.0636 39.83 47.6914 43.6624 47.5921 47.4927 C 47.5221 50.1938 48.2064 52.6005 49.7577 54.8781 C 52.0889 58.3013 54.833 61.3844 57.4221 64.5921 C 60.0808 67.8859 61.7568 71.1037 61.9426 75.7606 C 62.0718 76.9388 61.6501 77.7553 60.6118 78.2451 C 59.4131 78.8104 58.1427 79.0997 56.8063 79.0432 C 56.3122 78.742 55.5969 79.3364 55.1975 78.648 C 55.4039 77.306 55.3315 77.1484 54.1466 76.4579 C 53.7043 76.1998 53.2624 75.9393 52.8119 75.6976 C 48.7942 73.5445 46.7222 70.1794 46.4068 65.661 C 46.2849 63.9156 46.0001 62.182 45.7128 60.4536 C 45.4963 59.1514 45.0997 57.9286 44.5063 56.7267 C 43.5869 54.864 43.5377 52.7752 43.3409 50.7464 C 42.8621 45.8108 42.8131 40.8474 42.4252 35.9055 C 42.2537 33.7172 41.2367 31.7797 40.5364 29.75 C 39.6801 27.2674 38.6121 24.8558 38.0978 22.2598 C 37.9252 21.3888 37.114 20.9212 35.9734 20.9481 C 35.5377 20.9584 35.1044 21.0995 34.667 20.9675 C 33.8821 20.6084 34.789 20.2623 34.6768 19.9069 C 35.7024 17.8277 35.8413 18.8642 33.7346 17.083 C 32.5936 16.6062 32.1548 15.7083 31.7803 14.6127 C 31.4888 13.7597 31.1168 12.5071 30.4691 10.4991 C 30.132 8.4696 30.8437 6.1829 30.8263 4.1596 C 30.8219 3.6632 30.9153 3.1412 31.3429 2.7755 Z" fill="#969696"/>
			</g>
			<path d="M 21.2597 52.952 C 21.6565 56.3092 22.8387 68.0432 22.3161 69.2494 C 21.7935 70.4556 20.8629 49.5948 21.2597 52.952 Z" fill="#969696"/>
		</g>
	</g>
</svg>