<?xml version="1.0" standalone="no"?>
<!-- Generator: Adobe Fireworks 10, Export SVG Extension by Aaron Beall (http://fireworks.abeall.com) . Version: 0.6.0  -->
<!DOCTYPE svg PUBLIC "-//W3C//DTD SVG 1.1//EN" "http://www.w3.org/Graphics/SVG/1.1/DTD/svg11.dtd">
<svg id="logo_bag4" viewBox="0 0 92 83" style="background-color:#ffffff00" version="1.1"
	xmlns="http://www.w3.org/2000/svg" xmlns:xlink="http://www.w3.org/1999/xlink" xml:space="preserve"
	x="0px" y="0px" width="92px" height="83px"
>
	<g id="Layer%201">
		<g>
			<g>
				<path d="M 37.9816 83 C 37.6056 83 37.2299 83 36.8537 83 C 35.7258 82.6196 34.5351 83.0819 33.404 82.7493 C 32.1035 81.8494 30.5408 82.0276 29.0939 81.7565 C 23.7352 80.753 18.517 79.3791 13.864 76.4131 C 12.3925 75.4752 11.0804 74.3216 10.0076 72.9742 C 8.7189 71.356 7.7706 69.566 7.9307 67.3558 C 8.0416 65.8267 7.9423 64.284 7.9584 62.7473 C 7.963 62.3093 8.0293 61.8971 8.5278 61.7378 C 9.0029 61.5865 9.348 61.8019 9.6211 62.1641 C 13.8061 67.7161 20.0095 69.5728 26.3676 71.0916 C 32.9102 72.6545 39.5957 72.8418 46.2516 72.4474 C 54.635 71.951 62.839 70.3464 70.5301 66.8309 C 74.6469 64.9492 78.5089 62.648 81.1532 58.8008 C 81.4981 58.2987 81.9376 57.8 82.6639 58.0617 C 83.3588 58.3124 83.228 58.9536 83.2337 59.4973 C 83.2482 60.8944 83.2448 62.2915 83.2372 63.6886 C 83.2234 66.2442 82.1013 68.2978 80.4414 70.1948 C 75.4776 75.8666 68.6963 78.12 61.7673 80.1261 C 58.0193 81.2115 54.1794 81.8202 50.3121 82.273 C 49.8241 82.3299 49.4022 82.4482 49.0289 82.7565 C 47.8044 83.0584 46.533 82.6382 45.313 83 C 44.7491 83 44.1852 83 43.6211 83 C 41.7413 82.774 39.8615 82.774 37.9816 83 Z" fill="#969696"/>
				<path d="M 49.0308 82.4671 C 48.6209 82.4205 48.2109 82.3739 47.8009 82.3272 C 47.7944 82.2362 47.7879 82.1456 47.7814 82.0545 C 48.9872 81.9135 50.1931 81.7709 51.3994 81.6317 C 58.4977 80.8133 65.3234 78.9892 71.7964 75.9864 C 75.0962 74.4558 78.0553 72.3784 80.3929 69.5637 C 81.9189 67.7267 82.8765 65.6261 82.8203 63.1668 C 82.7916 61.9103 82.8103 60.6524 82.7958 59.3953 C 82.7928 59.1181 82.7671 58.8016 82.437 58.7115 C 82.1819 58.6417 81.9942 58.8393 81.8546 59.0272 C 76.5063 66.2333 68.5444 68.8412 60.3504 71.0177 C 52.4236 73.1232 44.3165 73.5779 36.1806 73.1566 C 29.302 72.8004 22.5796 71.4982 16.3037 68.4783 C 13.5567 67.1567 11.1934 65.3655 9.3507 62.9301 C 9.1858 62.7124 9.0614 62.4143 8.7384 62.406 C 8.5221 62.4007 8.412 62.6082 8.4204 62.7921 C 8.5376 65.4164 7.8297 68.112 9.056 70.6419 C 10.4379 73.4926 12.7769 75.4043 15.501 76.8757 C 21.2121 79.9612 27.4239 81.2942 33.8345 81.8915 C 34.0207 81.9089 34.2085 81.9237 34.3913 81.9613 C 34.4764 81.9791 34.5506 82.0485 34.7302 82.1528 C 34.3406 82.5695 33.8371 82.3394 33.4399 82.455 C 32.3021 83.077 31.1181 82.6306 29.972 82.5453 C 23.1047 82.0325 16.7869 79.9798 11.3142 75.7217 C 8.8706 73.8202 7.4078 71.3996 7.6692 68.184 C 7.6692 65.5567 7.6761 62.9305 7.6624 60.3047 C 7.6601 59.8545 7.7897 59.3824 7.5281 58.9542 C 7.5281 58.1154 7.3308 57.2535 7.5281 56.4378 C 12.7643 34.7889 82.3484 32.3296 83.3752 54.2225 C 83.5086 57.0657 83.5328 59.9137 83.708 62.7367 C 83.9852 67.2019 81.9242 70.3646 78.6278 73.0295 C 75.1976 75.8025 71.3341 77.7726 67.1982 79.2638 C 61.9383 81.1607 56.5564 82.4948 50.9355 82.6993 C 50.3006 82.7224 49.6183 82.9143 49.0308 82.4671 Z" fill="#7b7d7b"/>
				<path d="M 7.7551 68.5394 C 7.6796 68.5132 7.6038 68.487 7.5281 68.4609 C 7.5281 65.292 7.5281 62.1231 7.5281 58.9542 C 8.0483 60.1158 7.7792 61.3431 7.7991 62.5387 C 7.8322 64.5381 7.7746 66.5389 7.7551 68.5394 Z" fill="#a0a0a0"/>
				<path d="M 39.4204 71.8171 C 33.4489 71.6942 25.8234 70.9081 18.5961 67.8799 C 16.5085 67.0054 14.5614 65.8961 12.798 64.4725 C 8.3091 60.8487 7.9901 55.7501 11.9952 51.5918 C 15.6696 47.7767 20.3247 45.5862 25.2227 43.8618 C 31.3137 41.7175 37.6192 40.6139 44.0693 40.1565 C 52.0928 39.5875 60.0088 40.0103 67.7726 42.1994 C 71.6343 43.2884 75.3785 44.6912 78.4064 47.4285 C 83.2505 51.8077 83.1201 56.7517 78.1777 61.0749 C 73.3239 65.3215 67.5038 67.6004 61.3795 69.2364 C 54.7699 71.0021 48.0377 71.8156 39.4204 71.8171 Z" fill="#bfbfbf"/>
				<path d="M 49.6497 43.8163 C 54.8415 43.7029 59.9736 44.1409 64.9734 45.5917 C 67.5493 46.3392 70.0761 47.2309 72.0251 49.2124 C 73.9217 51.1412 74.1313 53.4728 72.5154 55.6646 C 71.0552 57.6459 68.9632 58.8435 66.7867 59.8485 C 61.2778 62.3923 55.4106 63.6101 49.4064 64.2647 C 44.7317 64.7739 40.0533 64.997 35.3543 64.5517 C 30.5658 64.0985 25.8499 63.3841 21.4743 61.2451 C 20.456 60.7476 19.5341 60.1221 18.7289 59.3175 C 16.6357 57.2264 16.5773 54.5576 18.5778 52.3353 C 20.513 50.1859 23.0299 48.936 25.6484 47.873 C 30.8635 45.7559 36.351 44.7803 41.9166 44.1309 C 44.4904 43.8309 47.0708 43.8552 49.6497 43.8163 Z" fill="#7b7d7b"/>
				<path d="M 70.9141 50.067 C 72.5961 52.3203 72.5112 53.7384 70.4705 55.6678 C 68.0273 57.9773 64.9841 59.2199 61.8251 60.17 C 50.433 63.5968 38.8991 64.2324 27.2306 61.7389 C 26.3636 61.5535 25.5276 61.2266 24.677 60.9653 C 24.345 60.957 24.0329 60.8918 23.7774 60.6602 C 21.4974 57.5033 21.9606 54.948 25.2889 52.8213 C 28.4172 50.8223 31.9438 49.8164 35.5425 49.0761 C 42.8422 47.5742 50.241 47.1179 57.6701 47.4012 C 61.2273 47.537 64.8396 47.6128 68.2511 48.8637 C 68.9276 49.1119 69.6329 48.6398 70.2513 49.0897 C 70.6276 49.3118 71.0044 49.5344 70.9141 50.067 Z" fill="#bfbfbf"/>
				<path d="M 70.5225 49.6787 C 70.2658 49.5527 70.0088 49.4264 69.7522 49.3001 C 66.1151 47.6963 62.2951 46.7211 58.3704 46.1684 C 54.6984 45.6515 50.9975 45.3968 47.288 45.5707 C 39.8026 45.9218 32.4364 46.9247 25.4417 49.7898 C 23.4715 50.5971 21.6517 51.6494 20.1841 53.2086 C 18.6236 54.8667 18.7334 56.4418 20.5189 57.8672 C 21.5676 58.7044 22.7784 60.1063 23.774 61.0193 C 23.9445 61.1308 18.9772 59.2222 17.8448 57.6258 C 16.5295 55.7719 17.5327 53.1205 19.714 51.3815 C 23.0898 48.6903 27.0722 47.3245 31.1804 46.2478 C 38.1351 44.4252 45.2315 43.7426 52.3926 44.0751 C 57.5504 44.3147 62.694 44.9063 67.5416 46.9018 C 69.0141 47.5078 70.3863 48.2652 71.5455 49.6787 C 71.059 49.6787 70.791 49.6787 70.5225 49.6787 Z" fill="#606060"/>
				<path d="M 24.1656 60.631 C 22.3849 60.3218 20.9228 59.3896 19.6785 58.169 C 18.2244 56.7431 18.28 55.014 19.6883 53.443 C 21.7196 51.1767 24.3672 49.8958 27.1733 48.8833 C 32.7762 46.8623 38.5794 45.9078 44.5149 45.4673 C 50.8372 44.9982 57.088 45.2536 63.26 46.6837 C 65.7211 47.2539 68.1933 47.9147 70.1438 49.6886 C 63.6066 48.2437 56.9718 47.7898 50.3079 48.0975 C 43.0946 48.4308 35.9073 49.0983 29.0736 51.7016 C 28.2885 52.0008 27.5201 52.359 26.7797 52.7555 C 22.8458 54.8623 22.2333 56.7308 24.1656 60.631 Z" fill="#969696"/>
			</g>
			<g>
				<path d="M 46.2487 67.418 C 45.8728 67.418 45.497 67.418 45.1209 67.418 C 43.993 67.0376 42.8022 67.4999 41.6711 67.1673 C 40.3706 66.2674 38.8079 66.4456 37.3611 66.1745 C 32.0023 65.171 26.7841 63.797 22.1312 60.831 C 20.6597 59.8932 19.3475 58.7396 18.2747 57.3921 C 16.986 55.774 16.0377 53.984 16.1978 51.7738 C 16.3087 50.2447 16.2095 48.702 16.2255 47.1653 C 16.2301 46.7273 16.2965 46.3151 16.795 46.1558 C 17.27 46.0045 17.6152 46.2199 17.8882 46.582 C 22.0732 52.1341 28.2766 53.9908 34.6348 55.5096 C 41.1774 57.0724 47.8629 57.2598 54.5187 56.8654 C 62.9021 56.369 71.1061 54.7644 78.7972 51.2489 C 82.914 49.3672 86.776 47.066 89.4203 43.2188 C 89.7653 42.7167 90.2047 42.218 90.931 42.4797 C 91.6259 42.7303 91.4951 43.3716 91.5009 43.9152 C 91.5154 45.3124 91.5119 46.7095 91.5043 48.1066 C 91.4905 50.6622 90.3684 52.7158 88.7086 54.6127 C 83.7447 60.2846 76.9634 62.538 70.0345 64.5441 C 66.2865 65.6295 62.4466 66.2382 58.5792 66.691 C 58.0912 66.7479 57.6694 66.8662 57.2961 67.1745 C 56.0715 67.4764 54.8002 67.0561 53.5802 67.418 C 53.0163 67.418 52.4523 67.418 51.8882 67.418 C 50.0084 67.192 48.1286 67.192 46.2487 67.418 Z" fill="#969696"/>
				<path d="M 57.298 66.8851 C 56.888 66.8385 56.478 66.7918 56.068 66.7452 C 56.0616 66.6542 56.055 66.5636 56.0485 66.4725 C 57.2544 66.3314 58.4603 66.1889 59.6665 66.0497 C 66.7649 65.2313 73.5905 63.4072 80.0636 60.4044 C 83.3634 58.8738 86.3224 56.7964 88.66 53.9817 C 90.186 52.1447 91.1437 50.0441 91.0874 47.5848 C 91.0587 46.3283 91.0775 45.0704 91.063 43.8133 C 91.0599 43.5361 91.0343 43.2196 90.7042 43.1295 C 90.4491 43.0597 90.2613 43.2573 90.1217 43.4452 C 84.7735 50.6512 76.8116 53.2592 68.6175 55.4357 C 60.6907 57.5412 52.5837 57.9959 44.4478 57.5745 C 37.5691 57.2184 30.8467 55.9162 24.5709 52.8963 C 21.8239 51.5747 19.4605 49.7835 17.6178 47.3481 C 17.453 47.1304 17.3285 46.8323 17.0055 46.824 C 16.7892 46.8187 16.6791 47.0262 16.6875 47.2101 C 16.8047 49.8344 16.0968 52.5299 17.3231 55.0599 C 18.705 57.9106 21.0441 59.8223 23.7681 61.2937 C 29.4793 64.3792 35.6911 65.7122 42.1016 66.3095 C 42.2878 66.3269 42.4756 66.3417 42.6584 66.3792 C 42.7435 66.3971 42.8177 66.4664 42.9973 66.5708 C 42.6078 66.9875 42.1043 66.7573 41.7071 66.873 C 40.5692 67.4949 39.3852 67.0486 38.2392 66.9632 C 31.3719 66.4505 25.0541 64.3978 19.5814 60.1397 C 17.1377 58.2382 15.6749 55.8176 15.9364 52.602 C 15.9364 49.9747 15.9433 47.3485 15.9295 44.7227 C 15.9272 44.2725 16.0568 43.8003 15.7952 43.3722 C 15.7952 42.5333 15.598 41.6715 15.7952 40.8558 C 21.0314 19.2069 90.6155 16.7476 91.6424 38.6405 C 91.7757 41.4837 91.7999 44.3317 91.9751 47.1547 C 92.2523 51.6198 90.1913 54.7826 86.895 57.4475 C 83.4647 60.2205 79.6012 62.1906 75.4653 63.6818 C 70.2054 65.5787 64.8235 66.9128 59.2026 67.1173 C 58.5678 67.1404 57.8855 67.3323 57.298 66.8851 Z" fill="#7b7d7b"/>
				<path d="M 16.0222 52.9574 C 15.9467 52.9312 15.871 52.905 15.7952 52.8789 C 15.7952 49.7099 15.7952 46.5411 15.7952 43.3722 C 16.3154 44.5338 16.0463 45.761 16.0662 46.9567 C 16.0993 48.956 16.0418 50.9569 16.0222 52.9574 Z" fill="#a0a0a0"/>
				<path d="M 47.6875 56.2351 C 41.7161 56.1122 34.0905 55.3261 26.8633 52.2979 C 24.7757 51.4233 22.8286 50.3141 21.0651 48.8904 C 16.5762 45.2667 16.2573 40.1681 20.2623 36.0098 C 23.9368 32.1946 28.5918 30.0042 33.4899 28.2798 C 39.5808 26.1355 45.8863 25.0319 52.3364 24.5745 C 60.3599 24.0054 68.2759 24.4283 76.0398 26.6174 C 79.9014 27.7064 83.6457 29.1092 86.6735 31.8465 C 91.5177 36.2257 91.3872 41.1696 86.4448 45.4929 C 81.5911 49.7395 75.7709 52.0184 69.6467 53.6544 C 63.0371 55.4201 56.3048 56.2336 47.6875 56.2351 Z" fill="#bfbfbf"/>
				<path d="M 57.9168 28.2343 C 63.1086 28.1209 68.2408 28.5589 73.2406 30.0097 C 75.8164 30.7572 78.3433 31.6489 80.2923 33.6304 C 82.1888 35.5592 82.3984 37.8908 80.7826 40.0825 C 79.3224 42.0639 77.2303 43.2615 75.0538 44.2664 C 69.545 46.8103 63.6777 48.028 57.6736 48.6826 C 52.9989 49.1919 48.3205 49.415 43.6215 48.9697 C 38.833 48.5165 34.1171 47.802 29.7415 45.6631 C 28.7232 45.1656 27.8013 44.54 26.996 43.7355 C 24.9028 41.6444 24.8445 38.9756 26.8449 36.7532 C 28.7802 34.6039 31.2971 33.354 33.9155 32.291 C 39.1307 30.1739 44.6182 29.1983 50.1838 28.5489 C 52.7575 28.2489 55.3379 28.2732 57.9168 28.2343 Z" fill="#7b7d7b"/>
				<path d="M 79.1813 34.485 C 80.8633 36.7383 80.7784 38.1564 78.7376 40.0858 C 76.2945 42.3953 73.2513 43.6379 70.0922 44.588 C 58.7001 48.0148 47.1663 48.6504 35.4978 46.1569 C 34.6307 45.9715 33.7947 45.6446 32.9441 45.3833 C 32.6121 45.375 32.3 45.3097 32.0446 45.0782 C 29.7646 41.9213 30.2277 39.3659 33.556 37.2392 C 36.6843 35.2403 40.2109 34.2344 43.8096 33.4941 C 51.1093 31.9921 58.5081 31.5359 65.9373 31.8192 C 69.4945 31.955 73.1067 32.0308 76.5182 33.2817 C 77.1948 33.5299 77.9001 33.0578 78.5185 33.5077 C 78.8948 33.7298 79.2715 33.9524 79.1813 34.485 Z" fill="#bfbfbf"/>
				<path d="M 78.7896 34.0967 C 78.533 33.9706 78.276 33.8444 78.0193 33.7181 C 74.3822 32.1143 70.5622 31.1391 66.6375 30.5863 C 62.9656 30.0695 59.2646 29.8148 55.5551 29.9887 C 48.0698 30.3398 40.7035 31.3427 33.7088 34.2078 C 31.7386 35.0151 29.9189 36.0674 28.4512 37.6266 C 26.8908 39.2847 27.0005 40.8598 28.786 42.2851 C 29.8347 43.1223 31.0456 44.5243 32.0411 45.4373 C 32.2117 45.5488 27.2444 43.6401 26.1119 42.0438 C 24.7967 40.1899 25.7998 37.5385 27.9812 35.7995 C 31.3569 33.1082 35.3394 31.7424 39.4475 30.6658 C 46.4023 28.8432 53.4987 28.1606 60.6598 28.4931 C 65.8176 28.7327 70.9611 29.3243 75.8088 31.3198 C 77.2812 31.9258 78.6534 32.6832 79.8127 34.0967 C 79.3262 34.0967 79.0581 34.0967 78.7896 34.0967 Z" fill="#606060"/>
				<path d="M 32.4328 45.049 C 30.652 44.7397 29.1899 43.8076 27.9456 42.587 C 26.4915 41.1611 26.5472 39.432 27.9554 37.861 C 29.9868 35.5947 32.6343 34.3138 35.4404 33.3012 C 41.0433 31.2803 46.8465 30.3258 52.782 29.8853 C 59.1043 29.4162 65.3552 29.6716 71.5272 31.1017 C 73.9883 31.6719 76.4605 32.3327 78.411 34.1065 C 71.8737 32.6617 65.2389 32.2077 58.575 32.5155 C 51.3617 32.8488 44.1745 33.5163 37.3408 36.1195 C 36.5556 36.4187 35.7873 36.7769 35.0468 37.1735 C 31.1129 39.2803 30.5004 41.1488 32.4328 45.049 Z" fill="#969696"/>
			</g>
			<g>
				<path d="M 30.5412 44.0449 C 30.1652 44.0449 29.7895 44.0449 29.4133 44.0449 C 28.2854 43.6645 27.0947 44.1269 25.9636 43.7943 C 24.6631 42.8943 23.1003 43.0726 21.6535 42.8014 C 16.2948 41.798 11.0765 40.424 6.4236 37.458 C 4.9521 36.5202 3.6399 35.3665 2.5671 34.0191 C 1.2785 32.4009 0.3302 30.6109 0.4902 28.4008 C 0.6012 26.8717 0.5019 25.329 0.518 23.7923 C 0.5226 23.3543 0.5889 22.942 1.0874 22.7827 C 1.5624 22.6315 1.9076 22.8468 2.1807 23.209 C 6.3657 28.761 12.5691 30.6178 18.9272 32.1366 C 25.4698 33.6994 32.1553 33.8867 38.8112 33.4924 C 47.1946 32.996 55.3986 31.3914 63.0897 27.8759 C 67.2065 25.9941 71.0685 23.6929 73.7128 19.8458 C 74.0577 19.3437 74.4972 18.845 75.2234 19.1067 C 75.9184 19.3573 75.7875 19.9986 75.7933 20.5422 C 75.8078 21.9394 75.8044 23.3364 75.7967 24.7336 C 75.783 27.2892 74.6609 29.3428 73.001 31.2397 C 68.0371 36.9116 61.2558 39.165 54.3269 41.1711 C 50.5789 42.2565 46.739 42.8651 42.8717 43.318 C 42.3836 43.3749 41.9618 43.4932 41.5885 43.8015 C 40.3639 44.1033 39.0926 43.6831 37.8726 44.0449 C 37.3087 44.0449 36.7447 44.0449 36.1806 44.0449 C 34.3009 43.8189 32.4211 43.8189 30.5412 44.0449 Z" fill="#969696"/>
				<path d="M 41.5904 43.5121 C 41.1805 43.4655 40.7704 43.4188 40.3605 43.3722 C 40.354 43.2812 40.3475 43.1905 40.341 43.0995 C 41.5468 42.9584 42.7527 42.8158 43.959 42.6767 C 51.0573 41.8582 57.883 40.0341 64.356 37.0314 C 67.6558 35.5008 70.6149 33.4234 72.9524 30.6087 C 74.4784 28.7717 75.4361 26.671 75.3799 24.2117 C 75.3512 22.9553 75.3699 21.6974 75.3554 20.4402 C 75.3523 20.163 75.3267 19.8466 74.9966 19.7565 C 74.7415 19.6867 74.5537 19.8843 74.4142 20.0722 C 69.0659 27.2782 61.104 29.8862 52.9099 32.0626 C 44.9832 34.1682 36.8761 34.6229 28.7402 34.2015 C 21.8616 33.8454 15.1392 32.5431 8.8633 29.5233 C 6.1163 28.2017 3.753 26.4105 1.9103 23.9751 C 1.7454 23.7574 1.6209 23.4593 1.298 23.451 C 1.0817 23.4457 0.9715 23.6531 0.9799 23.837 C 1.0972 26.4614 0.3893 29.1569 1.6156 31.6868 C 2.9974 34.5375 5.3365 36.4492 8.0605 37.9207 C 13.7717 41.0061 19.9835 42.3391 26.394 42.9364 C 26.5803 42.9539 26.7681 42.9687 26.9509 43.0062 C 27.036 43.024 27.1102 43.0934 27.2898 43.1978 C 26.9002 43.6145 26.3967 43.3843 25.9995 43.5 C 24.8617 44.1219 23.6776 43.6755 22.5316 43.5902 C 15.6643 43.0775 9.3465 41.0247 3.8738 36.7667 C 1.4301 34.8652 -0.0326 32.4445 0.2288 29.229 C 0.2288 26.6017 0.2357 23.9754 0.2219 21.3496 C 0.2196 20.8995 0.3493 20.4273 0.0877 19.9991 C 0.0877 19.1603 -0.1096 18.2985 0.0877 17.4828 C 5.3239 -4.1662 74.9079 -6.6254 75.9348 15.2675 C 76.0681 18.1107 76.0924 20.9586 76.2675 23.7817 C 76.5448 28.2468 74.4838 31.4096 71.1874 34.0745 C 67.7572 36.8475 63.8936 38.8176 59.7577 40.3087 C 54.4979 42.2057 49.116 43.5398 43.4951 43.7442 C 42.8602 43.7674 42.1779 43.9592 41.5904 43.5121 Z" fill="#7b7d7b"/>
				<path d="M 0.3147 29.5843 C 0.2391 29.5582 0.1634 29.532 0.0877 29.5059 C 0.0877 26.3369 0.0877 23.1681 0.0877 19.9991 C 0.6078 21.1608 0.3388 22.388 0.3587 23.5837 C 0.3918 25.583 0.3342 27.5839 0.3147 29.5843 Z" fill="#a0a0a0"/>
				<path d="M 31.98 32.8621 C 26.0085 32.7392 18.3829 31.953 11.1557 28.9249 C 9.0681 28.0503 7.121 26.941 5.3575 25.5174 C 0.8686 21.8937 0.5497 16.795 4.5548 12.6367 C 8.2292 8.8216 12.8842 6.6312 17.7823 4.9068 C 23.8733 2.7624 30.1788 1.6588 36.6289 1.2015 C 44.6524 0.6324 52.5684 1.0553 60.3322 3.2444 C 64.1938 4.3334 67.9381 5.7362 70.966 8.4735 C 75.8101 12.8527 75.6797 17.7966 70.7372 22.1199 C 65.8835 26.3665 60.0634 28.6454 53.9391 30.2814 C 47.3295 32.0471 40.5972 32.8606 31.98 32.8621 Z" fill="#bfbfbf"/>
				<path d="M 42.2093 4.8613 C 47.401 4.7479 52.5332 5.1859 57.533 6.6366 C 60.1089 7.3842 62.6357 8.2759 64.5847 10.2574 C 66.4813 12.1862 66.6909 14.5177 65.075 16.7095 C 63.6148 18.6908 61.5228 19.8884 59.3462 20.8934 C 53.8374 23.4373 47.9702 24.655 41.966 25.3096 C 37.2913 25.8189 32.6129 26.0419 27.9139 25.5967 C 23.1254 25.1435 18.4095 24.429 14.0339 22.2901 C 13.0156 21.7926 12.0937 21.167 11.2884 20.3625 C 9.1952 18.2714 9.1369 15.6025 11.1374 13.3802 C 13.0726 11.2309 15.5895 9.9809 18.208 8.918 C 23.4231 6.8008 28.9106 5.8253 34.4762 5.1759 C 37.05 4.8759 39.6304 4.9001 42.2093 4.8613 Z" fill="#7b7d7b"/>
				<path d="M 63.4737 11.112 C 65.1557 13.3652 65.0708 14.7834 63.0301 16.7127 C 60.5869 19.0223 57.5437 20.2648 54.3847 21.215 C 42.9925 24.6418 31.4587 25.2774 19.7902 22.7839 C 18.9232 22.5985 18.0871 22.2715 17.2366 22.0103 C 16.9046 22.0019 16.5925 21.9367 16.337 21.7052 C 14.057 18.5482 14.5202 15.9929 17.8485 13.8662 C 20.9768 11.8672 24.5034 10.8614 28.1021 10.1211 C 35.4018 8.6191 42.8005 8.1629 50.2297 8.4462 C 53.7869 8.582 57.3991 8.6578 60.8106 9.9087 C 61.4872 10.1569 62.1925 9.6847 62.8109 10.1347 C 63.1872 10.3568 63.5639 10.5794 63.4737 11.112 Z" fill="#bfbfbf"/>
				<path d="M 63.082 10.7237 C 62.8254 10.5976 62.5684 10.4713 62.3118 10.345 C 58.6746 8.7413 54.8547 7.7661 50.9299 7.2133 C 47.258 6.6964 43.557 6.4418 39.8476 6.6156 C 32.3622 6.9668 24.996 7.9697 18.0012 10.8348 C 16.031 11.642 14.2113 12.6944 12.7437 14.2536 C 11.1832 15.9116 11.293 17.4868 13.0785 18.9121 C 14.1272 19.7493 15.338 21.1513 16.3335 22.0643 C 16.5041 22.1758 11.5368 20.2671 10.4043 18.6707 C 9.0891 16.8168 10.0923 14.1655 12.2736 12.4265 C 15.6493 9.7352 19.6318 8.3694 23.7399 7.2928 C 30.6947 5.4702 37.7911 4.7876 44.9522 5.1201 C 50.11 5.3596 55.2536 5.9512 60.1012 7.9468 C 61.5736 8.5528 62.9459 9.3101 64.1051 10.7237 C 63.6186 10.7237 63.3505 10.7237 63.082 10.7237 Z" fill="#606060"/>
				<path d="M 16.7252 21.676 C 14.9445 21.3667 13.4824 20.4345 12.2381 19.214 C 10.7839 17.7881 10.8396 16.0589 12.2478 14.488 C 14.2792 12.2217 16.9268 10.9408 19.7328 9.9282 C 25.3358 7.9073 31.1389 6.9528 37.0744 6.5122 C 43.3967 6.0432 49.6476 6.2986 55.8196 7.7287 C 58.2807 8.2988 60.7529 8.9597 62.7034 10.7335 C 56.1662 9.2887 49.5314 8.8347 42.8675 9.1425 C 35.6542 9.4758 28.4669 10.1432 21.6332 12.7465 C 20.848 13.0457 20.0797 13.4039 19.3393 13.8004 C 15.4054 15.9072 14.7929 17.7758 16.7252 21.676 Z" fill="#969696"/>
			</g>
		</g>
	</g>
</svg>