<?xml version="1.0" standalone="no"?>
<!-- Generator: Adobe Fireworks 10, Export SVG Extension by Aaron Beall (http://fireworks.abeall.com) . Version: 0.6.0  -->
<!DOCTYPE svg PUBLIC "-//W3C//DTD SVG 1.1//EN" "http://www.w3.org/Graphics/SVG/1.1/DTD/svg11.dtd">
<svg id="status_black" viewBox="0 0 51 51" style="background-color:#ffffff00" version="1.1"
	xmlns="http://www.w3.org/2000/svg" xmlns:xlink="http://www.w3.org/1999/xlink" xml:space="preserve"
	x="0px" y="0px" width="51px" height="51px"
>
	<g id="Layer%201">
		<path id="Ellipse" d="M 2.8868 25.5 C 2.8868 13.0109 13.011 2.8868 25.5 2.8868 C 37.989 2.8868 48.1132 13.0109 48.1132 25.5 C 48.1132 37.9891 37.989 48.1132 25.5 48.1132 C 13.011 48.1132 2.8868 37.9891 2.8868 25.5 Z" fill="#000000"/>
		<path id="Ellipse2" d="M 2 25.5 C 2 12.5211 12.5212 2 25.5 2 C 38.4788 2 49 12.5211 49 25.5 C 49 38.4789 38.4788 49 25.5 49 C 12.5212 49 2 38.4789 2 25.5 Z" stroke="#e74c3c" stroke-width="4" fill="none"/>
		<path id="Ellipse3" d="M 22.0805 38.7729 C 22.0805 36.5529 23.7314 34.7533 25.768 34.7533 C 27.8045 34.7533 29.4555 36.5529 29.4555 38.7729 C 29.4555 40.9929 27.8045 42.7925 25.768 42.7925 C 23.7314 42.7925 22.0805 40.9929 22.0805 38.7729 Z" fill="#e74c3c"/>
		<path d="M 27.7496 33.1309 C 27.7496 33.1309 32.5895 13.6507 29.1324 9.8824 C 27.9318 8.5736 26.8238 8.1739 25.768 8.2097 C 24.7122 8.1739 23.5116 8.5736 22.311 9.8824 C 18.8539 13.6507 23.6938 33.1309 23.6938 33.1309 C 25.6527 31.791 27.7496 33.1309 27.7496 33.1309 Z" fill="#e74c3c"/>
	</g>
</svg>