<?xml version="1.0" standalone="no"?>
<!-- Generator: Adobe Fireworks 10, Export SVG Extension by Aaron Beall (http://fireworks.abeall.com) . Version: 0.6.0  -->
<!DOCTYPE svg PUBLIC "-//W3C//DTD SVG 1.1//EN" "http://www.w3.org/Graphics/SVG/1.1/DTD/svg11.dtd">
<svg id="" viewBox="0 0 47 48" style="background-color:#ffffff00" version="1.1"
	xmlns="http://www.w3.org/2000/svg" xmlns:xlink="http://www.w3.org/1999/xlink" xml:space="preserve"
	x="0px" y="0px" width="47px" height="48px"
>
	<g id="Layer%201">
		<g>
			<path id="Ellipse" d="M 0.4707 23.8024 C 0.4707 10.9249 10.8865 0.4862 23.7354 0.4862 C 36.584 0.4862 47 10.9249 47 23.8024 C 47 36.6796 36.584 47.1183 23.7354 47.1183 C 10.8865 47.1183 0.4707 36.6796 0.4707 23.8024 Z" fill="#f39c12"/>
			<path d="M 23.9248 36.6659 C 19.6914 36.6659 15.458 36.6665 11.2246 36.665 C 10.6567 36.6649 10.0903 36.6575 9.5298 36.5284 C 7.7656 36.1217 6.9399 34.7107 7.4282 32.941 C 7.5723 32.4187 7.8081 31.9426 8.0723 31.4785 C 12.377 23.918 16.6841 16.3589 20.9888 8.7983 C 21.3833 8.1052 21.8188 7.453 22.4915 6.9973 C 23.457 6.343 24.5083 6.3555 25.4487 7.0389 C 26.0178 7.4525 26.4331 7.9976 26.7793 8.6061 C 31.1523 16.287 35.5271 23.9669 39.8987 31.6487 C 40.2126 32.2004 40.4563 32.778 40.5479 33.4204 C 40.7622 34.9211 39.9543 36.1332 38.4932 36.475 C 37.7612 36.6464 37.0171 36.6637 36.2727 36.6643 C 32.1567 36.6676 28.041 36.6659 23.9248 36.6659 Z" fill="#ffffff"/>
			<path id="Ellipse2" d="M 21.583 31.2358 C 21.583 29.7909 22.6499 28.6194 23.9658 28.6194 C 25.2817 28.6194 26.3486 29.7909 26.3486 31.2358 C 26.3486 32.6809 25.2817 33.8523 23.9658 33.8523 C 22.6499 33.8523 21.583 32.6809 21.583 31.2358 Z" fill="#f39c12"/>
			<path d="M 25.2461 27.5634 C 25.2461 27.5634 28.3735 14.8834 26.1396 12.4305 C 25.364 11.5786 24.6479 11.3184 23.9658 11.3417 C 23.2837 11.3184 22.5078 11.5786 21.7319 12.4305 C 19.498 14.8834 22.6255 27.5634 22.6255 27.5634 C 23.8911 26.6912 25.2461 27.5634 25.2461 27.5634 Z" fill="#f39c12"/>
		</g>
	</g>
</svg>