<?xml version="1.0" standalone="no"?>
<!-- Generator: Adobe Fireworks 10, Export SVG Extension by Aaron Beall (http://fireworks.abeall.com) . Version: 0.6.0  -->
<!DOCTYPE svg PUBLIC "-//W3C//DTD SVG 1.1//EN" "http://www.w3.org/Graphics/SVG/1.1/DTD/svg11.dtd">
<svg id="" viewBox="0 0 48 48" style="background-color:#ffffff00" version="1.1"
	xmlns="http://www.w3.org/2000/svg" xmlns:xlink="http://www.w3.org/1999/xlink" xml:space="preserve"
	x="0px" y="0px" width="48px" height="48px"
>
	<g id="Layer%201">
		<g>
			<path id="Ellipse" d="M 0.6978 23.9124 C 0.6978 11.0349 11.1138 0.5962 23.9624 0.5962 C 36.8113 0.5962 47.2271 11.0349 47.2271 23.9124 C 47.2271 36.7896 36.8113 47.2283 23.9624 47.2283 C 11.1138 47.2283 0.6978 36.7896 0.6978 23.9124 Z" fill="#e74c3c"/>
			<path id="Ellipse2" d="M 20.8691 35.946 C 20.8691 33.9333 22.3625 32.3018 24.2051 32.3018 C 26.0474 32.3018 27.5408 33.9333 27.5408 35.946 C 27.5408 37.9587 26.0474 39.5903 24.2051 39.5903 C 22.3625 39.5903 20.8691 37.9587 20.8691 35.946 Z" fill="#ffffff"/>
			<path d="M 25.9976 30.8308 C 25.9976 30.8308 30.376 13.1692 27.2485 9.7528 C 26.1626 8.5662 25.1602 8.2039 24.2051 8.2362 C 23.2498 8.2039 22.1636 8.5662 21.0776 9.7528 C 17.9502 13.1692 22.3286 30.8308 22.3286 30.8308 C 24.1006 29.616 25.9976 30.8308 25.9976 30.8308 Z" fill="#ffffff"/>
		</g>
	</g>
</svg>