<?xml version="1.0" standalone="no"?>
<!-- Generator: Adobe Fireworks 10, Export SVG Extension by Aaron Beall (http://fireworks.abeall.com) . Version: 0.6.0  -->
<!DOCTYPE svg PUBLIC "-//W3C//DTD SVG 1.1//EN" "http://www.w3.org/Graphics/SVG/1.1/DTD/svg11.dtd">
<svg id="" viewBox="0 0 100 100" style="background-color:#ffffff00" version="1.1"
	xmlns="http://www.w3.org/2000/svg" xmlns:xlink="http://www.w3.org/1999/xlink" xml:space="preserve"
	x="0px" y="0px" width="100px" height="100px"
>
	<g id="Layer%201">
		<g>
			<path d="M 14 52.542 C 14 50.4434 14 48.3445 14 46.2456 C 15.0854 46.4783 15.4998 47.2292 15.5181 48.2532 C 15.5381 49.3633 15.5215 50.4741 15.5286 51.5845 C 15.5303 51.8359 15.5227 52.186 15.8264 52.2058 C 16.21 52.231 16.0986 51.8501 16.1021 51.6279 C 16.1313 49.8252 16.0408 48.0186 16.2722 46.2217 C 16.2764 46.166 16.2837 46.1104 16.2944 46.0554 C 16.6567 46.0146 16.8591 45.8323 16.8342 45.4485 C 17.0374 44.9194 17.3887 44.564 17.9717 44.4795 C 18.2051 44.532 18.4241 44.53 18.5889 44.3193 C 19.8018 44.3201 21.0159 44.3416 22.2209 44.1606 C 22.8696 44.4155 23.4592 44.1504 24.0237 43.9038 C 26.9644 42.6177 27.8481 39.9292 27.5632 36.9968 C 27.5476 36.8372 27.5325 36.6521 27.3367 36.6396 C 27.1577 36.6284 27.0808 36.7913 27.019 36.9443 C 26.7427 37.6287 26.2439 38.0054 25.4958 38.0322 C 25.4961 37.7764 25.4961 37.521 25.4963 37.2651 C 26.4336 37.0181 26.7734 36.5493 26.6641 35.6545 C 26.3735 33.2834 23.5974 30.4861 21.012 29.9604 C 20.824 29.5886 20.9021 29.2344 21.083 28.8867 C 21.6538 28.8462 22.1306 29.0999 22.582 29.3953 C 22.866 29.5811 23.0957 29.6638 23.26 29.2842 C 24.0708 27.4102 25.7402 26.3123 27.1533 24.9829 C 27.4722 24.6829 27.8652 24.4453 27.9839 23.98 C 28.3293 23.8369 28.6646 23.6563 29.0229 23.5591 C 29.624 23.3962 30.4409 23.8242 30.8242 23.3499 C 31.2139 22.8682 30.6638 22.1011 30.8235 21.4519 C 31.7939 21.668 32.5356 22.2534 33.2258 22.9258 C 34.0552 23.7339 34.7498 24.688 35.7822 25.2759 C 35.6724 25.8779 35.2163 26.0698 34.6982 26.189 C 34.3931 26.259 33.9263 25.8264 33.7979 26.3452 C 33.6865 26.7952 34.2178 26.9119 34.5054 27.1335 C 34.7822 27.3469 35.0703 27.5537 35.4541 27.5024 C 36.7747 27.7112 38.0952 27.9131 39.4209 27.5376 C 40.1653 27.6716 40.7593 27.4675 41.1377 26.7778 C 41.1897 26.7632 41.2429 26.7534 41.2969 26.7488 C 42.145 26.2061 42.9648 25.6426 43.4329 24.6963 C 44.1475 23.2512 44.1975 21.6836 44.1663 20.1418 C 44.1362 18.6538 44.2266 17.2983 45.5686 16.3564 C 47.9749 16.1514 50.3831 16.2515 52.791 16.3118 C 52.8911 16.6738 53.1646 16.7026 53.46 16.6306 C 53.7236 16.5662 53.7339 16.3315 53.7578 16.1079 C 53.8145 15.583 53.8843 15.0593 53.9487 14.5352 C 54.3135 14.6563 54.7217 14.7065 54.905 15.1221 C 54.7886 15.7751 54.1799 16.2363 54.2085 16.9519 C 54.2803 18.7578 54.1536 20.5671 54.376 22.3723 C 54.5181 23.522 55.2158 24.2048 56.1646 24.6582 C 56.6436 24.8872 57.23 24.9639 57.5659 24.3188 C 58.0186 24.6294 58.4709 24.9399 58.9236 25.251 C 58.5513 25.9097 58.0127 26.1702 57.2664 25.9497 C 57.063 25.8896 56.8274 25.7661 56.699 26.0537 C 56.6086 26.2563 56.7434 26.4185 56.8779 26.5498 C 57.5645 27.2192 58.3074 27.7734 59.3442 27.6899 C 59.584 27.6997 59.824 27.7095 60.0637 27.719 C 60.542 28.0034 61.0068 28.0964 61.4324 27.624 C 61.6787 27.6067 61.925 27.5891 62.1714 27.5718 C 62.3818 27.7715 62.5874 27.6138 62.7932 27.5618 C 64.2776 27.186 65.2988 26.127 66.3853 25.156 C 67.1104 24.5078 67.782 23.771 68.7944 23.54 C 69.3462 23.4143 70.0239 23.9133 70.4189 23.4739 C 70.8418 23.0034 70.2441 22.333 70.3894 21.7378 C 70.4111 21.6484 70.3889 21.5483 70.3867 21.4531 C 70.9316 21.531 71.333 21.8613 71.7236 22.21 C 71.3811 23.1245 71.5295 23.9556 72.1548 24.7024 C 72.6431 25.2861 73.1108 25.8899 73.6318 26.4429 C 74.406 27.2646 75.1206 28.0989 75.0737 29.3228 C 75.0337 29.5527 74.9941 29.7827 74.9546 30.0125 C 73.853 31.3438 72.4614 32.4248 71.5073 33.874 C 71.1189 34.4639 70.5679 35.1074 70.9785 35.9424 C 70.9595 36.061 70.9404 36.1797 70.9216 36.2983 C 70.3013 37.2385 70.6216 39.6113 71.521 40.7368 C 72.5879 42.0723 73.6221 42.3132 74.7375 41.4854 C 74.9731 41.4897 75.0852 41.6511 75.1802 41.8333 C 75.0596 42.5159 74.5737 42.6201 73.9836 42.6348 C 73.4407 42.6487 73.2627 42.969 73.665 43.3564 C 74.3372 44.0034 75.1362 44.3975 76.1196 44.1606 C 77.3865 44.3884 78.6667 44.2964 79.9421 44.3179 C 80.5825 44.7239 80.9478 44.5681 81.1357 43.8159 C 81.2417 43.3914 81.1743 42.8547 81.6855 42.6013 C 81.8235 42.6362 81.9924 42.614 82.0481 42.7988 C 82.0723 43.114 81.7964 43.3047 81.7227 43.575 C 81.5093 44.3547 81.187 45.1431 81.7932 45.8999 C 81.8059 46.1428 81.8188 46.3855 81.8315 46.6284 C 81.5996 48.0283 81.5791 49.4272 81.8506 50.8247 C 81.8184 51.3167 81.7859 51.8086 81.7539 52.3003 C 81.3679 53.2002 80.6545 53.8145 79.9131 54.4043 C 78.5364 54.7322 77.127 54.5076 75.739 54.6475 C 75.5525 54.4465 75.4207 54.5435 75.3052 54.7271 C 75.1311 54.7598 74.957 54.7925 74.783 54.8252 C 74.0642 54.6323 73.5261 55.0796 72.9749 55.3848 C 71.6753 56.1033 70.7009 57.9834 70.925 59.2185 C 70.9111 59.332 70.8975 59.4453 70.8835 59.5591 C 70.1082 60.9512 70.8154 63.5 72.3442 64.5571 C 73.8828 65.6213 75.0454 66.8516 74.8276 68.9004 C 74.813 69.0376 74.9272 69.1882 74.9814 69.3328 C 74.958 69.4468 74.9348 69.561 74.9114 69.675 C 73.4089 71.1812 71.9089 72.6895 70.4033 74.1924 C 68.9722 75.6211 68.0547 75.623 66.5735 74.2339 C 65.8789 73.5828 65.2041 72.9001 64.4468 72.3289 C 63.7344 71.7915 62.9912 71.1997 61.9771 71.4192 C 61.0212 71.2371 60.0652 71.2432 59.1089 71.4155 C 58.1309 71.2234 57.3489 71.7461 56.5664 72.1692 C 54.9534 73.0415 53.9097 75.252 54.3279 76.7739 C 54.2236 78.0361 54.4741 79.3188 54.106 80.5654 C 53.4695 81.1943 52.8335 81.8237 52.197 82.4521 C 50.1978 83.05 48.178 82.8579 46.1567 82.6094 C 44.9124 81.655 43.604 80.8677 41.9446 80.9878 C 41.9434 79.7053 41.9421 78.4231 41.9409 77.1409 C 42.7288 77.082 43.0371 76.6167 43.0493 75.8721 C 43.0671 74.7803 42.7258 73.7778 42.0977 72.9294 C 41.363 71.9375 40.3926 71.2432 39.0427 71.3796 C 38.0205 71.1873 36.9998 71.2241 35.9795 71.396 C 34.8672 71.2878 34.0098 71.8447 33.1548 72.4436 C 31.8879 73.3311 31.0154 74.666 29.6743 75.4644 C 29.4192 75.4656 29.1641 75.4668 28.9089 75.4678 C 26.9976 74.5698 25.6135 73.0396 24.3179 71.4624 C 23.4351 70.3872 22.4431 69.8157 21.0649 69.906 C 20.8096 69.5532 20.9268 69.1616 20.9465 68.78 C 21.4004 68.7153 21.8081 68.8882 22.2056 69.0559 C 23.2051 69.4775 23.2009 69.4873 23.3567 68.3677 C 23.3638 68.311 23.373 68.2554 23.3845 68.1997 C 26.3743 66.6746 28.394 62.5701 27.3369 60.0569 C 26.8364 60.6631 26.3347 61.2461 25.499 61.3086 C 25.5015 61.0522 25.5044 60.7954 25.5068 60.5391 C 26.4229 60.5278 26.7944 60.0364 26.7788 59.1545 C 26.7607 58.144 26.4756 57.1853 25.8857 56.4121 C 24.9917 55.239 23.8689 54.3516 22.2197 54.6748 C 20.8911 54.6335 19.5625 54.5923 18.2336 54.5508 C 17.0745 53.3518 15.605 52.8047 14 52.542 ZM 64.8564 54.082 L 64.8608 54.0793 C 65.1235 54.0239 65.1953 53.8357 65.2319 53.5955 C 65.3364 52.9106 65.5286 52.2307 65.5576 51.5435 C 65.6113 50.2739 65.5728 49.001 65.5728 47.7295 C 64.9993 48.1982 65.031 48.8247 64.8232 49.363 C 64.5662 50.0293 64.3801 50.7881 63.4509 50.8447 C 63.592 49.2917 63.3462 47.7632 63.157 46.231 C 63.5972 46.2144 63.6877 45.855 63.855 45.5498 C 64.2295 44.8667 64.0083 44.1633 63.8569 43.5112 C 63.6233 42.5022 63.5767 41.3667 62.5503 40.7122 C 62.156 39.707 61.5388 38.8442 60.833 38.0386 C 60.561 36.9155 59.7576 36.3179 58.7424 35.929 C 58.0103 35.3252 57.2261 34.8008 56.3657 34.3965 C 53.0386 32.8328 49.5693 32.2383 45.9204 32.877 C 45.7227 32.6831 45.5977 32.7993 45.4873 32.978 C 45.313 33.011 45.1392 33.0437 44.9648 33.0767 C 44.7598 32.8777 44.5454 33.0154 44.3418 33.0703 C 39.2583 34.437 35.7207 37.5803 33.7026 42.4087 C 33.377 43.1877 32.8899 43.9795 33.0938 44.9092 C 33.0732 45.0215 33.053 45.1335 33.0325 45.2458 C 32.7583 45.3999 32.6792 45.5984 32.8916 45.8628 C 32.8757 45.9758 32.8599 46.0886 32.8442 46.2017 C 32.5132 46.425 32.4863 46.6965 32.7161 47.0083 C 32.6733 47.5815 32.6309 48.1543 32.5881 48.7271 C 32.3191 48.9805 32.3184 49.2339 32.5879 49.4873 C 32.6226 49.9341 32.6572 50.3809 32.6917 50.8276 C 32.3481 51.3621 32.6655 51.8921 32.7622 52.3911 C 33.4739 56.0615 35.2449 59.0566 38.5005 61.0537 C 39.113 61.4299 39.7773 61.6006 40.488 61.3076 C 41.3262 61.5708 41.9497 62.1997 42.7043 62.6055 C 42.5054 63.2432 42.012 63.272 41.479 63.1753 C 40.7876 63.0493 40.1587 62.7539 39.5349 62.4385 C 39.3022 62.3208 39 61.9902 38.7832 62.2578 C 38.5132 62.5911 38.9126 62.8311 39.1357 63.0107 C 40.5479 64.1494 42.0798 65.1003 43.8369 65.5923 C 44.5657 65.7964 45.2935 66.2271 46.1084 65.9241 C 48.0222 66.4163 49.9419 66.3135 51.8638 65.9807 C 52.8398 66.1431 53.7451 65.7834 54.6257 65.4971 C 58.7742 64.1479 61.8779 61.5195 63.8052 57.6079 C 64.2886 56.6274 64.9841 55.6592 64.8494 54.4509 C 64.8499 54.3845 64.8501 54.3184 64.8506 54.2522 C 64.8574 54.1956 64.8591 54.1387 64.8564 54.082 ZM 43.8237 75.9663 C 43.4744 77.0713 43.1685 77.9597 42.9165 78.8635 C 42.752 79.4541 42.9329 79.988 43.3755 80.4209 C 43.5313 80.573 43.6855 80.7727 43.9404 80.6553 C 44.1321 80.5669 44.1833 80.3682 44.1838 80.1743 C 44.1863 78.8347 44.3079 77.4851 43.8237 75.9663 Z" fill="#939393"/>
			<path d="M 14 45.1008 C 14.6533 44.4614 15.084 43.6409 15.7729 43.019 C 16.4656 42.3936 17.1863 41.9944 18.1492 42.0437 C 19.0024 42.0872 19.8633 42.0007 20.7141 42.062 C 22.5251 42.1924 23.8206 41.428 24.7334 39.9124 C 24.8123 39.7815 24.9414 39.6807 25.0474 39.5664 C 25.4565 39.5278 25.8721 39.5222 26.2732 39.4434 C 26.8555 39.3286 27.0659 39.4619 26.8516 40.0757 C 26.4199 41.3113 25.6631 42.2729 24.616 43.0645 C 23.8845 43.6172 22.9712 43.696 22.2209 44.1606 C 21.0159 44.3416 19.8018 44.3201 18.5889 44.3193 C 18.3091 44.0881 18.1125 44.1768 17.9717 44.4795 C 17.3887 44.564 17.0374 44.9194 16.8345 45.4487 C 16.5024 45.5159 16.3032 45.7009 16.2944 46.0554 C 16.2837 46.1104 16.2764 46.166 16.2725 46.2219 C 15.8887 46.2888 15.6304 46.0381 15.3467 45.855 C 14.9312 45.5864 14.5469 45.2458 14 45.2915 C 14 45.228 14 45.1643 14 45.1008 Z" fill="#d3d3d3"/>
			<path d="M 42.4839 16.1025 C 42.7676 15.4019 43.2937 14.9404 43.949 14.5967 C 44.2112 14.4595 44.5718 14.4097 44.5828 14 C 47.2588 14 49.9348 14 52.6106 14 C 52.6758 14.0652 52.741 14.1304 52.8062 14.1956 C 52.7458 14.5881 52.8865 14.9321 53.0332 15.2869 C 53.1904 15.6672 53.3525 16.085 52.791 16.3118 C 50.3831 16.2515 47.9749 16.1514 45.5684 16.356 C 44.5022 16.5928 43.2659 16.4915 42.4839 16.1025 Z" fill="#d3d3d3"/>
			<path d="M 14 45.2915 C 14.5469 45.2458 14.9312 45.5864 15.3467 45.855 C 15.6304 46.0381 15.8887 46.2888 16.2725 46.2219 C 16.0408 48.0186 16.1313 49.8252 16.1021 51.6279 C 16.0986 51.8501 16.21 52.231 15.8264 52.2058 C 15.5227 52.186 15.5303 51.8359 15.5286 51.5845 C 15.5215 50.4741 15.5381 49.3633 15.5181 48.2532 C 15.4998 47.2292 15.0854 46.4783 14 46.2456 C 14 45.9275 14 45.6099 14 45.2915 Z" fill="#adadad"/>
			<path d="M 14.3342 54.1211 C 14.2227 54.04 14.1116 53.959 14 53.8777 C 14 53.4326 14 52.9873 14 52.542 C 15.605 52.8047 17.0745 53.3518 18.2339 54.5513 C 17.5576 54.6338 17.0461 54.2405 16.4844 53.9702 C 15.7517 53.6182 15.0061 53.4409 14.3342 54.1211 Z" fill="#616161"/>
			<path d="M 76.3157 66.4683 C 77.8093 68.5703 77.4907 70.8687 75.4019 72.9336 C 74.2048 74.1172 72.9966 75.29 71.7798 76.4531 C 70.0803 78.0779 67.8296 78.2202 65.9902 76.7751 C 65.1177 76.0898 64.3474 75.2764 63.4897 74.5706 C 61.6245 73.0354 59.8701 72.9785 57.916 74.3599 C 56.9243 75.0608 56.3206 75.9668 56.397 77.2476 C 56.4404 77.9756 56.335 78.7158 56.4165 79.4373 C 56.7954 82.7871 53.8042 84.8972 51.2759 84.9526 C 49.5303 84.9907 47.781 85.0874 46.0388 84.8066 C 44.3977 84.5425 43.1851 83.6719 42.2766 82.3223 C 43.0305 81.6953 43.8411 81.8357 44.6519 82.168 C 45.1401 82.3682 45.5918 82.6753 46.1567 82.6094 C 48.178 82.8579 50.1978 83.05 52.1973 82.4526 C 53.2354 82.2288 53.8733 81.6013 54.106 80.5654 C 54.4741 79.3188 54.2236 78.0361 54.3279 76.7739 C 54.5308 76.5742 54.4878 76.3071 54.5259 76.0613 C 54.7917 74.3501 55.6802 73.0735 57.2244 72.2778 C 57.8379 71.9619 58.48 71.7012 59.1089 71.4155 C 60.0652 71.2432 61.0212 71.2371 61.9771 71.4192 C 63.7163 72.0869 64.8872 73.5042 66.2468 74.6665 C 67.6294 75.8486 69.2107 75.8779 70.5024 74.6367 C 71.7581 73.4299 72.9866 72.1946 74.2148 70.9595 C 74.5669 70.6055 74.9639 70.2563 74.9114 69.675 C 74.9348 69.561 74.958 69.4468 74.9814 69.3328 C 75.2334 69.0742 75.158 68.7393 75.187 68.4312 C 75.2654 67.604 75.5361 66.8916 76.3157 66.4683 Z" fill="#2a2a2a"/>
			<path d="M 62.1191 43.0352 C 59.957 38.9082 56.7302 36.1279 52.1064 35.0757 C 44.116 33.2573 35.791 39.1572 34.8008 47.2729 C 34.3584 50.8979 35.1775 54.1897 36.9485 57.3105 C 36.3267 57.415 35.8828 57.1504 35.4441 56.7178 C 34.6621 55.9458 34.1431 55.0315 33.6914 54.0476 C 33.2166 53.0129 33.0859 51.8813 32.6917 50.8276 C 32.6572 50.3809 32.6226 49.9341 32.5879 49.4873 C 32.7654 49.2341 32.761 48.981 32.5881 48.7271 C 32.6309 48.1543 32.6733 47.5815 32.7161 47.0083 C 32.9536 46.7703 32.9216 46.4895 32.8442 46.2017 C 32.8599 46.0886 32.8757 45.9758 32.8916 45.8628 C 33.1064 45.6953 33.1089 45.4795 33.0325 45.2458 C 33.053 45.1335 33.0732 45.0215 33.0938 44.9092 C 33.3591 44.6868 33.3779 44.3506 33.4751 44.0557 C 34.9717 39.501 37.8599 36.1694 42.231 34.1572 C 43.1196 33.748 44.0525 33.4343 44.9648 33.0767 C 45.1392 33.0437 45.313 33.011 45.4873 32.9785 C 45.6567 33.0508 45.803 33.0249 45.9204 32.877 C 49.5693 32.2383 53.0386 32.8328 56.3657 34.3965 C 57.2261 34.8008 58.0103 35.3252 58.7424 35.929 C 59.1436 36.9241 60.0847 37.3862 60.833 38.0386 C 61.5388 38.8442 62.156 39.707 62.5503 40.7122 C 62.5066 41.1172 62.5254 41.5142 62.6401 41.9111 C 62.7886 42.4233 62.6687 42.8342 62.1191 43.0352 Z" fill="#2a2a2a"/>
			<path d="M 83.1577 43.9697 C 83.5588 44.5615 83.7566 45.2283 83.8198 45.9275 C 84.0391 48.3604 84.0898 50.7964 83.7932 53.2253 C 83.5249 55.4238 81.9004 56.5349 79.6077 56.7295 C 78.7249 56.8042 77.8303 56.7417 76.9412 56.7417 C 74.0415 56.7419 72.1616 59.2573 72.9976 62.064 C 73.1326 62.5168 73.1099 63.0718 73.5876 63.384 C 72.2979 63.7788 71.1377 62.843 70.9683 61.2463 C 70.9092 60.687 70.9102 60.1216 70.8835 59.5591 C 70.8975 59.4453 70.9111 59.332 70.925 59.2185 C 71.355 58.5176 71.4502 57.6775 71.939 56.9854 C 72.6689 55.9512 73.7527 55.4355 74.783 54.8252 C 74.957 54.7925 75.1311 54.7598 75.3052 54.7275 C 75.4695 54.8059 75.6145 54.7813 75.739 54.6475 C 77.127 54.5076 78.5364 54.7322 79.9131 54.4043 C 81.2202 54.1301 81.6487 53.6406 81.7539 52.3003 C 81.7859 51.8086 81.8184 51.3167 81.8506 50.8247 C 82.1143 49.4248 82.1421 48.0259 81.8315 46.6284 C 81.8188 46.3855 81.8059 46.1428 81.7935 45.8999 C 81.9153 45.0215 82.2112 44.2664 83.1577 43.9697 Z" fill="#2a2a2a"/>
			<path d="M 41.3223 75.4824 C 39.623 72.6099 36.2021 72.9512 34.4504 74.6526 C 33.813 75.2715 33.1992 75.9165 32.5369 76.5078 C 30.7788 78.0776 28.7664 78.2212 26.7771 76.9312 C 25.2898 75.9666 24.1753 74.6123 23.0371 73.2876 C 22.5215 72.6873 22.0352 72.0613 21.5359 71.4468 C 22.3989 71.0381 23.1316 71.2539 23.7793 71.9058 C 24.5398 72.6711 25.2729 73.4678 26.0774 74.1846 C 26.875 74.8948 27.7183 75.5852 28.9089 75.4678 C 29.1641 75.4668 29.4192 75.4656 29.6743 75.4644 C 30.5149 75.6013 31.0579 75.0247 31.533 74.5349 C 32.8252 73.2029 34.1892 72.0093 35.9795 71.396 C 36.9998 71.2241 38.0205 71.1873 39.0427 71.3799 C 40.0005 71.8896 41.0874 72.23 41.5969 73.3264 C 41.958 74.103 42.2261 74.8667 41.3223 75.4824 Z" fill="#2a2a2a"/>
			<path d="M 47.4287 64.0171 C 49.5486 63.9976 51.657 64.0483 53.7144 63.2935 C 57.3086 61.9741 59.9648 59.6475 61.7334 56.2773 C 61.9231 55.916 62.1372 55.5674 62.3401 55.2126 C 63.2415 55.1699 63.6296 54.4021 64.1836 53.8848 C 64.5811 53.5127 64.8003 53.4346 64.8608 54.0793 C 64.8608 54.0793 64.8564 54.082 64.8564 54.0818 C 64.8308 54.0959 64.7817 54.1196 64.7834 54.123 C 64.8018 54.1675 64.8271 54.2095 64.8506 54.2522 C 64.8501 54.3184 64.8499 54.3845 64.8494 54.4509 C 64.7678 54.5457 64.6506 54.6274 64.6099 54.7373 C 63.699 57.1953 62.3684 59.3569 60.5037 61.2446 C 58.7319 63.0381 56.75 64.3901 54.3667 65.2031 C 53.5378 65.4858 52.6343 65.5208 51.8638 65.9807 C 49.9419 66.3135 48.0222 66.4163 46.1084 65.9238 C 46.0361 65.865 45.9727 65.7847 45.8901 65.7515 C 45.615 65.6409 45.1047 65.7786 45.1104 65.3967 C 45.1167 64.9746 45.6575 65.1033 45.9546 64.9858 C 46.5195 64.7629 47.2253 64.782 47.4287 64.0171 Z" fill="#d3d3d3"/>
			<path d="M 76.7251 27.5271 C 77.4854 28.5186 77.4236 30.6257 76.5811 31.9824 C 76.0759 32.7957 75.3921 33.459 74.7202 34.1311 C 72.5601 36.2917 72.334 37.6074 73.6584 40.3052 C 73.3687 40.5781 73.0161 40.5427 72.6797 40.4653 C 71.8428 40.2734 71.0701 39.1978 70.978 38.0813 C 70.9292 37.4897 70.9387 36.8926 70.9216 36.2983 C 70.9404 36.1797 70.9595 36.061 70.9785 35.9424 C 71.6643 34.217 72.7764 32.8013 74.1299 31.5488 C 74.5688 31.1431 74.9226 30.6541 74.9546 30.0125 C 74.9941 29.7827 75.0337 29.5527 75.073 29.3225 C 75.5115 28.6213 75.7495 27.7358 76.7251 27.5271 Z" fill="#2a2a2a"/>
			<path d="M 14.3342 54.1211 C 15.0061 53.4409 15.7517 53.6182 16.4844 53.9702 C 17.0461 54.2405 17.5576 54.6338 18.2339 54.5513 C 19.5625 54.5923 20.8911 54.6335 22.2197 54.6748 C 22.5095 54.7883 22.7971 54.9082 23.0894 55.0149 C 24.0786 55.3767 24.8169 56.0269 25.2988 56.9561 C 25.7175 57.7632 25.5508 58.4839 24.8901 58.8413 C 23.8474 57.2861 22.416 56.5527 20.5227 56.7334 C 19.957 56.7871 19.3779 56.7002 18.8113 56.749 C 16.6863 56.9319 15.4277 55.6733 14.3342 54.1211 Z" fill="#2a2a2a"/>
			<path d="M 60.0598 25.645 C 62.1875 25.8494 63.3826 24.2905 64.7607 23.1211 C 65.6836 22.3379 66.5427 21.5046 67.7656 21.1855 C 68.2729 21.0535 68.7642 21.0271 69.2717 21.1074 C 69.1946 21.5874 69.2549 22.052 69.4355 22.502 C 69.6013 22.9165 69.5371 23.1563 69.0164 23.1689 C 67.9033 23.1963 67.0854 23.8127 66.2661 24.4988 C 65.4219 25.2061 64.812 26.1636 63.824 26.7126 C 63.2805 27.0144 62.5791 27.0127 62.1714 27.5718 C 61.925 27.5891 61.6787 27.6067 61.4324 27.6235 C 60.9695 27.5593 60.5027 27.4417 60.0637 27.719 C 59.824 27.7095 59.584 27.6997 59.344 27.6904 C 59.0979 27.2681 59.1729 26.9238 59.5605 26.6147 C 59.863 26.3735 60.1157 26.082 60.0598 25.645 Z" fill="#d3d3d3"/>
			<path d="M 22.2188 26.5767 C 22.8997 25.2915 24.1191 24.5049 25.0942 23.4929 C 25.4424 23.1318 25.8823 22.8591 26.2349 22.5015 C 27.5461 21.1711 29.0957 20.9382 30.8235 21.4519 C 30.6638 22.1011 31.2139 22.8682 30.8242 23.3499 C 30.4409 23.8242 29.624 23.3962 29.0229 23.5591 C 28.6646 23.6563 28.3293 23.8369 27.9834 23.9795 C 27.7339 23.9224 27.5728 24.0735 27.3936 24.2095 C 25.9761 25.2859 24.8203 26.6335 23.5625 27.875 C 23.3523 28.0828 23.0518 28.5317 22.8926 28.0039 C 22.7336 27.4761 22.2417 27.1389 22.2188 26.5767 Z" fill="#d3d3d3"/>
			<path d="M 54.905 15.1221 C 56.1255 15.9033 56.3271 17.1567 56.394 18.4399 C 56.4468 19.4512 56.4399 20.469 56.3955 21.481 C 56.345 22.6235 56.7681 23.5405 57.5659 24.3188 C 57.23 24.9639 56.6436 24.8872 56.1646 24.6582 C 55.2158 24.2048 54.5181 23.522 54.376 22.3723 C 54.1536 20.5671 54.2803 18.7578 54.2085 16.9519 C 54.1799 16.2363 54.7886 15.7751 54.905 15.1221 Z" fill="#2a2a2a"/>
			<path d="M 36.6091 25.6069 C 38.9797 25.8657 40.5161 24.6484 41.6704 22.7559 C 41.9661 23.0266 42.3018 22.9812 42.644 22.8784 C 43.4497 22.6372 43.5198 23.0581 43.3491 23.6714 C 43.2739 23.9414 43.1199 24.1729 42.9673 24.4136 C 42.4531 25.2239 41.5049 25.7246 41.2969 26.7488 C 41.2429 26.7534 41.1897 26.7632 41.1377 26.7778 C 40.52 26.9287 39.9724 27.2375 39.4209 27.5376 C 38.0952 27.9131 36.7747 27.7112 35.4536 27.5029 C 35.3647 27.1133 35.5068 26.8352 35.8511 26.6367 C 36.2515 26.4063 36.5286 26.0762 36.6091 25.6069 Z" fill="#d3d3d3"/>
			<path d="M 41.2969 26.7488 C 41.5049 25.7246 42.4531 25.2239 42.9673 24.4136 C 43.1199 24.1729 43.2739 23.9414 43.3491 23.6714 C 43.5198 23.0581 43.4497 22.6372 42.644 22.8784 C 42.3018 22.9812 41.9661 23.0266 41.6704 22.7559 C 41.8721 22.2046 41.906 21.6274 41.936 21.0498 C 42.6963 20.8904 43.0742 20.3877 43.0369 19.6479 C 43.0034 18.9866 42.7603 18.4109 41.9351 18.3975 C 41.7803 17.5522 42.0876 16.8167 42.4839 16.1025 C 43.2659 16.4915 44.5022 16.5928 45.5684 16.356 C 44.2266 17.2983 44.1362 18.6538 44.1663 20.1418 C 44.1975 21.6836 44.1475 23.2512 43.4329 24.6963 C 42.9648 25.6426 42.145 26.2061 41.2969 26.7488 Z" fill="#adadad"/>
			<path d="M 21.2739 67.4336 C 21.4163 66.7434 21.907 66.2861 22.3765 65.8228 C 23.4319 64.781 24.5173 63.7666 25.2429 62.446 C 25.3862 62.5889 25.561 62.6472 25.7607 62.645 C 27.1265 62.6304 27.2012 62.7314 26.7339 64.0449 C 26.6504 64.2798 26.5063 64.4971 26.3696 64.709 C 25.7253 65.7095 24.7808 66.4316 23.958 67.2656 C 23.686 67.541 23.3816 67.7683 23.3845 68.1997 C 23.373 68.2554 23.3638 68.311 23.3569 68.3677 C 22.9148 68.3975 22.5566 68.2102 22.2485 67.9194 C 21.9705 67.6572 21.7102 67.373 21.2739 67.4336 Z" fill="#d3d3d3"/>
			<path d="M 47.4287 64.0171 C 47.2253 64.782 46.5195 64.7629 45.9546 64.9858 C 45.6575 65.1033 45.1167 64.9746 45.1104 65.3967 C 45.1047 65.7786 45.615 65.6409 45.8901 65.7515 C 45.9727 65.7847 46.0361 65.865 46.1084 65.9238 C 45.2935 66.2271 44.5657 65.7964 43.8369 65.5923 C 42.0798 65.1003 40.5479 64.1494 39.1357 63.0107 C 38.9126 62.8311 38.5132 62.5911 38.7832 62.2578 C 39 61.9902 39.3022 62.3208 39.5349 62.4385 C 40.1587 62.7539 40.7876 63.0493 41.479 63.1753 C 42.012 63.272 42.5054 63.2432 42.7043 62.6055 C 44.2456 63.1882 45.7512 63.8892 47.4287 64.0171 Z" fill="#adadad"/>
			<path d="M 32.6917 50.8276 C 33.0859 51.8813 33.2166 53.0129 33.6914 54.0476 C 34.1431 55.0315 34.6621 55.9458 35.4441 56.7178 C 35.8828 57.1504 36.3267 57.415 36.9485 57.3105 C 37.98 58.7742 39.2063 60.0654 40.488 61.3076 C 39.7773 61.6006 39.113 61.4299 38.5005 61.0537 C 35.2449 59.0566 33.4739 56.0615 32.7622 52.3911 C 32.6655 51.8921 32.3481 51.3621 32.6917 50.8276 Z" fill="#616161"/>
			<path d="M 76.7251 27.5271 C 75.7495 27.7358 75.5115 28.6213 75.073 29.3225 C 75.1206 28.0989 74.406 27.2646 73.6318 26.4429 C 73.1108 25.8899 72.6431 25.2861 72.1548 24.7024 C 71.5295 23.9556 71.3811 23.1245 71.7236 22.21 C 73.6831 23.7085 75.1423 25.6758 76.7251 27.5271 Z" fill="#616161"/>
			<path d="M 64.8608 54.0793 C 64.8003 53.4346 64.5811 53.5127 64.1836 53.8848 C 63.6296 54.4021 63.2415 55.1699 62.3401 55.2126 C 62.8845 53.8008 63.1426 52.3164 63.4512 50.8447 C 64.3801 50.7881 64.5662 50.0293 64.8232 49.363 C 65.031 48.8247 64.9993 48.1982 65.5728 47.7295 C 65.5728 49.001 65.6113 50.2739 65.5576 51.5435 C 65.5286 52.2307 65.3364 52.9106 65.2319 53.5955 C 65.1953 53.8357 65.1235 54.0239 64.8608 54.0793 Z" fill="#adadad"/>
			<path d="M 70.8835 59.5591 C 70.9102 60.1216 70.9092 60.687 70.9683 61.2463 C 71.1377 62.843 72.2979 63.7788 73.5876 63.384 C 74.4292 64.4719 75.5972 65.2722 76.3157 66.4683 C 75.5361 66.8916 75.2654 67.604 75.187 68.4312 C 75.158 68.7393 75.2334 69.0742 74.9814 69.3328 C 74.9272 69.1882 74.813 69.0376 74.8276 68.9004 C 75.0454 66.8516 73.8828 65.6213 72.3442 64.5571 C 70.8154 63.5 70.1082 60.9512 70.8835 59.5591 Z" fill="#616161"/>
			<path d="M 76.468 42.104 C 77.7329 42.0723 79.0017 41.8892 80.2578 42.2083 C 80.3135 42.543 80.3228 42.894 80.4343 43.209 C 80.6294 43.7605 80.4338 44.0933 79.9421 44.3179 C 78.6667 44.2964 77.3865 44.3884 76.1196 44.1606 C 75.1851 43.8335 75.2307 43.4568 76.0303 42.9771 C 76.3262 42.7998 76.5566 42.5117 76.468 42.104 Z" fill="#d3d3d3"/>
			<path d="M 51.8638 65.9807 C 52.6343 65.5208 53.5378 65.4858 54.3667 65.2031 C 56.75 64.3901 58.7319 63.0381 60.5037 61.2446 C 62.3684 59.3569 63.699 57.1953 64.6099 54.7373 C 64.6506 54.6274 64.7678 54.5457 64.8494 54.4509 C 64.9841 55.6592 64.2886 56.6274 63.8052 57.6079 C 61.8779 61.5195 58.7742 64.1479 54.6257 65.4971 C 53.7451 65.7834 52.8398 66.1431 51.8638 65.9807 Z" fill="#adadad"/>
			<path d="M 22.2209 44.1606 C 22.9712 43.696 23.8845 43.6172 24.616 43.0645 C 25.6631 42.2729 26.4199 41.3113 26.8516 40.0757 C 27.0659 39.4619 26.8555 39.3286 26.2732 39.4434 C 25.8721 39.5222 25.4565 39.5278 25.0474 39.5664 C 25.1965 39.0549 25.3462 38.5437 25.4956 38.0322 C 26.2439 38.0054 26.7427 37.6287 27.019 36.9443 C 27.0808 36.7913 27.1577 36.6284 27.3367 36.6396 C 27.5325 36.6521 27.5476 36.8372 27.5632 36.9968 C 27.8481 39.9292 26.9644 42.6177 24.0237 43.9038 C 23.4592 44.1504 22.8696 44.4155 22.2209 44.1606 Z" fill="#adadad"/>
			<path d="M 24.8901 58.8413 C 25.5508 58.4839 25.7175 57.7632 25.2988 56.9561 C 24.8169 56.0269 24.0786 55.3767 23.0894 55.0149 C 22.7971 54.9082 22.5095 54.7883 22.2197 54.6748 C 23.8689 54.3516 24.9917 55.239 25.8857 56.4121 C 26.4756 57.1853 26.7607 58.144 26.7788 59.1545 C 26.7944 60.0364 26.4229 60.5278 25.5068 60.5391 C 25.3015 59.9731 25.0957 59.4072 24.8901 58.8413 Z" fill="#616161"/>
			<path d="M 74.9114 69.675 C 74.9639 70.2563 74.5669 70.6055 74.2148 70.9595 C 72.9866 72.1946 71.7581 73.4299 70.5024 74.6367 C 69.2107 75.8779 67.6294 75.8486 66.2468 74.6665 C 64.8872 73.5042 63.7163 72.0869 61.9771 71.4192 C 62.9912 71.1997 63.7344 71.7915 64.4468 72.3289 C 65.2041 72.9001 65.8789 73.5828 66.5735 74.2339 C 68.0547 75.623 68.9722 75.6211 70.4033 74.1924 C 71.9089 72.6895 73.4089 71.1812 74.9114 69.675 Z" fill="#616161"/>
			<path d="M 44.9648 33.0767 C 44.0525 33.4343 43.1196 33.748 42.231 34.1572 C 37.8599 36.1694 34.9717 39.501 33.4751 44.0557 C 33.3779 44.3506 33.3591 44.6868 33.0938 44.9092 C 32.8899 43.9795 33.377 43.1877 33.7026 42.4087 C 35.7207 37.5803 39.2583 34.437 44.3418 33.0703 C 44.5454 33.0154 44.7598 32.8777 44.9648 33.0767 Z" fill="#616161"/>
			<path d="M 28.9089 75.4678 C 27.7183 75.5852 26.875 74.8948 26.0774 74.1846 C 25.2729 73.4678 24.5398 72.6711 23.7793 71.9058 C 23.1316 71.2539 22.3989 71.0381 21.5359 71.4468 C 21.2058 70.9858 21.0898 70.46 21.0649 69.906 C 22.4431 69.8157 23.4351 70.3872 24.3179 71.4624 C 25.6135 73.0396 26.9976 74.5698 28.9089 75.4678 Z" fill="#616161"/>
			<path d="M 23.3845 68.1997 C 23.3816 67.7683 23.686 67.541 23.958 67.2656 C 24.7808 66.4316 25.7253 65.7095 26.3696 64.709 C 26.5063 64.4971 26.6504 64.2798 26.7339 64.0449 C 27.2012 62.7314 27.1265 62.6304 25.7607 62.645 C 25.561 62.6472 25.3862 62.5889 25.2429 62.446 C 25.3281 62.0669 25.4136 61.6877 25.4988 61.3086 C 26.3347 61.2461 26.8364 60.6631 27.3369 60.0569 C 28.394 62.5701 26.3743 66.6746 23.3845 68.1997 Z" fill="#adadad"/>
			<path d="M 62.1714 27.5718 C 62.5791 27.0127 63.2805 27.0144 63.824 26.7126 C 64.812 26.1636 65.4219 25.2061 66.2661 24.4988 C 67.0854 23.8127 67.9033 23.1963 69.0164 23.1689 C 69.5371 23.1563 69.6013 22.9165 69.4355 22.502 C 69.2549 22.052 69.1946 21.5874 69.2717 21.1074 C 69.6533 21.1914 70.0676 21.1692 70.3867 21.4531 C 70.3889 21.5483 70.4111 21.6484 70.3894 21.7378 C 70.2441 22.333 70.8418 23.0034 70.4189 23.4739 C 70.0239 23.9133 69.3462 23.4143 68.7944 23.54 C 67.782 23.771 67.1104 24.5078 66.3853 25.156 C 65.2988 26.127 64.2776 27.186 62.7932 27.5618 C 62.5874 27.6138 62.3818 27.7715 62.1714 27.5718 Z" fill="#adadad"/>
			<path d="M 22.2188 26.5767 C 22.2417 27.1389 22.7336 27.4761 22.8926 28.0039 C 23.0518 28.5317 23.3523 28.0828 23.5625 27.875 C 24.8203 26.6335 25.9761 25.2859 27.3936 24.2095 C 27.5728 24.0735 27.7339 23.9224 27.9834 23.9795 C 27.8652 24.4453 27.4722 24.6829 27.1533 24.9829 C 25.7402 26.3123 24.0708 27.4102 23.26 29.2842 C 23.0957 29.6638 22.866 29.5811 22.582 29.3953 C 22.1306 29.0999 21.6538 28.8462 21.083 28.8867 C 21.127 27.9526 21.5352 27.1973 22.2188 26.5767 Z" fill="#adadad"/>
			<path d="M 21.2336 30.9863 C 20.9639 30.6865 21.0222 30.3167 21.0125 29.9607 C 23.5974 30.4861 26.3735 33.2834 26.6641 35.6545 C 26.7734 36.5493 26.4336 37.0181 25.4963 37.2651 C 25.3792 36.9451 25.2617 36.625 25.1448 36.3047 C 25.8723 36.1401 26.1819 35.6775 25.9504 34.9785 C 25.4661 33.5161 24.3716 32.4907 23.3069 31.4492 C 22.7061 30.8618 21.9385 31.0774 21.2336 30.9863 Z" fill="#616161"/>
			<path d="M 41.3223 75.4824 C 42.2261 74.8667 41.958 74.103 41.5969 73.3264 C 41.0874 72.23 40.0005 71.8896 39.0427 71.3799 C 40.3926 71.2432 41.363 71.9375 42.0977 72.9294 C 42.7258 73.7778 43.0671 74.7803 43.0493 75.8721 C 43.0371 76.6167 42.7288 77.082 41.9409 77.1409 C 41.7349 76.5879 41.5283 76.0352 41.3223 75.4824 Z" fill="#616161"/>
			<path d="M 70.9216 36.2983 C 70.9387 36.8926 70.9292 37.4897 70.978 38.0813 C 71.0701 39.1978 71.8428 40.2734 72.6797 40.4653 C 73.0161 40.5427 73.3687 40.5781 73.6584 40.3052 C 74.0181 40.6987 74.3779 41.0918 74.7375 41.4854 C 73.6221 42.3132 72.5879 42.0723 71.521 40.7368 C 70.6216 39.6113 70.3013 37.2385 70.9216 36.2983 Z" fill="#616161"/>
			<path d="M 62.1191 43.0352 C 62.6687 42.8342 62.7886 42.4233 62.6401 41.9111 C 62.5254 41.5142 62.5066 41.1172 62.5503 40.7122 C 63.5767 41.3667 63.6233 42.5022 63.8569 43.5112 C 64.0083 44.1633 64.2295 44.8667 63.855 45.5498 C 63.6877 45.855 63.5972 46.2144 63.157 46.231 C 62.811 45.1655 62.4651 44.1006 62.1191 43.0352 Z" fill="#616161"/>
			<path d="M 60.0598 25.645 C 60.1157 26.082 59.863 26.3735 59.5605 26.6147 C 59.1729 26.9238 59.0979 27.2681 59.344 27.6904 C 58.3074 27.7734 57.5645 27.2192 56.8779 26.5498 C 56.7434 26.4185 56.6086 26.2563 56.699 26.0537 C 56.8274 25.7661 57.063 25.8896 57.2664 25.9497 C 58.0127 26.1702 58.5513 25.9097 58.9236 25.251 C 59.3022 25.3823 59.6809 25.5137 60.0598 25.645 Z" fill="#adadad"/>
			<path d="M 43.8237 75.9663 C 44.3079 77.4851 44.1863 78.8347 44.1838 80.1743 C 44.1833 80.3682 44.1321 80.5669 43.9404 80.6553 C 43.6855 80.7727 43.5313 80.573 43.3755 80.4209 C 42.9329 79.988 42.752 79.4541 42.9165 78.8635 C 43.1685 77.9597 43.4744 77.0713 43.8237 75.9663 Z" fill="#adadad"/>
			<path d="M 76.468 42.104 C 76.5566 42.5117 76.3262 42.7998 76.0303 42.9771 C 75.2307 43.4568 75.1851 43.8335 76.1196 44.1606 C 75.1362 44.3975 74.3372 44.0034 73.665 43.3564 C 73.2627 42.969 73.4407 42.6487 73.9836 42.6348 C 74.5737 42.6201 75.0596 42.5159 75.1802 41.8333 C 75.6096 41.9233 76.0388 42.0137 76.468 42.104 Z" fill="#adadad"/>
			<path d="M 35.9795 71.396 C 34.1892 72.0093 32.8252 73.2029 31.533 74.5349 C 31.0579 75.0247 30.5149 75.6013 29.6743 75.4644 C 31.0154 74.666 31.8879 73.3311 33.1548 72.4436 C 34.0098 71.8447 34.8672 71.2878 35.9795 71.396 Z" fill="#616161"/>
			<path d="M 74.9546 30.0125 C 74.9226 30.6541 74.5688 31.1431 74.1299 31.5488 C 72.7764 32.8013 71.6643 34.217 70.9785 35.9424 C 70.5679 35.1074 71.1189 34.4639 71.5073 33.874 C 72.4614 32.4248 73.853 31.3438 74.9546 30.0125 Z" fill="#616161"/>
			<path d="M 59.1089 71.4155 C 58.48 71.7012 57.8379 71.9619 57.2244 72.2778 C 55.6802 73.0735 54.7917 74.3501 54.5259 76.0613 C 54.4878 76.3071 54.5308 76.5742 54.3279 76.7739 C 53.9097 75.252 54.9534 73.0415 56.5664 72.1692 C 57.3489 71.7461 58.1309 71.2234 59.1089 71.4155 Z" fill="#616161"/>
			<path d="M 46.1567 82.6094 C 45.5918 82.6753 45.1401 82.3682 44.6519 82.168 C 43.8411 81.8357 43.0305 81.6953 42.2766 82.3223 C 41.8584 81.9536 41.9072 81.4692 41.9446 80.9878 C 43.604 80.8677 44.9124 81.655 46.1567 82.6094 Z" fill="#616161"/>
			<path d="M 36.6091 25.6069 C 36.5286 26.0762 36.2515 26.4063 35.8511 26.6367 C 35.5068 26.8352 35.3647 27.1133 35.4536 27.5029 C 35.0703 27.5537 34.7822 27.3469 34.5054 27.1335 C 34.2178 26.9119 33.6865 26.7952 33.7979 26.3452 C 33.9263 25.8264 34.3931 26.259 34.6982 26.189 C 35.2163 26.0698 35.6724 25.8779 35.7822 25.2759 C 36.0576 25.3862 36.3335 25.4966 36.6091 25.6069 Z" fill="#adadad"/>
			<path d="M 21.2739 67.4336 C 21.7102 67.373 21.9705 67.6572 22.2485 67.9194 C 22.5566 68.2102 22.9148 68.3975 23.3569 68.3677 C 23.2009 69.4873 23.2051 69.4775 22.2056 69.0559 C 21.8081 68.8882 21.4004 68.7153 20.9465 68.78 C 20.8801 68.2886 21.0913 67.8647 21.2739 67.4336 Z" fill="#adadad"/>
			<path d="M 74.783 54.8252 C 73.7527 55.4355 72.6689 55.9512 71.939 56.9854 C 71.4502 57.6775 71.355 58.5176 70.925 59.2185 C 70.7009 57.9834 71.6753 56.1033 72.9749 55.3848 C 73.5261 55.0796 74.0642 54.6323 74.783 54.8252 Z" fill="#616161"/>
			<path d="M 83.1577 43.9697 C 82.2112 44.2664 81.9153 45.0215 81.7935 45.8999 C 81.187 45.1431 81.5093 44.3547 81.7227 43.575 C 81.7964 43.3047 82.0723 43.114 82.0481 42.7988 C 82.5562 43.0586 82.9509 43.4255 83.1577 43.9697 Z" fill="#616161"/>
			<path d="M 79.9421 44.3179 C 80.4338 44.0933 80.6294 43.7605 80.4343 43.209 C 80.3228 42.894 80.3135 42.543 80.2578 42.2083 C 80.7717 42.1997 81.3093 42.1091 81.6855 42.6013 C 81.1743 42.8547 81.2417 43.3914 81.1357 43.8159 C 80.9478 44.5681 80.5825 44.7239 79.9421 44.3179 Z" fill="#adadad"/>
			<path d="M 52.791 16.3118 C 53.3525 16.085 53.1904 15.6672 53.0332 15.2869 C 52.8865 14.9321 52.7458 14.5881 52.8062 14.1956 C 53.1304 14.498 53.6206 14.2446 53.9487 14.5354 C 53.8843 15.0593 53.8145 15.583 53.7578 16.1079 C 53.7339 16.3315 53.7236 16.5662 53.46 16.6306 C 53.1646 16.7026 52.8911 16.6738 52.791 16.3118 Z" fill="#adadad"/>
			<path d="M 81.8315 46.6284 C 82.1421 48.0259 82.1143 49.4248 81.8506 50.8247 C 81.5791 49.4272 81.5996 48.0283 81.8315 46.6284 Z" fill="#616161"/>
			<path d="M 60.833 38.0386 C 60.0847 37.3862 59.1436 36.9241 58.7424 35.929 C 59.7576 36.3179 60.561 36.9155 60.833 38.0386 Z" fill="#616161"/>
			<path d="M 81.7539 52.3003 C 81.6487 53.6406 81.2202 54.1301 79.9131 54.4043 C 80.6545 53.8145 81.3679 53.2002 81.7539 52.3003 Z" fill="#616161"/>
			<path d="M 54.106 80.5654 C 53.8733 81.6013 53.2354 82.2288 52.1973 82.4526 C 52.8335 81.8237 53.4695 81.1943 54.106 80.5654 Z" fill="#616161"/>
			<path d="M 39.4209 27.5376 C 39.9724 27.2375 40.52 26.9287 41.1377 26.7778 C 40.7593 27.4675 40.1653 27.6716 39.4209 27.5376 Z" fill="#adadad"/>
			<path d="M 60.0637 27.719 C 60.5027 27.4417 60.9695 27.5593 61.4324 27.6235 C 61.0068 28.0964 60.542 28.0034 60.0637 27.719 Z" fill="#adadad"/>
			<path d="M 32.5881 48.7271 C 32.761 48.981 32.7654 49.2341 32.5879 49.4873 C 32.3184 49.2339 32.3191 48.9805 32.5881 48.7271 Z" fill="#616161"/>
			<path d="M 32.8442 46.2017 C 32.9216 46.4895 32.9536 46.7703 32.7161 47.0083 C 32.4863 46.6965 32.5132 46.425 32.8442 46.2017 Z" fill="#616161"/>
			<path d="M 16.2944 46.0554 C 16.3032 45.7009 16.5024 45.5159 16.8345 45.4487 C 16.8591 45.8323 16.6567 46.0146 16.2944 46.0554 Z" fill="#adadad"/>
			<path d="M 33.0325 45.2458 C 33.1089 45.4795 33.1064 45.6953 32.8916 45.8628 C 32.6792 45.5984 32.7583 45.3999 33.0325 45.2458 Z" fill="#616161"/>
			<path d="M 17.9717 44.4795 C 18.1125 44.1768 18.3091 44.0881 18.5889 44.3193 C 18.4241 44.53 18.2051 44.532 17.9717 44.4795 Z" fill="#adadad"/>
			<path d="M 45.9204 32.877 C 45.803 33.0249 45.6567 33.0508 45.4873 32.9785 C 45.5977 32.7993 45.7227 32.6831 45.9204 32.877 Z" fill="#616161"/>
			<path d="M 75.739 54.6475 C 75.6145 54.7813 75.4695 54.8059 75.3052 54.7275 C 75.4207 54.5435 75.5525 54.4465 75.739 54.6475 Z" fill="#616161"/>
			<path d="M 64.8506 54.2522 C 64.8271 54.2095 64.8018 54.1675 64.7834 54.123 C 64.7817 54.1196 64.8308 54.0959 64.8564 54.0818 C 64.8591 54.1387 64.8574 54.1956 64.8506 54.2522 Z" fill="#adadad"/>
			<path d="M 21.2336 30.9863 C 21.9385 31.0774 22.7061 30.8618 23.3069 31.4492 C 24.3716 32.4907 25.4661 33.5161 25.9504 34.9785 C 26.1819 35.6775 25.8723 36.1401 25.1448 36.3047 C 24.3462 34.9619 23.2046 33.8953 22.2295 32.6943 C 21.8081 32.1753 21.4355 31.6313 21.2336 30.9863 Z" fill="#2a2a2a"/>
			<path d="M 41.9351 18.3975 C 42.7603 18.4109 43.0034 18.9866 43.0369 19.6479 C 43.0742 20.3877 42.6963 20.8904 41.936 21.0498 C 41.9355 20.1658 41.9353 19.2817 41.9351 18.3975 Z" fill="#939393"/>
		</g>
	</g>
</svg>