<?xml version="1.0" standalone="no"?>
<!-- Generator: Adobe Fireworks 10, Export SVG Extension by Aaron Beall (http://fireworks.abeall.com) . Version: 0.6.0  -->
<!DOCTYPE svg PUBLIC "-//W3C//DTD SVG 1.1//EN" "http://www.w3.org/Graphics/SVG/1.1/DTD/svg11.dtd">
<svg id="" viewBox="0 0 389 389" style="background-color:#ffffff00" version="1.1"
	xmlns="http://www.w3.org/2000/svg" xmlns:xlink="http://www.w3.org/1999/xlink" xml:space="preserve"
	x="0px" y="0px" width="389px" height="389px"
>
	<g id="Layer%201">
		<g>
			<path d="M 377.3828 250.2471 C 375.6948 250.7236 373.8159 250.1138 372.2031 249.6138 C 370.6411 249.1299 368.7622 248.4189 367.6948 247.1299 C 366.4063 245.5708 367.2578 242.8408 367.73 241.0986 C 367.7109 241.0908 367.6909 241.0869 367.6719 241.083 C 366.9883 243.2666 366.4448 245.4971 365.7729 247.689 C 365.1089 249.853 364.3481 252.1069 363.6089 254.1768 C 362.8398 256.3408 362.0698 258.5049 361.1992 260.6338 C 360.7378 261.7588 360.2813 262.8877 359.8198 264.0166 C 359.5591 264.6528 359.27 265.2817 358.9922 265.915 C 358.8672 266.208 358.5659 266.6499 358.5898 266.915 C 358.7339 266.7979 358.8442 266.415 358.9341 266.2041 C 359.1411 265.7349 359.3911 265.2778 359.6479 264.8369 C 360.2461 263.8208 361.02 262.5518 362.2422 262.2388 C 363.938 261.8101 365.9648 262.5166 367.5352 263.1416 C 369.105 263.7666 371.0352 264.5088 371.9688 266.0088 C 372.6211 267.0557 372.3398 268.501 372.0659 269.626 C 371.813 270.5869 371.4731 271.5278 371.0698 272.4346 C 371.0898 272.4429 371.1089 272.4497 371.1289 272.4619 C 375.0781 263.4307 378.3672 254.1611 380.9409 244.6416 C 380.9219 244.6377 380.9019 244.6299 380.8828 244.626 C 380.3872 246.4971 379.5078 249.6499 377.3828 250.2471 L 377.3828 250.2471 ZM 363.9141 253.501 C 364.0508 253.1069 364.2231 252.7197 364.395 252.3369 C 364.8198 251.396 365.3198 250.3877 366.1133 249.6997 C 367.5508 248.4541 370.0898 249.1099 371.73 249.5557 C 372.1802 249.6768 372.3359 249.6182 372.1719 250.1099 C 372.02 250.583 371.8481 251.0479 371.6563 251.5049 C 371.1719 252.6528 370.5078 254.1416 369.313 254.7041 C 367.6992 255.4658 365.4341 254.7432 363.8438 254.2041 C 363.5352 254.165 363.8438 253.6929 363.9141 253.501 L 363.9141 253.501 ZM 363.1802 260.2197 C 362 258.5679 363.0552 255.9429 363.6563 254.2319 C 365.168 254.7549 366.875 255.4849 367.957 256.7041 C 369.4492 258.3799 368.3091 261.2778 367.5781 263.0791 C 366.0229 262.4736 364.1719 261.6138 363.1802 260.2197 L 363.1802 260.2197 ZM 376.4648 258.8486 C 376.2813 259.3682 376.0742 259.8838 375.8481 260.3838 C 375.3052 261.5869 374.5508 263.021 373.3979 263.7432 C 371.75 264.7778 369.2769 263.7388 367.6519 263.0947 C 368.3281 261.4307 369.1602 259.3208 370.7339 258.2979 C 372.1328 257.3877 374.3091 258.0317 375.7578 258.501 C 375.9258 258.5596 376.5269 258.6729 376.4648 258.8486 L 376.4648 258.8486 ZM 377.3242 255.5986 C 377.1719 256.646 376.8828 257.6807 376.5269 258.6807 C 374.9839 258.1377 373.2109 257.4849 372.1602 256.1729 C 370.832 254.5088 371.8091 251.5601 372.3628 249.751 C 373.9219 250.2349 375.7539 250.8179 376.8242 252.1221 C 377.6021 253.0747 377.4839 254.458 377.3242 255.5986 L 377.3242 255.5986 ZM 377.3242 255.5986 L 377.3242 255.5986 Z" stroke="#d3b158" stroke-width="2" fill="none"/>
			<path d="M 364.3672 275.1851 C 363.7148 274.165 363.957 272.8486 364.2461 271.7471 C 364.5122 270.7349 364.8521 269.7388 365.2729 268.7817 C 365.2622 268.7817 365.2109 268.7666 365.2031 268.7588 C 364.4878 270.396 363.5122 272.7778 361.688 273.4229 C 359.957 274.0249 357.6802 272.9932 356.1328 272.2349 C 356.125 272.2549 356.1133 272.2749 356.105 272.29 C 356.0942 272.3101 356.0859 272.3291 356.0781 272.3486 C 357.625 273.083 359.7031 274.165 360.4102 275.8179 C 360.9302 277.0317 360.375 278.6221 359.8979 279.7666 C 359.8359 279.9229 358.9448 281.5479 359.0659 281.6528 C 359.5122 280.8018 360.0229 279.9819 360.5942 279.2119 C 361.2622 278.2778 362.1479 277.165 363.3589 276.978 C 365.082 276.708 366.895 277.5747 368.4102 278.3057 C 368.418 278.29 368.4302 278.271 368.438 278.251 C 368.3589 278.208 368.2769 278.1689 368.1992 278.126 C 368.2813 278.1611 368.3633 278.1997 368.4448 278.2349 C 368.4531 278.2158 368.4648 278.1958 368.4731 278.1768 C 366.9883 277.4619 365.2813 276.6182 364.3672 275.1851 L 364.3672 275.1851 ZM 364.3672 275.1851 L 364.3672 275.1851 Z" stroke="#d3b158" stroke-width="2" fill="none"/>
			<path d="M 381.4609 237.126 C 380.4019 236.8247 379.3052 236.4268 378.418 235.7588 C 376.4922 234.3057 377.0898 231.0361 377.4961 228.9932 C 377.48 228.9932 377.4302 228.9888 377.4219 228.9819 C 377.0781 230.7778 376.6289 233.603 374.7661 234.458 C 373.1641 235.1929 371 234.79 369.3521 234.4028 C 369.3521 234.415 369.3398 234.4619 369.3359 234.4736 C 371.1089 234.8638 374.0591 235.5869 374.6802 237.5679 C 375.0508 238.7549 374.8872 240.1567 374.6411 241.3569 C 374.6021 241.5439 374.1948 242.7939 374.3398 242.8721 C 374.813 241.0908 375.563 238.1338 377.4609 237.3599 C 379.0781 236.6997 381.0508 237.1416 382.688 237.5166 C 382.6909 237.3247 381.6948 237.1958 381.4609 237.126 L 381.4609 237.126 ZM 381.4609 237.126 L 381.4609 237.126 Z" stroke="#d3b158" stroke-width="2" fill="none"/>
			<path d="M 383.8589 208.3599 C 382.2852 209.0361 380.4019 208.8999 378.73 208.7388 C 377.0742 208.5791 374.5161 208.2979 373.4883 206.7979 C 372.4922 205.333 372.6372 203.1416 372.6992 201.4497 C 372.6802 201.4497 372.6602 201.4458 372.6411 201.4458 C 372.2891 206.0049 372.145 210.6099 371.6211 215.1299 C 371.3628 217.353 371.082 219.6768 370.707 221.9189 C 370.5122 223.0986 370.3159 224.2778 370.1211 225.458 C 370.0039 226.1768 369.8672 226.8877 369.73 227.603 C 369.6719 227.9189 369.4771 228.415 369.5591 228.6689 C 369.6719 228.521 369.6909 228.1221 369.7339 227.8999 C 369.8198 227.4497 369.9531 227.0049 370.0781 226.5679 C 370.3789 225.5518 370.7622 224.3877 371.563 223.646 C 372.918 222.396 375.5269 222.7197 377.1992 222.9497 C 378.832 223.1729 380.6602 223.4658 382.02 224.4658 C 383.9448 225.876 383.355 229.2432 382.957 231.251 C 382.98 231.2549 383 231.2588 383.02 231.2666 C 384.8711 221.5947 385.9961 211.8057 386.3711 201.9658 C 386.3481 201.9658 386.3281 201.9658 386.3091 201.9658 C 386.2422 204.0088 386.0508 207.4189 383.8589 208.3599 L 383.8589 208.3599 ZM 373.5938 209.646 C 375.0552 208.6182 377.3672 208.7041 379.0742 208.8408 C 378.9102 210.6807 378.75 213.6299 376.9019 214.6069 C 375.4258 215.3877 373.4492 215.2666 371.8359 215.0986 C 371.7813 215.0908 371.7231 215.083 371.668 215.0791 C 371.8633 213.3638 372.0552 210.7319 373.5938 209.646 L 373.5938 209.646 ZM 372.3091 220.896 C 371.0552 219.4888 371.4609 216.8877 371.6563 215.1689 C 373.2852 215.3447 375.2271 215.6807 376.543 216.7236 C 378.2422 218.0679 377.73 221.0439 377.4648 222.915 C 375.7729 222.6689 373.5 222.228 372.3091 220.896 L 372.3091 220.896 ZM 385.0161 217.9111 C 384.8008 219.1729 384.4609 220.4927 383.7891 221.5947 C 382.6719 223.4351 380.188 223.271 378.3159 223.0361 C 378.1841 223.0166 377.6133 223.0127 377.5391 222.915 C 377.4219 222.7588 377.7231 221.8408 377.7578 221.6611 C 378.02 220.4111 378.3789 219.103 379.0898 218.0249 C 380.1841 216.3638 382.6602 216.4736 384.4102 216.626 C 384.543 216.6416 385.1133 216.6182 385.188 216.7119 C 385.3008 216.8599 385.0469 217.7388 385.0161 217.9111 L 385.0161 217.9111 ZM 385.1948 216.626 C 383.5698 216.4429 381.6802 216.2041 380.3628 215.1416 C 379.4341 214.396 379.23 213.0518 379.1289 211.9351 C 379.1089 211.7041 379.0229 208.8486 379.1719 208.8599 C 380.8242 208.9849 382.8521 209.1416 384.1519 210.2778 C 385.02 211.0361 385.1948 212.3638 385.2852 213.4458 C 385.375 214.5049 385.3198 215.5747 385.1948 216.626 L 385.1948 216.626 ZM 385.1948 216.626 L 385.1948 216.626 Z" stroke="#d3b158" stroke-width="2" fill="none"/>
			<path d="M 338.375 322.6807 C 337.5078 323.3721 336.4141 324.1416 335.2461 323.9932 C 333.52 323.7749 332.0313 322.396 330.8091 321.251 C 329.6328 320.1499 328.375 318.8408 327.8281 317.2979 C 327.0698 315.1768 329.1172 313.0278 330.3828 311.54 C 330.3672 311.5278 330.3521 311.5166 330.3359 311.501 C 327.2729 314.8799 324.25 318.3877 321 321.5518 C 319.3979 323.1099 317.7109 324.7119 316.0508 326.2549 C 315.1719 327.0747 314.27 327.876 313.3711 328.6768 C 312.8242 329.1611 312.2891 329.6528 311.7339 330.1221 C 311.4922 330.3291 311.0269 330.5908 310.9302 330.8408 C 311.1133 330.8018 311.3789 330.501 311.5508 330.3569 C 311.9302 330.0361 312.332 329.7349 312.7383 329.4541 C 313.6133 328.8486 314.6802 328.1729 315.7852 328.1689 C 317.5781 328.1611 319.3091 329.9189 320.457 331.1299 C 321.645 332.3877 323.0352 333.8682 323.355 335.6221 C 323.5859 336.8569 322.7813 338.0049 322.0508 338.9229 C 321.3789 339.7666 320.6172 340.5278 319.793 341.2197 C 319.8052 341.2349 319.8198 341.251 319.832 341.271 C 327.3091 334.9429 334.4258 327.9736 340.7422 320.478 C 340.7271 320.4658 340.7109 320.4497 340.6948 320.439 C 340.0078 321.2627 339.2109 322.0127 338.375 322.6807 L 338.375 322.6807 ZM 326.605 318.6099 C 327.5508 318.8721 328.4141 319.4307 329.1992 320.0088 C 329.3242 320.0986 330.7769 321.228 330.7109 321.2979 C 329.4839 322.6138 327.5742 324.7319 325.5781 324.4619 C 323.895 324.2319 322.355 322.8101 321.188 321.665 C 321.1479 321.626 321.105 321.583 321.0659 321.5439 C 322.457 320.189 324.4448 318.0088 326.605 318.6099 L 326.605 318.6099 ZM 317.9448 326.646 C 317.793 325.3369 318.8008 324.0479 319.5859 323.103 C 319.6909 322.978 320.9102 321.5166 321.063 321.6689 C 322.23 322.8408 323.668 324.4268 323.8911 326.1299 C 324.1602 328.1528 322.0229 330.0278 320.688 331.271 C 319.5391 330.0361 318.145 328.376 317.9448 326.646 L 317.9448 326.646 ZM 326.5313 334.1768 C 324.5313 334.9351 322.7188 333.3447 321.3911 332.0049 C 321.1909 331.8057 321.0039 331.5947 320.8159 331.3877 C 320.6802 331.2388 321.1948 330.9111 321.3242 330.8018 C 322.2852 329.978 323.3438 329.1689 324.5078 328.6528 C 326.6289 327.7158 328.5698 329.2939 330.0552 330.7041 C 330.2383 330.8877 330.4219 331.0747 330.6089 331.2588 C 329.4409 332.4111 328.0781 333.5908 326.5313 334.1768 L 326.5313 334.1768 ZM 332.7148 328.7588 C 332.1172 329.6299 331.4341 330.4658 330.6719 331.1997 C 329.52 330.0439 328.2271 328.6997 327.832 327.0708 C 327.3281 325.0049 329.4883 322.708 330.7769 321.3369 C 331.9961 322.4697 333.4648 323.8447 333.8052 325.5439 C 334.0352 326.6997 333.3398 327.8447 332.7148 328.7588 L 332.7148 328.7588 ZM 332.7148 328.7588 L 332.7148 328.7588 Z" stroke="#d3b158" stroke-width="2" fill="none"/>
			<path d="M 316.1519 335.4268 C 316.1411 335.4189 316.105 335.3838 316.1021 335.3721 C 314.7031 336.5557 312.582 338.4927 310.5981 337.9888 C 308.8911 337.5557 307.4531 335.8999 306.4019 334.5679 C 306.3872 334.5791 306.3711 334.5908 306.355 334.6069 C 306.3398 334.6182 306.3198 334.6299 306.3052 334.646 C 307.4019 335.9971 309.1602 338.271 308.6479 340.1338 C 308.3242 341.314 307.3198 342.2979 306.438 343.0908 C 306.2852 343.228 304.9258 344.2041 304.9839 344.3369 C 306.48 343.2349 308.8979 341.396 310.875 341.9819 C 312.543 342.4736 313.8008 344.0439 314.8438 345.353 C 314.8589 345.3408 314.8789 345.3247 314.895 345.314 C 314.832 345.2319 314.77 345.1499 314.707 345.0679 C 314.7729 345.146 314.8398 345.2236 314.9063 345.3018 C 314.9219 345.29 314.9409 345.2749 314.957 345.2627 C 313.8711 343.9028 312.1519 341.8486 312.5898 339.978 C 313.0122 338.1611 314.7769 336.5791 316.1519 335.4268 L 316.1519 335.4268 ZM 316.1519 335.4268 L 316.1519 335.4268 Z" stroke="#d3b158" stroke-width="2" fill="none"/>
			<path d="M 342.082 310.7778 C 341.4961 308.7979 343.3398 306.376 344.4409 304.8838 C 344.4302 304.8799 344.3828 304.853 344.3789 304.8447 C 343.3359 306.2749 341.813 308.3877 339.9141 308.6138 C 338.082 308.8018 336.0938 307.2939 334.7461 306.2041 C 334.7422 306.2197 334.7148 306.2549 334.7031 306.2627 C 336.0508 307.3247 337.8281 308.8408 338.1602 310.6099 C 338.418 311.9658 337.457 313.3999 336.7148 314.4458 C 336.6089 314.5947 335.4692 315.8838 335.5659 316.0127 C 336.1211 315.3486 336.7231 314.7236 337.3672 314.1499 C 338.1909 313.4111 339.27 312.4819 340.4302 312.3999 C 341.6563 312.3101 342.9063 313.0439 343.895 313.6929 C 344.0859 313.8179 345.3198 314.8569 345.457 314.7471 C 344.1479 313.7041 342.5742 312.4458 342.082 310.7778 L 342.082 310.7778 ZM 342.082 310.7778 L 342.082 310.7778 Z" stroke="#d3b158" stroke-width="2" fill="none"/>
			<path d="M 361.5938 289.146 C 359.8481 290.2158 357.4492 288.896 355.8979 287.9932 C 354.4063 287.126 352.77 286.1138 351.8242 284.6299 C 350.6172 282.7349 352.105 280.1807 353.0229 278.4429 C 353.0039 278.4346 352.9883 278.4229 352.9688 278.415 C 350.6841 282.3721 348.5078 286.4307 346.0981 290.2817 C 344.8979 292.1997 343.5781 294.1499 342.2729 296.0317 C 341.4961 297.1499 340.7231 298.2666 339.9219 299.3638 C 339.5781 299.833 339.2339 300.3057 338.8911 300.7778 C 338.7188 301.0127 338.3789 301.3369 338.3438 301.5791 C 338.5122 301.4971 338.6992 301.1416 338.8359 300.958 C 339.125 300.5596 339.457 300.1807 339.793 299.8179 C 340.5161 299.0361 341.4102 298.1528 342.4771 297.8877 C 344.2031 297.458 346.3242 298.8291 347.6948 299.7432 C 349.0898 300.6729 350.668 301.7666 351.4302 303.3101 C 352.4609 305.396 350.4771 308.1182 349.2852 309.7388 C 349.3008 309.751 349.3159 309.7666 349.332 309.7778 C 355.145 301.8208 360.5039 293.5791 365.105 284.8569 C 365.0859 284.8486 365.0698 284.8369 365.0508 284.8291 C 364.2188 286.4028 363.1479 288.1929 361.5938 289.146 L 361.5938 289.146 ZM 346.5229 289.6807 C 346.8091 289.2236 347.1328 288.7861 347.4692 288.3682 C 348.2031 287.458 349.1758 286.3096 350.4219 286.1851 C 352.1563 286.0127 354.0781 287.0088 355.5313 287.8682 C 354.605 289.4351 353.2378 291.9307 351.207 292.1069 C 349.5122 292.251 347.6992 291.2158 346.3052 290.3486 C 346.0122 290.2471 346.418 289.853 346.5229 289.6807 L 346.5229 289.6807 ZM 344.1719 295.6377 C 343.7769 293.814 345.1992 291.8057 346.1128 290.3369 C 347.543 291.2319 349.3359 292.478 349.9448 294.1138 C 350.645 296.0049 348.9771 298.3486 347.9492 299.833 C 346.5352 298.8721 344.543 297.4111 344.1719 295.6377 L 344.1719 295.6377 ZM 357.5698 297.6997 C 357.293 298.146 356.9922 298.5747 356.668 298.9888 C 355.8481 300.0479 354.8008 301.3369 353.4883 301.79 C 351.645 302.4189 349.4609 300.8569 348.0161 299.8638 C 348.9448 298.4971 350.0981 296.9736 351.5469 296.1377 C 353.27 295.1416 355.438 296.2979 356.957 297.2041 C 357.105 297.2979 357.668 297.5439 357.5698 297.6997 L 357.5698 297.6997 ZM 357.6641 297.5518 C 356.2578 296.6567 354.5742 295.5791 353.9019 293.9849 C 353.4258 292.8599 353.9141 291.5278 354.3398 290.458 C 354.5659 289.876 354.832 289.3096 355.1211 288.7549 C 355.188 288.6299 355.4448 287.9541 355.5938 287.9111 C 355.7031 287.8838 356.1372 288.2319 356.2461 288.2939 C 356.6172 288.5088 356.9692 288.7549 357.313 289.0088 C 358.1479 289.626 359.0391 290.3721 359.4692 291.3408 C 360.3281 293.2749 358.6719 295.9541 357.6641 297.5518 L 357.6641 297.5518 ZM 357.6641 297.5518 L 357.6641 297.5518 Z" stroke="#d3b158" stroke-width="2" fill="none"/>
			<path d="M 268.5781 372.3838 C 267.457 372.6299 266.082 372.8486 265.082 372.1416 C 263.6909 371.1611 262.9731 369.353 262.3789 367.8208 C 261.7729 366.251 261.1172 364.333 261.4531 362.6338 C 261.855 360.6221 264.52 359.603 266.1948 358.8677 C 266.188 358.853 266.1802 358.833 266.1719 358.814 C 264.02 359.6567 261.9219 360.646 259.7578 361.4697 C 257.6563 362.271 255.5 363.0869 253.4063 363.8247 C 251.2813 364.5708 249.0391 365.2861 246.8481 365.939 C 245.6602 366.2939 244.4731 366.6611 243.2729 366.9888 C 242.6289 367.165 241.9878 367.3369 241.3442 367.5127 C 241.0352 367.5947 240.5039 367.6377 240.313 367.8208 C 240.4922 367.8638 240.8589 367.7041 241.082 367.646 C 241.7148 367.4736 242.3789 367.3638 243.0313 367.2939 C 244.1948 367.165 245.543 367.0986 246.4648 367.9458 C 247.6948 369.0747 248.3589 370.8877 248.8359 372.458 C 249.3281 374.0747 249.9492 376.0439 249.3589 377.7119 C 248.6563 379.7158 245.5981 380.54 243.7769 381.0249 C 243.7852 381.0439 243.7891 381.064 243.7891 381.083 C 253.3052 378.5171 262.625 375.3599 271.6602 371.4111 C 271.6519 371.3916 271.645 371.3721 271.6372 371.353 C 270.6479 371.79 269.6328 372.1528 268.5781 372.3838 L 268.5781 372.3838 ZM 254.1172 363.6177 C 254.6802 363.4189 255.2578 363.271 255.8398 363.1499 C 257 362.9028 258.4258 362.6499 259.4609 363.3916 C 260.8521 364.3916 261.6992 366.2549 262.2969 367.8101 C 260.5591 368.4697 257.855 369.603 256.1602 368.353 C 254.8159 367.3638 254.0742 365.5278 253.5269 364.0049 C 253.3633 363.7388 253.9258 363.6851 254.1172 363.6177 L 254.1172 363.6177 ZM 248.645 366.6768 C 249.5591 365.1099 251.7729 364.4429 253.3872 363.876 C 253.9531 365.4849 254.7891 368.0518 253.8442 369.6499 C 252.895 371.2471 250.5898 371.9497 248.9102 372.4497 C 248.3979 370.7939 247.707 368.2817 248.645 366.6768 L 248.645 366.6768 ZM 257.7661 376.771 C 257.2422 376.9541 256.7148 377.1177 256.1758 377.2427 C 254.8589 377.5518 253.1411 377.9351 251.8481 377.3569 C 250.1372 376.5869 249.4448 374.165 248.9448 372.5166 C 250.6479 372.001 253.0698 371.251 254.8008 372.0166 C 256.27 372.646 257.0659 374.6069 257.5942 376.001 C 257.6519 376.165 257.9409 376.708 257.7661 376.771 L 257.7661 376.771 ZM 263.2852 372.6177 C 262.9648 374.9111 259.8198 376.0557 257.9341 376.7119 C 257.3672 375.083 256.5161 372.7427 257.3979 371.0986 C 258.2622 369.5439 260.4063 368.646 261.9771 368.0127 C 262.3711 367.8569 262.3281 367.915 262.48 368.3101 C 262.6021 368.6221 262.7148 368.939 262.8159 369.2588 C 263.1479 370.3208 263.438 371.4971 263.2852 372.6177 L 263.2852 372.6177 ZM 263.2852 372.6177 L 263.2852 372.6177 Z" stroke="#d3b158" stroke-width="2" fill="none"/>
			<path d="M 236.7031 373.9351 C 235.5122 372.7349 234.9731 370.8208 234.6172 369.208 C 234.5981 369.2119 234.5781 369.2197 234.5591 369.2236 C 234.5352 369.228 234.5161 369.2319 234.4961 369.2349 C 234.8872 370.9028 235.332 373.2041 234.4839 374.79 C 233.8398 375.9927 232.188 376.54 230.9609 376.8838 C 230.7891 376.9351 229.0898 377.2197 229.0859 377.3799 C 230.105 377.1768 231.145 377.0708 232.1841 377.0439 C 233.3198 377.0127 234.6519 377.0518 235.5078 377.9067 C 236.7148 379.1138 237.1563 380.9819 237.5229 382.5947 C 237.543 382.5908 237.5659 382.583 237.5859 382.5791 C 237.5698 382.4927 237.5508 382.4028 237.5352 382.3179 C 237.5552 382.4028 237.5781 382.4888 237.6021 382.5747 C 237.6211 382.5708 237.6411 382.5679 237.6641 382.564 C 237.2969 380.958 236.8979 379.1069 237.4448 377.4971 C 238.1372 375.4736 241.188 374.6997 243.0161 374.2119 C 243.0122 374.1997 242.9922 374.1499 242.9922 374.1416 C 241.168 374.6338 238.23 375.4736 236.7031 373.9351 L 236.7031 373.9351 ZM 236.7031 373.9351 L 236.7031 373.9351 Z" stroke="#d3b158" stroke-width="2" fill="none"/>
			<path d="M 281.75 358.958 C 281.7378 358.9497 281.7109 358.9067 281.7109 358.896 C 280.0552 359.7666 277.4731 361.2197 275.6372 360.1611 C 274.1479 359.3018 273.1602 357.478 272.4448 355.9697 C 272.4341 355.978 272.395 355.9971 272.3789 356.001 C 273.1479 357.5708 274.3442 360.1499 273.4341 361.853 C 272.8589 362.9351 271.668 363.6851 270.6289 364.2588 C 270.4448 364.3599 268.8979 364.9888 268.9302 365.146 C 269.8091 364.7549 270.7192 364.4351 271.645 364.1807 C 272.7422 363.8721 274.1211 363.5518 275.1802 364.146 C 276.707 365.001 277.5938 366.8247 278.3242 368.3408 C 278.4731 368.2236 277.938 367.3247 277.8481 367.103 C 277.4219 366.0679 277.0391 364.939 277.0313 363.8057 C 277.02 361.4497 279.9302 359.9111 281.75 358.958 L 281.75 358.958 ZM 281.75 358.958 L 281.75 358.958 Z" stroke="#d3b158" stroke-width="2" fill="none"/>
			<path d="M 302.7383 351.9849 C 301.1372 351.2939 300.0552 349.6689 299.105 348.2749 C 298.1719 346.9067 297.082 345.0986 297.1328 343.3877 C 297.1909 341.4307 299.4883 339.876 300.9219 338.8291 C 300.9102 338.814 300.8979 338.7979 300.8828 338.7817 C 298.9922 340.0518 297.1719 341.4458 295.3008 342.7427 C 293.4258 344.0439 291.4609 345.3208 289.5552 346.5088 C 287.645 347.6958 285.6372 348.9111 283.6519 350.0361 C 282.6172 350.6221 281.5781 351.1958 280.543 351.7749 C 279.9063 352.1299 279.2622 352.4658 278.6172 352.8057 C 278.3359 352.9541 277.8281 353.1138 277.6802 353.3369 C 277.8672 353.3369 278.1909 353.0986 278.3911 352.9932 C 278.895 352.728 279.4302 352.5088 279.9648 352.3101 C 281.1519 351.8682 282.5591 351.4111 283.7383 352.103 C 285.1948 352.9497 286.2378 354.5679 287.0591 356.001 C 287.8872 357.4429 288.9019 359.208 288.7192 360.9351 C 288.5859 362.1729 287.457 363.1299 286.5391 363.8486 C 285.7461 364.4429 284.8911 364.9658 284.0122 365.4229 C 284.0229 365.4429 284.0313 365.4619 284.0391 365.4819 C 292.7622 360.8799 301.0781 355.6499 309.043 349.8369 C 309.0269 349.8208 309.0161 349.8057 309.0039 349.79 C 307.438 350.9429 304.7813 352.8721 302.7383 351.9849 L 302.7383 351.9849 ZM 295.3789 344.751 C 296.9219 345.4111 298.1411 346.9849 299.063 348.3408 C 299.2148 348.5679 296.855 349.751 296.6133 349.8599 C 295.5859 350.3291 294.3281 350.7979 293.2271 350.3057 C 291.7109 349.626 290.582 348.021 289.7109 346.6567 C 289.6841 346.6099 289.6519 346.564 289.6211 346.5166 C 291.168 345.5518 293.5039 343.9458 295.3789 344.751 L 295.3789 344.751 ZM 285.4492 350.8057 C 285.6479 348.9351 287.9258 347.5747 289.3711 346.6729 C 289.6479 346.4971 289.7031 346.8179 289.8481 347.064 C 290.0508 347.4189 290.2422 347.7778 290.4219 348.146 C 290.875 349.0708 291.2969 350.0869 291.3672 351.126 C 291.5161 353.3877 288.813 354.9736 287.1021 355.9307 C 286.2539 354.4697 285.27 352.5439 285.4492 350.8057 L 285.4492 350.8057 ZM 293.938 359.5557 C 292.9102 359.9458 291.6211 360.3599 290.5591 359.8838 C 288.98 359.1768 287.9771 357.4268 287.1519 355.9888 C 288.6992 355.1099 290.668 353.9849 292.5161 354.146 C 294.1948 354.2939 295.5039 356.1611 296.355 357.4429 C 296.4922 357.665 296.6289 357.8838 296.77 358.1069 C 295.875 358.6729 294.9302 359.1807 293.938 359.5557 L 293.938 359.5557 ZM 299.3828 356.1416 C 298.6089 356.8721 297.7461 357.501 296.8438 358.0601 C 295.9609 356.6499 294.9102 354.9497 294.9961 353.228 C 295.0981 351.1689 297.6211 349.5278 299.145 348.4819 C 300.0781 349.853 301.2148 351.5249 301.1602 353.251 C 301.125 354.4189 300.1841 355.3916 299.3828 356.1416 L 299.3828 356.1416 ZM 299.3828 356.1416 L 299.3828 356.1416 Z" stroke="#d3b158" stroke-width="2" fill="none"/>
			<path d="M 180.918 384.7427 C 180.2383 383.165 180.375 381.2861 180.5352 379.6138 C 180.6948 377.9541 180.9771 375.396 182.48 374.3721 C 183.9409 373.3721 186.1328 373.5166 187.8242 373.5791 C 187.8242 373.5601 187.8281 373.54 187.8281 373.521 C 183.2769 373.1689 178.6758 373.0166 174.1641 372.5049 C 171.9341 372.251 169.605 371.9658 167.355 371.5908 C 166.1758 371.396 165 371.1997 163.8198 371.0049 C 163.1021 370.8877 162.3872 370.751 161.6719 370.6138 C 161.3589 370.5557 160.8633 370.3638 160.605 370.4429 C 160.7539 370.5601 161.1519 370.5791 161.375 370.6221 C 161.8242 370.708 162.27 370.8369 162.707 370.9619 C 163.7271 371.2627 164.8872 371.646 165.6289 372.4497 C 166.8789 373.8018 166.5591 376.4111 166.3242 378.083 C 166.0898 379.7627 165.8008 381.689 164.7031 383.0439 C 163.2661 384.814 159.9648 384.228 158.0269 383.8447 C 158.0229 383.8638 158.0161 383.8838 158.0122 383.9028 C 167.6802 385.7588 177.4731 386.876 187.313 387.251 C 187.313 387.228 187.313 387.208 187.313 387.189 C 185.27 387.126 181.855 386.9307 180.918 384.7427 L 180.918 384.7427 ZM 174.1758 372.7197 C 174.1841 372.6611 174.188 372.6069 174.1948 372.5518 C 175.9102 372.7471 178.543 372.939 179.6289 374.478 C 180.6563 375.939 180.5742 378.251 180.4341 379.9541 C 178.5942 379.7939 175.645 379.6299 174.668 377.7861 C 173.8872 376.3057 174.0122 374.333 174.1758 372.7197 L 174.1758 372.7197 ZM 168.2729 373.2939 C 169.6211 371.9429 172.2852 372.333 174.0078 372.5278 C 174.2383 372.5557 173.8281 374.2427 173.7729 374.4736 C 173.5469 375.4541 173.2422 376.478 172.6479 377.3018 C 171.3281 379.1338 168.2891 378.6177 166.3589 378.3486 C 166.605 376.6729 167.0352 374.5361 168.2729 373.2939 L 168.2729 373.2939 ZM 171.3672 385.8999 C 170.1021 385.6807 168.7852 385.3447 167.6802 384.6729 C 165.8398 383.5557 166.0078 381.0708 166.2422 379.1997 C 166.2578 379.0679 166.2661 378.4971 166.3589 378.4229 C 166.5161 378.3057 167.4341 378.6069 167.6133 378.6416 C 168.8628 378.9028 170.1719 379.2588 171.2539 379.9697 C 172.9102 381.064 172.8052 383.54 172.6519 385.29 C 172.6372 385.4268 172.6563 385.9971 172.563 386.0708 C 172.418 386.1851 171.5391 385.9268 171.3672 385.8999 L 171.3672 385.8999 ZM 175.832 386.1689 C 174.7729 386.2549 173.7031 386.2041 172.6479 386.0791 C 172.8359 384.4541 173.0698 382.5601 174.1328 381.2471 C 174.8828 380.314 176.2231 380.1138 177.3438 380.0127 C 177.5742 379.9932 180.4302 379.9028 180.418 380.0557 C 180.293 381.7041 180.1328 383.7319 178.9961 385.0361 C 178.2378 385.9028 176.9102 386.0747 175.832 386.1689 L 175.832 386.1689 ZM 175.832 386.1689 L 175.832 386.1689 Z" stroke="#d3b158" stroke-width="2" fill="none"/>
			<path d="M 160.293 377.3057 C 158.4961 376.9619 155.6719 376.5166 154.8159 374.6528 C 154.082 373.0518 154.4839 370.8877 154.8711 369.2349 C 154.8521 369.2319 154.832 369.228 154.813 369.2236 C 154.793 369.2197 154.77 369.2119 154.75 369.208 C 154.3872 370.8638 153.813 373.021 152.4448 374.1338 C 151.375 375.0088 149.6411 374.7939 148.375 374.6069 C 148.207 374.5791 146.4258 374.0708 146.3521 374.2119 C 147.3521 374.478 148.3481 374.8208 149.293 375.2427 C 150.2813 375.6807 151.4302 376.2778 151.8589 377.333 C 152.52 378.9541 152.0781 380.9229 151.707 382.564 C 151.7271 382.5679 151.7461 382.5708 151.77 382.5747 C 151.793 382.4888 151.813 382.4028 151.8359 382.3179 C 151.8159 382.4028 151.8008 382.4927 151.7813 382.5791 C 151.8052 382.583 151.8242 382.5908 151.8481 382.5947 C 152.2109 380.9819 152.6519 379.1138 153.8589 377.9067 C 154.6602 377.1069 155.875 377.0278 156.9409 377.04 C 158.063 377.0479 159.1841 377.1611 160.2852 377.3799 C 160.2852 377.3682 160.2852 377.314 160.293 377.3057 L 160.293 377.3057 ZM 160.293 377.3057 L 160.293 377.3057 Z" stroke="#d3b158" stroke-width="2" fill="none"/>
			<path d="M 201.793 380.3447 C 200.0078 380.4111 197.4409 380.5601 196.063 379.1997 C 194.77 377.9028 194.707 375.4028 194.7192 373.6807 C 194.707 373.6851 194.6641 373.6851 194.6479 373.6807 C 194.6602 375.4229 194.6133 378.2471 193.0742 379.396 C 192.1128 380.1138 190.7461 380.2817 189.582 380.3569 C 189.3633 380.3682 187.6089 380.2666 187.5659 380.4189 C 189.5039 380.4888 192.7231 380.5747 193.8052 382.5049 C 194.3198 383.4307 194.4922 384.54 194.5859 385.583 C 194.6021 385.7549 194.5659 387.3291 194.6719 387.3799 C 194.6802 387.3799 194.7578 385.9111 194.77 385.7588 C 194.8521 384.7119 195.0078 383.6069 195.4839 382.6567 C 196.52 380.5908 199.793 380.4888 201.8008 380.4189 C 201.7969 380.4067 201.7891 380.353 201.793 380.3447 L 201.793 380.3447 ZM 201.793 380.3447 L 201.793 380.3447 Z" stroke="#d3b158" stroke-width="2" fill="none"/>
			<path d="M 224.7813 384.0166 C 222.9219 383.3369 222.4258 380.7158 222.1719 378.9888 C 221.918 377.271 221.6802 375.396 222.1948 373.7041 C 222.8828 371.4658 225.8359 371.0361 227.8281 370.6528 C 227.8242 370.6338 227.8198 370.6138 227.8159 370.5947 C 225.5313 370.939 223.2622 371.4189 220.9731 371.7388 C 218.75 372.0479 216.4141 372.3569 214.25 372.5947 C 211.9648 372.8486 209.6758 373.064 207.3828 373.208 C 206.1133 373.29 204.8398 373.3916 203.5698 373.4429 C 202.8872 373.4697 202.2031 373.4927 201.52 373.521 C 201.2461 373.5317 200.7852 373.4697 200.5859 373.5869 C 200.7539 373.665 201.1479 373.5947 201.375 373.5869 C 202.0313 373.5601 202.7031 373.603 203.355 373.6807 C 204.5229 373.8179 205.8481 374.0439 206.5591 375.0791 C 207.5078 376.4541 207.7539 378.3721 207.8672 380.0049 C 207.9839 381.6611 208.1211 383.6177 207.2813 385.1177 C 206.2031 387.0361 202.957 387.1611 201.0229 387.228 C 201.0269 387.2471 201.0269 387.2666 201.0229 387.29 C 210.855 386.9268 220.6719 385.9497 230.3438 384.0986 C 230.3398 384.0791 230.3359 384.0601 230.332 384.0361 C 228.5742 384.3721 226.5 384.646 224.7813 384.0166 L 224.7813 384.0166 ZM 214.9922 372.5708 C 215.582 372.5049 216.1802 372.4849 216.7729 372.4971 C 217.9492 372.521 219.4019 372.5947 220.2422 373.54 C 221.3789 374.8179 221.7891 376.8369 222.0229 378.4849 C 220.188 378.7427 217.3052 379.2388 215.9302 377.6528 C 214.8359 376.3916 214.52 374.4268 214.3281 372.8179 C 214.23 372.5249 214.7891 372.5947 214.9922 372.5708 L 214.9922 372.5708 ZM 207.9409 380.0171 C 207.8091 378.3101 207.7148 375.8486 208.8633 374.4458 C 210.0313 373.001 212.5078 372.8569 214.2192 372.6611 C 214.4141 374.3682 214.6089 376.8408 213.4771 378.271 C 212.2813 379.7388 209.688 379.9067 207.9409 380.0171 L 207.9409 380.0171 ZM 215.6021 386.208 C 215.0508 386.271 214.5 386.3101 213.9448 386.314 C 212.5938 386.3179 210.8398 386.3057 209.7031 385.4541 C 208.2109 384.3208 208.0781 381.8057 207.957 380.0908 C 209.7422 379.9697 212.4302 379.751 213.8979 381.0049 C 215.082 382.0166 215.4063 383.958 215.605 385.4189 C 215.625 385.5947 215.7852 386.189 215.6021 386.208 L 215.6021 386.208 ZM 221.8159 383.6138 C 220.895 385.5947 217.688 385.978 215.7769 386.189 C 215.6021 384.5557 215.418 382.6611 216.1602 381.1421 C 216.668 380.103 217.8242 379.6528 218.8521 379.2979 C 219.4771 379.083 220.1211 378.915 220.77 378.7817 C 220.9492 378.7427 221.8672 378.4429 222.0229 378.564 C 222.1172 378.6338 222.1211 379.2041 222.1372 379.3369 C 222.1909 379.7817 222.2271 380.228 222.2422 380.6768 C 222.2729 381.6528 222.2339 382.7158 221.8159 383.6138 L 221.8159 383.6138 ZM 221.8159 383.6138 L 221.8159 383.6138 Z" stroke="#d3b158" stroke-width="2" fill="none"/>
			<path d="M 110.855 352.8599 C 108.855 351.7041 106.7813 350.6689 104.7852 349.4927 C 102.855 348.353 100.8398 347.1377 98.9961 345.978 C 97.0391 344.7432 95.105 343.4658 93.207 342.146 C 92.1021 341.376 90.9922 340.6099 89.9063 339.8179 C 89.4341 339.4736 88.9648 339.1299 88.4922 338.7861 C 88.2578 338.6138 87.9341 338.2749 87.6909 338.2388 C 87.7769 338.415 88.145 338.603 88.3359 338.7471 C 88.7729 339.0869 89.1992 339.4458 89.6021 339.8291 C 90.3789 340.5679 91.3359 341.5518 91.4341 342.6807 C 91.5942 344.4888 90.3242 346.4307 89.3398 347.8569 C 88.3008 349.3677 86.7378 351.7119 84.6602 351.6099 C 82.8198 351.521 80.9692 350.2471 79.5313 349.1807 C 79.52 349.1958 79.5078 349.2119 79.4922 349.228 C 87.4531 355.0439 95.7031 360.3721 104.4141 364.9971 C 104.4258 364.9819 104.4341 364.9619 104.4448 364.9429 C 102.8711 364.1099 101.082 363.04 100.1289 361.4849 C 99.0591 359.7388 100.3789 357.3447 101.2769 355.7939 C 102.1211 354.3369 103.0942 352.79 104.4961 351.8101 C 106.4302 350.4658 109.0229 351.9619 110.8281 352.915 C 110.8359 352.896 110.8481 352.8799 110.855 352.8599 L 110.855 352.8599 ZM 93.6328 344.0679 C 95.457 343.6729 97.4648 345.0908 98.9341 346.0088 C 98.0391 347.4351 96.793 349.228 95.1563 349.8369 C 93.2661 350.54 90.9219 348.8721 89.4409 347.8447 C 90.4019 346.4307 91.8589 344.439 93.6328 344.0679 L 93.6328 344.0679 ZM 91.5698 357.4658 C 91.1021 357.1729 90.6479 356.853 90.2148 356.5127 C 89.1802 355.6958 87.9258 354.6768 87.4839 353.3838 C 86.8481 351.54 88.4141 349.3569 89.4063 347.9111 C 90.7729 348.8408 92.2969 349.9932 93.1328 351.4429 C 94.1289 353.165 92.9731 355.333 92.0659 356.853 C 91.9731 357.001 91.73 357.564 91.5698 357.4658 L 91.5698 357.4658 ZM 97.7661 359.4307 C 95.8438 360.1299 93.2891 358.5479 91.7231 357.5601 C 92.6133 356.1499 93.6909 354.4697 95.2852 353.7979 C 96.4141 353.3179 97.7461 353.8101 98.813 354.2319 C 99.0122 354.3101 101.4141 355.3916 101.3481 355.5088 C 100.5039 356.9619 99.4302 358.8208 97.7661 359.4307 L 97.7661 359.4307 ZM 101.4063 355.4268 C 99.8359 354.501 97.3398 353.1338 97.168 351.0986 C 97.02 349.4028 98.0591 347.5947 98.918 346.1997 C 99.0229 345.9067 99.418 346.3101 99.5898 346.4189 C 100.0469 346.7041 100.4839 347.0249 100.9019 347.3638 C 101.813 348.0986 102.9609 349.0679 103.0859 350.314 C 103.2622 352.0518 102.2622 353.9736 101.4063 355.4268 L 101.4063 355.4268 ZM 101.4063 355.4268 L 101.4063 355.4268 Z" stroke="#d3b158" stroke-width="2" fill="none"/>
			<path d="M 84.4258 344.2749 C 82.9961 343.2319 80.8828 341.7119 80.6563 339.814 C 80.4688 337.9819 81.9731 335.9888 83.063 334.646 C 83.0469 334.6299 83.0313 334.6182 83.0161 334.6069 L 83.0122 334.6069 L 83.0161 334.6069 C 83 334.5908 82.98 334.5791 82.9648 334.5679 C 81.9019 335.9111 80.3872 337.6929 78.6172 338.0249 C 77.2622 338.2778 75.8281 337.3179 74.7813 336.5747 C 74.6328 336.4697 73.3438 335.333 73.2148 335.4268 C 74.5781 336.5679 76.2271 338.0708 76.7422 339.8247 C 77.3008 341.7388 75.5229 343.8721 74.4141 345.2627 C 74.4302 345.2749 74.4448 345.29 74.4609 345.3018 C 74.5313 345.2236 74.5942 345.146 74.6602 345.0679 C 74.6021 345.1499 74.5352 345.2319 74.4731 345.314 C 74.4922 345.3247 74.5078 345.3408 74.5229 345.353 C 75.5469 344.0708 76.7339 342.6099 78.3198 342.0361 C 80.3442 341.3018 82.8481 343.2041 84.3872 344.3369 C 84.3911 344.3247 84.418 344.2778 84.4258 344.2749 L 84.4258 344.2749 ZM 84.4258 344.2749 L 84.4258 344.2749 Z" stroke="#d3b158" stroke-width="2" fill="none"/>
			<path d="M 120.4409 365.146 C 120.4409 365.1299 120.457 365.0791 120.4648 365.0747 C 118.8281 364.3569 116.4448 363.3799 115.8008 361.5557 C 115.1992 359.8247 116.23 357.5439 116.9883 356.001 C 116.9771 355.9971 116.9341 355.978 116.9258 355.9697 C 116.1909 357.5166 115.1089 359.5947 113.457 360.3018 C 112.207 360.8369 110.5591 360.2427 109.395 359.7471 C 109.2271 359.6768 107.7231 358.8408 107.6211 358.958 C 108.5469 359.4429 109.4302 360.0127 110.27 360.6377 C 111.2578 361.376 112.2769 362.3018 112.332 363.6138 C 112.3789 364.7471 112.0039 365.8999 111.5898 366.939 C 111.5039 367.1528 110.9019 368.228 111.043 368.3408 C 111.7622 366.853 112.605 365.1499 114.0391 364.2349 C 115.0591 363.583 116.375 363.8247 117.4771 364.1138 C 118.4883 364.3799 119.4839 364.7197 120.4409 365.146 L 120.4409 365.146 ZM 120.4409 365.146 L 120.4409 365.146 Z" stroke="#d3b158" stroke-width="2" fill="none"/>
			<path d="M 138.9731 377.2549 C 138.5 375.5679 139.105 373.689 139.605 372.0747 C 140.0898 370.5127 140.8008 368.6338 142.0942 367.5679 C 143.6602 366.2749 146.375 367.1299 148.125 367.603 C 148.1289 367.583 148.1372 367.564 148.1411 367.5439 C 145.957 366.8599 143.7271 366.3179 141.5352 365.646 C 139.375 364.9819 137.1172 364.2197 135.0469 363.4819 C 132.8828 362.7119 130.7188 361.939 128.5898 361.0708 C 127.4409 360.5986 126.2852 360.1416 125.1411 359.6611 C 124.5269 359.4028 123.918 359.1299 123.3091 358.8638 C 123.0161 358.7349 122.5742 358.439 122.3091 358.458 C 122.4258 358.603 122.813 358.7119 123.02 358.8018 C 123.4878 359.0088 123.9448 359.2588 124.3872 359.521 C 125.4019 360.1138 126.6719 360.8877 126.9839 362.1138 C 127.4141 363.8057 126.707 365.8369 126.082 367.4067 C 125.4731 368.9429 124.7578 370.7471 123.3633 371.7388 C 121.563 373.0249 118.5591 371.7236 116.7891 370.939 C 116.7813 370.958 116.77 370.978 116.7622 370.9971 C 125.793 374.9458 135.063 378.2388 144.5781 380.814 C 144.5859 380.7939 144.5898 380.7749 144.5942 380.7549 C 142.7271 380.2588 139.5698 379.376 138.9731 377.2549 L 138.9731 377.2549 ZM 135.7231 363.7817 C 136.1172 363.9229 136.5039 364.0947 136.8872 364.2666 C 137.8281 364.689 138.8359 365.1929 139.5229 365.9849 C 140.77 367.4229 140.1089 369.9619 139.6641 371.603 C 139.543 372.0557 139.6021 372.2041 139.1133 372.0439 C 138.6411 371.8877 138.1758 371.7197 137.7148 371.5278 C 136.5698 371.0439 135.082 370.376 134.52 369.1851 C 133.7578 367.5708 134.48 365.3018 135.0229 363.7158 C 135.0591 363.4067 135.5313 363.7158 135.7231 363.7817 L 135.7231 363.7817 ZM 129 363.0518 C 130.6602 361.8721 133.2813 362.9229 134.9922 363.5249 C 134.4692 365.04 133.7383 366.7471 132.52 367.8291 C 130.8442 369.3179 127.9409 368.1807 126.145 367.4458 C 126.75 365.896 127.6089 364.0439 129 363.0518 L 129 363.0518 ZM 130.375 376.3369 C 129.8521 376.1528 129.3398 375.9458 128.8359 375.7197 C 127.6372 375.1729 126.1992 374.4189 125.4771 373.2666 C 124.4448 371.6177 125.4839 369.146 126.1289 367.521 C 127.793 368.1958 129.9019 369.0317 130.9258 370.6069 C 131.8359 372.0049 131.188 374.1807 130.7231 375.6299 C 130.6641 375.7939 130.5508 376.3999 130.375 376.3369 L 130.375 376.3369 ZM 137.0981 376.6958 C 136.1479 377.4736 134.7622 377.3569 133.625 377.1929 C 132.5742 377.0439 131.5391 376.751 130.543 376.396 C 131.0859 374.8569 131.7339 373.083 133.0508 372.0317 C 134.707 370.708 137.668 371.6729 139.4692 372.2349 C 138.9839 373.7939 138.4063 375.626 137.0981 376.6958 L 137.0981 376.6958 ZM 137.0981 376.6958 L 137.0981 376.6958 Z" stroke="#d3b158" stroke-width="2" fill="none"/>
			<path d="M 40.9922 299.0088 C 42.3589 298.0747 44.168 296.9819 45.875 297.0317 C 47.832 297.0908 49.3911 299.3877 50.4341 300.8208 C 50.4492 300.8101 50.4648 300.7979 50.4839 300.7861 C 49.2192 298.8999 47.8281 297.0869 46.5313 295.2197 C 45.23 293.3408 43.9448 291.3682 42.7539 289.4541 C 41.5659 287.5439 40.3521 285.54 39.2231 283.5557 C 38.6372 282.521 38.0659 281.4819 37.4883 280.4458 C 37.1328 279.8101 36.793 279.165 36.457 278.521 C 36.3052 278.2388 36.1479 277.7319 35.9258 277.583 C 35.9258 277.771 36.1602 278.0947 36.2661 278.2939 C 36.5313 278.7979 36.75 279.333 36.9492 279.8682 C 37.3711 280.9849 37.832 282.3569 37.2378 283.4971 C 36.4531 285.0166 34.75 286.1069 33.3091 286.9351 C 31.8442 287.7749 30.0781 288.8101 28.3281 288.6221 C 27.0859 288.4888 26.1328 287.3599 25.4141 286.4429 C 24.8159 285.6499 24.2969 284.7979 23.8359 283.915 C 23.8203 283.9268 23.8008 283.9351 23.7813 283.9429 C 28.3789 292.665 33.6128 300.9819 39.4258 308.9458 C 39.4448 308.9307 39.4609 308.9189 39.4771 308.9067 C 38.3242 307.3408 36.395 304.6846 37.2769 302.6416 C 37.9692 301.04 39.5981 299.958 40.9922 299.0088 L 40.9922 299.0088 ZM 44.605 295.0278 C 44.2461 296.1567 43.2661 297.0791 42.395 297.8291 C 42.0161 298.1528 41.625 298.4619 41.2192 298.7549 C 40.8589 299.0127 40.8828 299.0557 40.6211 298.6768 C 39.5508 297.165 38.0659 294.6611 39.1089 292.833 C 39.8911 291.4697 41.3052 290.4458 42.6021 289.6138 C 42.6479 289.583 42.6992 289.5518 42.7461 289.5249 C 43.6719 291.0088 45.1909 293.2041 44.605 295.0278 L 44.605 295.0278 ZM 38.457 285.353 C 40.3281 285.5518 41.688 287.8247 42.5898 289.2749 C 42.7661 289.5518 42.4448 289.603 42.1948 289.7471 C 41.8438 289.9541 41.4839 290.146 41.1172 290.3247 C 40.1909 290.7778 39.1758 291.1997 38.1372 291.271 C 35.8672 291.4189 34.2969 288.7158 33.332 287.0088 C 34.793 286.1567 36.7192 285.1729 38.457 285.353 L 38.457 285.353 ZM 29.707 293.8408 C 29.3159 292.814 28.9019 291.5278 29.3789 290.4619 C 30.0859 288.8838 31.8359 287.8799 33.2729 287.0557 C 34.1563 288.5947 35.2769 290.5791 35.1172 292.4189 C 34.9692 294.0986 33.1021 295.4067 31.8198 296.2588 C 31.6021 296.396 31.3789 296.5361 31.1563 296.6729 C 30.5938 295.7778 30.082 294.833 29.707 293.8408 L 29.707 293.8408 ZM 36.0122 301.064 C 34.8442 301.0278 33.8711 300.0869 33.1211 299.2861 C 32.3911 298.5127 31.7622 297.6499 31.2031 296.7471 C 32.6133 295.8638 34.313 294.814 36.0352 294.896 C 38.0938 294.9971 39.7339 297.5249 40.7852 299.0439 C 39.4102 299.978 37.7422 301.1182 36.0122 301.064 L 36.0122 301.064 ZM 36.0122 301.064 L 36.0122 301.064 Z" stroke="#d3b158" stroke-width="2" fill="none"/>
			<path d="M 26.0122 276.978 C 27.2188 277.165 28.105 278.2778 28.7729 279.2119 C 29.3481 279.9819 29.8589 280.8018 30.3008 281.6528 C 30.313 281.646 30.355 281.6138 30.3633 281.6138 C 29.4961 279.9658 28.0391 277.376 29.0981 275.54 C 29.957 274.0518 31.7813 273.064 33.293 272.3486 C 33.2813 272.3291 33.2729 272.3101 33.2661 272.29 C 33.2539 272.2749 33.2461 272.2549 33.2339 272.2349 C 31.6641 273.0049 29.0898 274.1958 27.3828 273.29 C 26.3008 272.7158 25.5508 271.521 24.9771 270.4819 C 24.8789 270.3018 24.25 268.7549 24.0942 268.7817 C 24.48 269.6611 24.8008 270.5708 25.0552 271.4971 C 25.3672 272.5947 25.6841 273.978 25.0898 275.0361 C 24.2378 276.564 22.4141 277.4458 20.895 278.1768 C 20.9063 278.1958 20.9141 278.2158 20.9258 278.2349 C 21.02 278.1958 21.1133 278.1528 21.207 278.1099 C 21.1133 278.1567 21.0229 278.1997 20.9302 278.251 C 20.9409 278.271 20.9492 278.29 20.9609 278.3057 C 22.4731 277.5747 24.2891 276.708 26.0122 276.978 L 26.0122 276.978 ZM 26.0122 276.978 L 26.0122 276.978 Z" stroke="#d3b158" stroke-width="2" fill="none"/>
			<path d="M 48.9409 312.3999 C 50.0391 312.478 51.0659 313.3291 51.8589 314.0249 C 52.5591 314.6338 53.207 315.3018 53.8052 316.0127 C 53.813 315.9971 53.8438 315.9658 53.855 315.958 C 52.6758 314.564 50.7378 312.439 51.2422 310.4541 C 51.6758 308.7471 53.332 307.314 54.668 306.2627 C 54.6563 306.2549 54.625 306.2197 54.6211 306.2041 C 53.2661 307.3018 50.9922 309.0601 49.1328 308.5479 C 47.9531 308.2236 46.9692 307.2197 46.1719 306.3408 C 46.0352 306.189 45.0591 304.8291 44.9258 304.8838 C 46.0269 306.376 47.8711 308.7979 47.2852 310.7778 C 46.793 312.4458 45.2231 313.7041 43.9141 314.7471 C 44.0508 314.8569 45.125 313.9268 45.3159 313.7979 C 46.3398 313.1099 47.6519 312.3057 48.9409 312.3999 L 48.9409 312.3999 ZM 48.9409 312.3999 L 48.9409 312.3999 Z" stroke="#d3b158" stroke-width="2" fill="none"/>
			<path d="M 77.7271 330.1997 C 74.313 327.1851 70.855 324.1099 67.6909 320.8721 C 66.1289 319.2749 64.5313 317.5869 62.9839 315.9268 C 62.2271 315.1069 61.48 314.2749 60.7383 313.439 C 60.2339 312.8721 59.7271 312.3101 59.23 311.7349 C 59 311.4697 58.6719 310.8999 58.3911 310.79 C 58.4302 310.9736 58.73 311.2388 58.875 311.4111 C 59.1948 311.79 59.4922 312.1929 59.7769 312.5986 C 60.3828 313.4736 61.0591 314.54 61.063 315.6416 C 61.0659 317.4619 59.27 319.2236 58.0352 320.3799 C 56.7969 321.54 55.332 322.8999 53.6089 323.2158 C 52.375 323.4458 51.2271 322.6416 50.3091 321.9111 C 49.4648 321.2388 48.7031 320.478 48.0078 319.6499 C 47.9922 319.665 47.9771 319.6768 47.9609 319.689 C 51.125 323.4307 54.4878 326.9932 57.9141 330.501 C 61.3481 334.0127 64.9771 337.4541 68.75 340.603 C 68.7622 340.5869 68.7769 340.5708 68.7891 340.5557 C 67.9648 339.8721 67.2109 339.0708 66.5469 338.2349 C 65.855 337.3721 65.0859 336.2749 65.2339 335.1069 C 65.4531 333.3799 66.832 331.8916 67.9771 330.6689 C 69.0781 329.4971 70.3911 328.2349 71.9302 327.689 C 74.0508 326.9351 76.2031 328.9819 77.688 330.2471 C 77.6992 330.2319 77.7148 330.2158 77.7271 330.1997 L 77.7271 330.1997 ZM 62.5859 317.8057 C 63.895 317.6528 65.1802 318.6611 66.125 319.4458 C 66.2539 319.5518 67.7148 320.771 67.563 320.9229 C 66.3872 322.0908 64.8052 323.5278 63.0981 323.751 C 61.0781 324.021 59.1992 321.8838 57.9609 320.5479 C 59.1909 319.396 60.8521 318.0049 62.5859 317.8057 L 62.5859 317.8057 ZM 55.0508 326.3916 C 54.293 324.3916 55.8872 322.5747 57.2231 321.251 C 57.4219 321.0518 57.6328 320.8638 57.8398 320.6729 C 57.9878 320.5361 58.3198 321.0557 58.4302 321.1846 C 59.2539 322.146 60.0591 323.2041 60.5742 324.3682 C 61.5161 326.4888 59.938 328.4307 58.5229 329.915 C 58.3398 330.0986 58.1519 330.2817 57.9688 330.4658 C 56.8198 329.3018 55.6372 327.939 55.0508 326.3916 L 55.0508 326.3916 ZM 63.6841 333.665 C 62.5269 333.896 61.3872 333.1997 60.4692 332.5747 C 59.5981 331.978 58.7622 331.29 58.0313 330.5278 C 59.1841 329.3799 60.5269 328.0869 62.1563 327.689 C 64.2271 327.189 66.52 329.3486 67.8911 330.6377 C 66.7578 331.8569 65.3828 333.3247 63.6841 333.665 L 63.6841 333.665 ZM 70.6172 326.4658 C 70.355 327.4111 69.7969 328.2749 69.2188 329.0601 C 69.1289 329.1851 68 330.6377 67.9302 330.5708 C 66.6128 329.3447 64.5 327.4351 64.77 325.439 C 64.9961 323.7549 66.418 322.2119 67.5659 321.0479 C 67.605 321.0088 67.6479 320.9697 67.688 320.9307 C 69.043 322.3179 71.2192 324.3057 70.6172 326.4658 L 70.6172 326.4658 ZM 70.6172 326.4658 L 70.6172 326.4658 Z" stroke="#d3b158" stroke-width="2" fill="none"/>
			<path d="M 15.5469 222.103 C 17.7852 222.7861 18.2188 225.7427 18.6021 227.7319 C 18.6211 227.728 18.6411 227.7236 18.6602 227.7236 C 17.9731 223.2041 17.1479 218.6729 16.6372 214.1567 C 16.3828 211.9229 16.188 209.583 16.043 207.3057 C 15.9648 206.1221 15.875 204.9351 15.8159 203.751 C 15.7813 203.0249 15.7617 202.2939 15.7339 201.5679 C 15.7231 201.2471 15.7969 200.7197 15.6641 200.4888 C 15.582 200.6611 15.6563 201.0518 15.6641 201.2817 C 15.688 201.939 15.6479 202.6099 15.5703 203.2627 C 15.4341 204.4307 15.207 205.751 14.1719 206.4658 C 12.793 207.415 10.8789 207.6567 9.2422 207.771 C 7.5859 207.8877 5.6367 208.0317 4.1328 207.189 C 2.2148 206.1099 2.0859 202.8638 2.0229 200.9351 C 2.0039 200.9351 1.98 200.9351 1.9609 200.9351 C 2.3242 210.7666 3.3052 220.5791 5.1519 230.251 C 5.1758 230.2471 5.1948 230.2427 5.2148 230.2388 C 4.8828 228.4819 4.605 226.4067 5.2339 224.6929 C 5.918 222.8291 8.5352 222.333 10.2622 222.0791 C 11.98 221.8247 13.855 221.5869 15.5469 222.103 L 15.5469 222.103 ZM 16.6802 214.896 C 16.7461 215.4849 16.7661 216.0869 16.7539 216.6807 C 16.73 217.8569 16.6563 219.3057 15.7109 220.1499 C 14.4341 221.2861 12.4141 221.6958 10.7661 221.9307 C 10.5078 220.0947 10.0122 217.2119 11.5981 215.8369 C 12.8589 214.7388 14.8242 214.4268 16.4341 214.2319 C 16.7271 214.1338 16.6563 214.6929 16.6802 214.896 L 16.6802 214.896 ZM 14.8052 208.771 C 16.25 209.939 16.395 212.415 16.5898 214.126 C 14.8828 214.3208 12.4102 214.5166 10.98 213.3799 C 9.5122 212.189 9.3442 209.5947 9.2339 207.8486 C 10.9409 207.7158 13.3979 207.6221 14.8052 208.771 L 14.8052 208.771 ZM 2.938 213.8569 C 2.9341 212.501 2.9448 210.7471 3.7969 209.6099 C 4.9258 208.1138 7.4448 207.9849 9.1602 207.8638 C 9.2813 209.6528 9.5 212.3369 8.2461 213.8057 C 7.2339 214.9888 5.293 215.3179 3.832 215.5166 C 3.6563 215.5361 3.0659 215.6929 3.043 215.5088 C 2.98 214.958 2.9409 214.4067 2.938 213.8569 L 2.938 213.8569 ZM 8.5742 222.1499 C 7.6021 222.1807 6.5391 222.1416 5.6367 221.7236 C 3.6563 220.8018 3.2729 217.5947 3.063 215.6851 C 4.6953 215.5088 6.5898 215.3247 8.1133 216.0679 C 9.1479 216.5747 9.5981 217.7319 9.9531 218.7588 C 10.1719 219.3838 10.3359 220.0278 10.4731 220.6768 C 10.5078 220.8569 10.8091 221.7749 10.6909 221.9307 C 10.6172 222.0249 10.0469 222.0278 9.9141 222.0439 C 9.4688 222.0986 9.0229 222.1338 8.5742 222.1499 L 8.5742 222.1499 ZM 8.5742 222.1499 L 8.5742 222.1499 Z" stroke="#d3b158" stroke-width="2" fill="none"/>
			<path d="M 8.4302 198.376 C 8.6641 199.4658 8.793 200.5908 8.832 201.708 C 8.8438 201.7041 8.895 201.6958 8.9063 201.6997 C 8.8359 199.915 8.688 197.3486 10.0508 195.9697 C 11.3481 194.6768 13.8481 194.6138 15.5659 194.626 C 15.5659 194.6069 15.5659 194.583 15.5659 194.564 C 15.5659 194.5439 15.5659 194.521 15.5659 194.501 C 13.8242 194.5127 11 194.4658 9.8521 192.9268 C 9.1372 191.9658 8.9692 190.5986 8.895 189.4351 C 8.8789 189.2158 8.98 187.4619 8.832 187.4189 C 8.793 188.458 8.6758 189.4971 8.4771 190.5166 C 8.2617 191.6338 7.9141 192.9268 6.8911 193.5679 C 5.4453 194.478 3.5269 194.4932 1.8711 194.4932 C 1.8711 194.5127 1.8711 194.5361 1.8711 194.5557 C 1.9609 194.5601 2.0508 194.5601 2.1372 194.564 C 2.0508 194.5679 1.9609 194.5679 1.8711 194.5708 C 1.8711 194.5947 1.8711 194.6138 1.8711 194.6377 C 3.5269 194.6338 5.4453 194.6528 6.8911 195.5601 C 7.8481 196.1611 8.2031 197.3291 8.4302 198.376 L 8.4302 198.376 ZM 8.4302 198.376 L 8.4302 198.376 Z" stroke="#d3b158" stroke-width="2" fill="none"/>
			<path d="M 11.7461 237.2979 C 13.7661 237.9932 14.5391 241.04 15.0313 242.8721 C 15.043 242.8638 15.0898 242.8447 15.1021 242.8447 C 14.6411 241.1528 14.0859 239.0708 14.7622 237.3682 C 15.4839 235.5361 18.3198 234.853 20.0352 234.4736 C 20.0269 234.4619 20.0161 234.415 20.02 234.4028 C 18.3521 234.7939 16.0508 235.2388 14.4648 234.3916 C 13.2622 233.7471 12.7109 232.0947 12.3672 230.8682 C 12.3198 230.6929 12.0313 228.9971 11.875 228.9932 C 12.2622 230.9541 12.8672 234.189 11.0938 235.646 C 10.23 236.3569 9.1211 236.7666 8.0659 237.083 C 7.8359 237.1499 6.6758 237.333 6.6802 237.5166 C 8.2852 237.1499 10.1367 236.751 11.7461 237.2979 L 11.7461 237.2979 ZM 11.7461 237.2979 L 11.7461 237.2979 Z" stroke="#d3b158" stroke-width="2" fill="none"/>
			<path d="M 17.0938 264.9346 C 18.0781 263.5439 19.8867 262.8291 21.418 262.2349 C 22.9883 261.626 24.9063 260.9697 26.6021 261.3101 C 28.6172 261.7119 29.6328 264.376 30.3672 266.0518 C 30.3872 266.0439 30.4063 266.0317 30.4219 266.0249 C 29.5698 263.8486 28.5742 261.728 27.7422 259.54 C 26.9531 257.4658 26.1411 255.2861 25.4341 253.2549 C 24.6719 251.0708 23.9492 248.8721 23.2891 246.6528 C 22.9063 245.3638 22.5161 244.0791 22.1602 242.7778 C 22.0078 242.2158 21.855 241.6528 21.6992 241.0908 C 21.625 240.8101 21.5859 240.3408 21.418 240.165 C 21.3789 240.3486 21.5352 240.7158 21.5981 240.9346 C 21.77 241.5679 21.8789 242.2319 21.9492 242.8838 C 22.0781 244.0479 22.1411 245.396 21.2969 246.3179 C 20.1641 247.5479 18.3521 248.2158 16.7852 248.6929 C 15.1719 249.1807 13.1909 249.7979 11.5269 249.2158 C 9.5229 248.5088 8.7031 245.4497 8.2192 243.6299 C 8.1992 243.6338 8.1758 243.6416 8.1563 243.6416 C 10.7271 253.1567 13.875 262.4819 17.8281 271.5127 C 17.8438 271.5049 17.8628 271.4971 17.8828 271.4888 C 17.4453 270.5049 17.0859 269.4849 16.855 268.4307 C 16.6089 267.3101 16.3872 265.9351 17.0938 264.9346 L 17.0938 264.9346 ZM 25.6211 253.9736 C 25.8198 254.5317 25.9692 255.1138 26.0898 255.6929 C 26.3359 256.853 26.5898 258.2817 25.8442 259.3179 C 24.8481 260.7041 22.9839 261.5518 21.4302 262.1499 C 20.77 260.415 19.6372 257.708 20.8872 256.0166 C 21.875 254.6729 23.7109 253.9268 25.2339 253.3838 C 25.5 253.2197 25.5552 253.7817 25.6211 253.9736 L 25.6211 253.9736 ZM 22.563 248.4971 C 24.1328 249.4111 24.7969 251.626 25.3628 253.2388 C 23.7539 253.8101 21.188 254.6416 19.5898 253.6958 C 17.9922 252.751 17.2891 250.4429 16.7891 248.7666 C 18.4448 248.251 20.957 247.5601 22.563 248.4971 L 22.563 248.4971 ZM 12.4688 257.6182 C 12.2852 257.0947 12.1211 256.5679 11.9961 256.0278 C 11.688 254.7119 11.3091 252.9971 11.8828 251.6997 C 12.6563 249.9888 15.0742 249.2979 16.7231 248.7979 C 17.2383 250.4971 17.9883 252.9268 17.2231 254.6528 C 16.5938 256.1221 14.6328 256.9229 13.2383 257.4458 C 13.0742 257.5049 12.5313 257.7939 12.4688 257.6182 L 12.4688 257.6182 ZM 12.5269 257.7861 C 14.1563 257.2197 16.4961 256.3682 18.1411 257.251 C 19.6953 258.1138 20.5898 260.2588 21.2271 261.833 C 21.3828 262.228 21.3198 262.1807 20.9302 262.333 C 20.6172 262.458 20.3008 262.5708 19.98 262.6689 C 18.918 263.0049 17.7422 263.29 16.6211 263.1377 C 14.3281 262.8208 13.1841 259.6729 12.5269 257.7861 L 12.5269 257.7861 ZM 12.5269 257.7861 L 12.5269 257.7861 Z" stroke="#d3b158" stroke-width="2" fill="none"/>
			<path d="M 11.9883 138.8799 C 13.6719 138.4067 15.5508 139.0127 17.1641 139.5127 C 18.7271 139.9971 20.605 140.708 21.6719 142.001 C 22.9609 143.5596 22.1133 146.2861 21.6411 148.0317 C 21.6602 148.0361 21.6802 148.04 21.6992 148.0479 C 22.3789 145.8599 22.9219 143.6299 23.5942 141.439 C 24.2578 139.2778 25.02 137.021 25.7578 134.9497 C 26.5269 132.79 27.3008 130.6221 28.168 128.4971 C 28.6289 127.3682 29.0898 126.2388 29.5508 125.1138 C 29.813 124.4736 30.0981 123.8447 30.375 123.2119 C 30.5039 122.9189 30.8008 122.478 30.7813 122.2119 C 30.6328 122.3291 30.5269 122.7158 30.4341 122.9229 C 30.23 123.396 29.9771 123.8486 29.7192 124.29 C 29.1211 125.3057 28.3481 126.5791 27.125 126.8877 C 25.4302 127.3179 23.4019 126.6099 21.832 125.9849 C 20.2617 125.3638 18.3359 124.6182 17.3979 123.1221 C 16.7461 122.0708 17.0269 120.626 17.3008 119.501 C 17.5552 118.54 17.895 117.603 18.2969 116.6929 C 18.2769 116.6846 18.2578 116.6768 18.2422 116.665 C 14.2891 125.6958 11 134.9697 8.4258 144.4849 C 8.4453 144.4932 8.4688 144.4971 8.4883 144.501 C 8.98 142.6338 9.8633 139.478 11.9883 138.8799 L 11.9883 138.8799 ZM 25.457 135.6299 C 25.3159 136.0249 25.145 136.4111 24.9731 136.79 C 24.5508 137.7319 24.0469 138.7432 23.2539 139.4268 C 21.8159 140.6729 19.2769 140.0166 17.6411 139.5708 C 17.188 139.4497 17.0352 139.5088 17.1948 139.021 C 17.3521 138.5479 17.52 138.0791 17.7109 137.6221 C 18.1953 136.478 18.8633 134.9888 20.0552 134.4229 C 21.6719 133.6611 23.938 134.3838 25.5229 134.9268 C 25.832 134.9619 25.5229 135.4346 25.457 135.6299 L 25.457 135.6299 ZM 26.188 128.9067 C 27.3672 130.564 26.3159 133.1846 25.7148 134.896 C 24.1992 134.3721 22.4922 133.6416 21.4102 132.4268 C 19.9219 130.7471 21.0591 127.8486 21.7891 126.0479 C 23.3442 126.6528 25.1948 127.5127 26.188 128.9067 L 26.188 128.9067 ZM 12.9019 130.2778 C 13.0859 129.7588 13.293 129.2471 13.52 128.7432 C 14.0659 127.5439 14.8203 126.1069 15.9688 125.3838 C 17.6211 124.3486 20.0898 125.3877 21.7192 126.0317 C 21.0391 127.6958 20.207 129.8096 18.6328 130.833 C 17.2339 131.7432 15.0591 131.0947 13.6089 130.626 C 13.4448 130.5679 12.8398 130.4541 12.9019 130.2778 L 12.9019 130.2778 ZM 12.0469 133.5317 C 12.1953 132.4819 12.4839 131.4458 12.8438 130.4497 C 14.3828 130.9932 16.1563 131.6416 17.207 132.958 C 18.5352 134.6182 17.563 137.5708 17.0078 139.376 C 15.4448 138.8916 13.6172 138.314 12.543 137.0049 C 11.7661 136.0557 11.8828 134.6689 12.0469 133.5317 L 12.0469 133.5317 ZM 12.0469 133.5317 L 12.0469 133.5317 Z" stroke="#d3b158" stroke-width="2" fill="none"/>
			<path d="M 25.0039 113.9429 C 25.6519 114.9658 25.4102 116.2778 25.1211 117.3799 C 24.8589 118.3916 24.5161 119.3877 24.0942 120.3447 C 24.1089 120.3486 24.1563 120.3638 24.1641 120.3682 C 24.8789 118.7349 25.855 116.3486 27.6841 115.7041 C 29.4141 115.103 31.6909 116.1338 33.2339 116.8916 C 33.2461 116.8721 33.2539 116.8569 33.2661 116.8369 C 33.2622 116.8369 33.2622 116.8369 33.2578 116.833 C 33.2622 116.833 33.2622 116.8369 33.2661 116.8369 C 33.2729 116.8179 33.2813 116.7979 33.293 116.7817 C 31.7461 116.0479 29.668 114.9619 28.9609 113.3096 C 28.438 112.0947 28.9961 110.5049 29.4688 109.3599 C 29.5352 109.2041 30.4219 107.5791 30.3008 107.4736 C 29.8589 108.3247 29.3481 109.146 28.7729 109.915 C 28.105 110.8486 27.2188 111.9619 26.0122 112.1528 C 24.2891 112.4189 22.4731 111.5518 20.9609 110.8208 C 20.9492 110.8408 20.9409 110.8599 20.9302 110.8799 C 21.0117 110.9189 21.0898 110.9619 21.168 111.001 C 21.0859 110.9658 21.0078 110.9268 20.9258 110.8916 C 20.9141 110.9111 20.9063 110.9307 20.895 110.9497 C 22.3828 111.665 24.0859 112.5088 25.0039 113.9429 L 25.0039 113.9429 ZM 25.0039 113.9429 L 25.0039 113.9429 Z" stroke="#d3b158" stroke-width="2" fill="none"/>
			<path d="M 7.9063 152.001 C 8.9692 152.3057 10.063 152.6997 10.9531 153.3721 C 12.875 154.8208 12.2769 158.0908 11.875 160.1377 C 11.8872 160.1377 11.9409 160.1377 11.9492 160.146 C 12.293 158.3486 12.7383 155.5249 14.6021 154.6689 C 16.2031 153.9351 18.3672 154.3408 20.02 154.728 C 20.0161 154.7158 20.0269 154.665 20.0352 154.6567 C 18.2578 154.2627 15.3091 153.54 14.6909 151.5601 C 14.3198 150.3721 14.4839 148.9697 14.7271 147.7749 C 14.7661 147.583 15.1719 146.333 15.0313 146.2588 C 14.5552 148.0361 13.8091 150.9932 11.9063 151.7666 C 10.2891 152.4268 8.3198 151.9849 6.6802 151.6138 C 6.6758 151.8057 7.6719 151.9351 7.9063 152.001 L 7.9063 152.001 ZM 7.9063 152.001 L 7.9063 152.001 Z" stroke="#d3b158" stroke-width="2" fill="none"/>
			<path d="M 4.5078 180.7666 C 6.0859 180.0908 7.9648 180.228 9.6372 180.3877 C 11.2969 180.5479 13.855 180.8291 14.8789 182.333 C 15.8789 183.7939 15.7339 185.9849 15.668 187.6768 C 15.6909 187.6807 15.7109 187.6807 15.73 187.6807 C 16.082 183.1221 16.2271 178.521 16.75 174.001 C 17.0039 171.7749 17.2891 169.4497 17.6602 167.2119 C 17.855 166.0317 18.0508 164.853 18.2461 163.6729 C 18.3672 162.9541 18.5 162.2388 18.6372 161.5249 C 18.6992 161.2119 18.8911 160.7158 18.813 160.458 C 18.6948 160.6069 18.6758 161.0049 18.6328 161.228 C 18.5469 161.6768 18.418 162.1221 18.2891 162.5601 C 17.9922 163.5791 17.605 164.7388 16.8052 165.4819 C 15.4492 166.7319 12.8398 166.4067 11.1719 166.1768 C 9.5391 165.9541 7.707 165.6611 6.3481 164.6611 C 4.4258 163.2549 5.0122 159.8838 5.4102 157.876 C 5.3911 157.8721 5.3672 157.8677 5.3481 157.8638 C 3.4961 167.5317 2.3711 177.3208 2 187.1611 C 2.02 187.1611 2.0391 187.165 2.063 187.165 C 2.125 185.1221 2.3198 181.708 4.5078 180.7666 L 4.5078 180.7666 ZM 14.7729 179.4819 C 13.313 180.5088 11 180.4268 9.2969 180.2861 C 9.457 178.4458 9.6172 175.4971 11.4688 174.521 C 12.9409 173.7388 14.9219 173.8599 16.5313 174.0317 C 16.5898 174.0361 16.645 174.0439 16.6992 174.0518 C 16.5039 175.7666 16.313 178.396 14.7729 179.4819 L 14.7729 179.4819 ZM 16.0591 168.2319 C 17.313 169.6377 16.9063 172.2388 16.7109 173.958 C 15.082 173.7817 13.1411 173.4458 11.8242 172.4067 C 10.125 171.064 10.6411 168.083 10.9019 166.2119 C 12.5981 166.458 14.8672 166.8999 16.0591 168.2319 L 16.0591 168.2319 ZM 3.3521 171.2197 C 3.5703 169.9541 3.9063 168.6377 4.5781 167.5317 C 5.6992 165.6929 8.1841 165.8599 10.0552 166.0947 C 10.188 166.1099 10.7578 166.1177 10.8281 166.2119 C 10.9448 166.3682 10.6479 167.2861 10.6089 167.4658 C 10.3481 168.7158 9.9922 170.0249 9.2813 171.1069 C 8.188 172.7627 5.7109 172.6528 3.9609 172.5049 C 3.8281 172.4888 3.2539 172.5088 3.1802 172.415 C 3.0659 172.271 3.3242 171.3877 3.3521 171.2197 L 3.3521 171.2197 ZM 3.1719 172.501 C 4.7969 172.6851 6.6909 172.9229 8.0078 173.9849 C 8.9341 174.7349 9.1372 176.0747 9.2383 177.1958 C 9.2578 177.4229 9.3481 180.2778 9.1953 180.271 C 7.5469 180.1416 5.5161 179.9849 4.2148 178.8486 C 3.3481 178.0908 3.1758 176.7627 3.082 175.6807 C 2.9961 174.626 3.0469 173.5557 3.1719 172.501 L 3.1719 172.501 ZM 3.1719 172.501 L 3.1719 172.501 Z" stroke="#d3b158" stroke-width="2" fill="none"/>
			<path d="M 50.9922 66.4458 C 51.8589 65.7549 52.9531 64.9849 54.125 65.1338 C 55.8521 65.353 57.3398 66.7349 58.5591 67.876 C 59.7339 68.9775 60.9922 70.29 61.543 71.8291 C 62.2969 73.9502 60.25 76.103 58.9839 77.5869 C 59 77.5986 59.0161 77.6138 59.0313 77.626 C 62.0981 74.2471 65.1172 70.7432 68.3672 67.5752 C 69.9688 66.0166 71.6563 64.4189 73.3159 62.8721 C 74.1992 62.0518 75.0981 61.251 76 60.4502 C 76.543 59.9697 77.082 59.478 77.6328 59.0049 C 77.8789 58.7979 78.3398 58.5361 78.438 58.2861 C 78.2539 58.3291 77.9883 58.626 77.8159 58.7749 C 77.438 59.0908 77.0391 59.3916 76.6328 59.6729 C 75.7578 60.2817 74.688 60.958 73.5859 60.958 C 71.7891 60.9658 70.0591 59.2119 68.9102 57.9971 C 67.7231 56.7432 66.3359 55.2588 66.0122 53.5049 C 65.7852 52.271 66.5859 51.126 67.3159 50.208 C 67.9878 49.3638 68.75 48.5986 69.5781 47.9067 C 69.563 47.8916 69.5508 47.876 69.5391 47.8569 C 62.0591 54.1807 54.9409 61.1567 48.6289 68.6499 C 48.645 68.665 48.6602 68.6768 48.6758 68.6929 C 49.3589 67.8682 50.1563 67.1138 50.9922 66.4458 L 50.9922 66.4458 ZM 62.7622 70.5166 C 61.8159 70.2549 60.9531 69.6958 60.1719 69.1182 C 60.0469 69.0278 58.5942 67.8999 58.6563 67.8291 C 59.8828 66.5127 61.793 64.3999 63.7891 64.6689 C 65.4771 64.896 67.0161 66.3179 68.1841 67.4658 C 68.2231 67.5049 68.2622 67.5439 68.3008 67.583 C 66.9141 68.939 64.9258 71.1182 62.7622 70.5166 L 62.7622 70.5166 ZM 71.4258 62.4849 C 71.5781 63.7939 70.5698 65.0791 69.7813 66.0249 C 69.6802 66.1499 68.457 67.6138 68.3052 67.4619 C 67.1372 66.2861 65.7031 64.7041 65.4771 62.9971 C 65.207 60.978 67.3481 59.0986 68.6802 57.8569 C 69.832 59.0908 71.2231 60.751 71.4258 62.4849 L 71.4258 62.4849 ZM 62.8359 54.9502 C 64.8398 54.1929 66.6519 55.7861 67.9771 57.1221 C 68.1758 57.3208 68.3628 57.5317 68.5552 57.7388 C 68.6909 57.8877 68.1719 58.2158 68.043 58.3291 C 67.082 59.1499 66.0229 59.958 64.8589 60.4736 C 62.7378 61.415 60.7969 59.8369 59.313 58.4229 C 59.1289 58.2388 58.9448 58.0518 58.7622 57.8682 C 59.9258 56.7197 61.2891 55.5361 62.8359 54.9502 L 62.8359 54.9502 ZM 56.6563 60.3682 C 57.25 59.4971 57.938 58.6611 58.6992 57.9307 C 59.8481 59.083 61.145 60.4268 61.5391 62.0557 C 62.0391 64.1221 59.8828 66.4189 58.5898 67.7939 C 57.375 66.6567 55.9063 65.2822 55.5659 63.583 C 55.3359 62.4268 56.0269 61.2861 56.6563 60.3682 L 56.6563 60.3682 ZM 56.6563 60.3682 L 56.6563 60.3682 Z" stroke="#d3b158" stroke-width="2" fill="none"/>
			<path d="M 73.2148 53.7002 C 73.2271 53.7119 73.2622 53.7432 73.27 53.7549 C 74.6641 52.5752 76.7852 50.6338 78.7729 51.1377 C 80.48 51.5708 81.9141 53.2319 82.9648 54.564 C 82.98 54.5479 83 54.5361 83.0161 54.5249 C 83.0122 54.521 83.0122 54.5166 83.0078 54.5166 C 83.0122 54.5166 83.0122 54.521 83.0161 54.5249 C 83.0313 54.5088 83.0469 54.4971 83.063 54.4849 C 81.9688 53.1299 80.207 50.8569 80.7192 48.9971 C 81.0469 47.8179 82.0508 46.8291 82.9302 46.0361 C 83.082 45.8999 84.4448 44.9229 84.3872 44.79 C 82.8911 45.896 80.4731 47.7349 78.4922 47.1499 C 76.8242 46.6567 75.5659 45.083 74.5229 43.7749 C 74.5078 43.79 74.4922 43.8018 74.4731 43.8179 C 74.5352 43.8999 74.5981 43.9819 74.6602 44.064 C 74.5942 43.9849 74.5313 43.9028 74.4609 43.8247 C 74.4448 43.8369 74.4302 43.8525 74.4102 43.8638 C 75.5 45.2236 77.2192 47.2778 76.7813 49.1528 C 76.355 50.9658 74.5942 52.5479 73.2148 53.7002 L 73.2148 53.7002 ZM 73.2148 53.7002 L 73.2148 53.7002 Z" stroke="#d3b158" stroke-width="2" fill="none"/>
			<path d="M 47.2852 78.3486 C 47.8711 80.3291 46.0269 82.751 44.9258 84.2432 C 44.938 84.2471 44.9839 84.2749 44.9883 84.2817 C 46.0313 82.853 47.5552 80.7388 49.4531 80.5166 C 51.2852 80.3252 53.2729 81.833 54.6211 82.9229 C 54.625 82.9111 54.6563 82.8721 54.668 82.8682 C 53.3198 81.8057 51.5391 80.2861 51.207 78.521 C 50.9531 77.1611 51.9141 75.728 52.6563 74.6807 C 52.7622 74.5317 53.8979 73.2432 53.8052 73.1182 C 53.25 73.7778 52.645 74.4028 52 74.9819 C 51.1758 75.7158 50.0981 76.646 48.9409 76.7319 C 47.7109 76.8208 46.4648 76.083 45.4771 75.4351 C 45.2813 75.3096 44.0469 74.271 43.9141 74.3838 C 45.2231 75.4268 46.793 76.6846 47.2852 78.3486 L 47.2852 78.3486 ZM 47.2852 78.3486 L 47.2852 78.3486 Z" stroke="#d3b158" stroke-width="2" fill="none"/>
			<path d="M 27.7769 99.9819 C 29.52 98.9111 31.918 100.2349 33.4692 101.1338 C 34.9609 102.001 36.6021 103.0127 37.5469 104.4971 C 38.7539 106.3916 37.2622 108.9458 36.3481 110.6846 C 36.3633 110.6929 36.3828 110.7041 36.3979 110.7119 C 38.688 106.7549 40.8589 102.6958 43.27 98.8447 C 44.4688 96.9268 45.793 94.978 47.0981 93.0947 C 47.8711 91.978 48.645 90.8638 49.4448 89.7666 C 49.7891 89.2939 50.1328 88.8208 50.4771 88.3486 C 50.6479 88.1138 50.9883 87.79 51.0229 87.5479 C 50.855 87.6338 50.668 87.9849 50.5352 88.1689 C 50.2422 88.5708 49.9141 88.9458 49.5781 89.3101 C 48.855 90.0908 47.9609 90.9736 46.895 91.2388 C 45.1641 91.6689 43.0469 90.2979 41.6758 89.3838 C 40.2769 88.4541 38.7031 87.3599 37.938 85.8179 C 36.9063 83.7349 38.8911 81.0088 40.0859 79.3877 C 40.0659 79.376 40.0508 79.3638 40.0352 79.3486 C 34.2271 87.3057 28.8633 95.5479 24.2622 104.271 C 24.2813 104.2778 24.3008 104.29 24.3198 104.2979 C 25.1519 102.7236 26.2231 100.9346 27.7769 99.9819 L 27.7769 99.9819 ZM 42.8442 99.4497 C 42.5591 99.9028 42.2378 100.3408 41.8979 100.7588 C 41.1641 101.6689 40.1948 102.8179 38.9492 102.9429 C 37.2109 103.1182 35.2891 102.1182 33.8359 101.2627 C 34.7622 99.6929 36.1289 97.1958 38.1641 97.0249 C 39.8589 96.876 41.6719 97.915 43.063 98.7778 C 43.355 98.8838 42.9531 99.2749 42.8442 99.4497 L 42.8442 99.4497 ZM 45.1948 93.4888 C 45.5898 95.3179 44.1719 97.3208 43.2539 98.79 C 41.8281 97.8999 40.0352 96.6499 39.4258 95.0127 C 38.7231 93.1221 40.3911 90.7778 41.418 89.2979 C 42.832 90.2588 44.8242 91.7158 45.1948 93.4888 L 45.1948 93.4888 ZM 31.8008 91.4268 C 32.0781 90.9819 32.3789 90.5518 32.6992 90.1377 C 33.5229 89.0791 34.5659 87.79 35.8789 87.3408 C 37.7231 86.708 39.9102 88.271 41.3521 89.2627 C 40.4219 90.6338 39.27 92.1528 37.8198 92.9888 C 36.0981 93.9849 33.9302 92.8291 32.4141 91.9229 C 32.2622 91.8291 31.6992 91.583 31.8008 91.4268 L 31.8008 91.4268 ZM 31.7031 91.5791 C 33.1133 92.4697 34.793 93.5479 35.4688 95.1416 C 35.9448 96.2666 35.4531 97.603 35.0313 98.6689 C 34.8008 99.251 34.5352 99.8208 34.2461 100.3721 C 34.1802 100.4971 33.9219 101.1729 33.7769 101.2158 C 33.668 101.2471 33.23 100.8999 33.1211 100.8369 C 32.7539 100.6221 32.3979 100.3721 32.0552 100.1182 C 31.2192 99.5049 30.332 98.7549 29.8979 97.7861 C 29.043 95.853 30.6992 93.1729 31.7031 91.5791 L 31.7031 91.5791 ZM 31.7031 91.5791 L 31.7031 91.5791 Z" stroke="#d3b158" stroke-width="2" fill="none"/>
			<path d="M 120.793 16.7432 C 121.9102 16.501 123.2852 16.2778 124.2891 16.9849 C 125.6758 17.9658 126.395 19.7749 126.9883 21.3057 C 127.5981 22.8799 128.2539 24.7939 127.9141 26.4932 C 127.5122 28.5088 124.8481 29.5249 123.1758 30.2588 C 123.1841 30.2778 123.1909 30.2939 123.1992 30.314 C 125.3521 29.4697 127.4492 28.4819 129.6133 27.6567 C 131.7148 26.8599 133.8711 26.04 135.9609 25.3057 C 138.0898 24.5596 140.3281 23.8408 142.52 23.189 C 143.7109 22.8369 144.8979 22.4658 146.0942 22.1377 C 146.7378 21.9619 147.3828 21.79 148.0269 21.6138 C 148.332 21.5317 148.8633 21.4888 149.0591 21.3057 C 148.875 21.2666 148.5078 21.4229 148.2891 21.4819 C 147.6519 21.6528 146.9922 21.7666 146.3398 21.8369 C 145.1719 21.9619 143.8281 22.0278 142.9063 21.1846 C 141.6719 20.0518 141.0078 18.2388 140.5313 16.6729 C 140.0391 15.0518 139.4219 13.083 140.0078 11.415 C 140.7148 9.4111 143.77 8.5908 145.5898 8.1069 C 145.5859 8.0869 145.582 8.064 145.5781 8.0439 C 136.063 10.6138 126.7422 13.7666 117.707 17.7158 C 117.7148 17.7349 117.7271 17.7549 117.7339 17.7749 C 118.7188 17.3369 119.7378 16.9736 120.793 16.7432 L 120.793 16.7432 ZM 135.25 25.5127 C 134.6909 25.708 134.1089 25.8569 133.5313 25.9819 C 132.3711 26.2236 130.9409 26.478 129.9063 25.7349 C 128.52 24.7388 127.668 22.8721 127.0742 21.3179 C 128.8091 20.6567 131.5161 19.5249 133.207 20.7749 C 134.5508 21.7666 135.293 23.5986 135.8442 25.1221 C 136.0078 25.3877 135.4409 25.4429 135.25 25.5127 L 135.25 25.5127 ZM 140.7271 22.4497 C 139.813 24.021 137.5981 24.6846 135.9839 25.2549 C 135.4141 23.646 134.582 21.0752 135.5269 19.4819 C 136.4731 17.8799 138.7769 17.1768 140.457 16.6768 C 140.9731 18.333 141.6602 20.8447 140.7271 22.4497 L 140.7271 22.4497 ZM 131.605 12.3569 C 132.125 12.1729 132.6563 12.0127 133.1909 11.8838 C 134.5122 11.5747 136.2271 11.1958 137.5229 11.771 C 139.2339 12.5439 139.9219 14.9658 140.4219 16.6099 C 138.7231 17.126 136.2969 17.876 134.5698 17.1138 C 133.0981 16.4819 132.3008 14.521 131.7729 13.1299 C 131.7148 12.9619 131.4302 12.4189 131.605 12.3569 L 131.605 12.3569 ZM 126.0859 16.5127 C 126.4019 14.2197 129.5469 13.0708 131.438 12.4189 C 132 14.0439 132.8521 16.3838 131.9692 18.0278 C 131.1089 19.583 128.9609 20.4819 127.3911 21.1138 C 126.9961 21.2749 127.043 21.2119 126.8872 20.8208 C 126.7661 20.5049 126.6519 20.1929 126.5508 19.8682 C 126.2188 18.8057 125.9302 17.6299 126.0859 16.5127 L 126.0859 16.5127 ZM 126.0859 16.5127 L 126.0859 16.5127 Z" stroke="#d3b158" stroke-width="2" fill="none"/>
			<path d="M 152.6641 15.1929 C 153.855 16.3916 154.395 18.3096 154.75 19.9189 C 154.77 19.915 154.793 19.9111 154.813 19.9067 C 154.832 19.8999 154.8521 19.896 154.8711 19.8916 C 154.48 18.2236 154.0352 15.9229 154.8828 14.3408 C 155.5313 13.1338 157.1841 12.5869 158.4063 12.2432 C 158.582 12.1958 160.2769 11.9067 160.2852 11.7471 C 159.2622 11.9497 158.2231 12.0596 157.1841 12.0869 C 156.0469 12.1138 154.7148 12.0752 153.8589 11.2236 C 152.6519 10.0166 152.2109 8.146 151.8481 6.5361 C 151.8242 6.54 151.8052 6.5439 151.7813 6.5479 C 151.8008 6.6338 151.8159 6.7236 151.8359 6.8096 C 151.813 6.7236 151.793 6.6377 151.77 6.5518 C 151.7461 6.5557 151.7271 6.5596 151.7031 6.564 C 152.0698 8.1729 152.4731 10.0249 151.9219 11.6299 C 151.23 13.6528 148.1802 14.4268 146.3521 14.915 C 146.355 14.9268 146.375 14.9775 146.375 14.9888 C 148.1992 14.4932 151.1372 13.6567 152.6641 15.1929 L 152.6641 15.1929 ZM 152.6641 15.1929 L 152.6641 15.1929 Z" stroke="#d3b158" stroke-width="2" fill="none"/>
			<path d="M 107.6211 30.1689 C 107.6289 30.1807 107.6563 30.2197 107.6602 30.2319 C 109.313 29.3599 111.895 27.9067 113.73 28.9658 C 115.2231 29.8252 116.207 31.6499 116.9258 33.1611 C 116.9341 33.1499 116.9771 33.1299 116.9883 33.126 C 116.2192 31.5557 115.0269 28.9819 115.9341 27.2749 C 116.5078 26.1929 117.6992 25.4429 118.7422 24.8682 C 118.9219 24.7666 120.4692 24.1416 120.4409 23.9849 C 119.563 24.3721 118.6519 24.6929 117.7271 24.9458 C 116.6289 25.2588 115.2461 25.5752 114.188 24.9819 C 112.6602 24.1299 111.7769 22.3057 111.043 20.79 C 110.895 20.9028 111.4302 21.8018 111.52 22.0249 C 111.9492 23.0596 112.3281 24.1929 112.3359 25.3208 C 112.3481 27.6768 109.4409 29.2197 107.6211 30.1689 L 107.6211 30.1689 ZM 107.6211 30.1689 L 107.6211 30.1689 Z" stroke="#d3b158" stroke-width="2" fill="none"/>
			<path d="M 86.6328 37.1416 C 88.2339 37.833 89.3159 39.4619 90.2661 40.8525 C 91.1948 42.2236 92.2891 44.0317 92.2383 45.7388 C 92.1802 47.6958 89.8828 49.2549 88.4492 50.2979 C 88.4609 50.314 88.4731 50.3291 88.4839 50.3486 C 90.375 49.0747 92.1948 47.6846 94.0698 46.3838 C 95.9409 45.0869 97.9102 43.8057 99.8159 42.6182 C 101.7271 41.4307 103.7339 40.2158 105.7192 39.0908 C 106.75 38.5049 107.7891 37.9346 108.8242 37.353 C 109.4609 36.9971 110.105 36.6611 110.75 36.3208 C 111.0313 36.1729 111.5391 36.0127 111.6909 35.7939 C 111.5039 35.7939 111.1802 36.0278 110.9771 36.1338 C 110.4731 36.3999 109.938 36.6182 109.4063 36.8179 C 108.2188 37.2627 106.813 37.7158 105.6289 37.0278 C 104.1758 36.1768 103.1289 34.5596 102.3091 33.126 C 101.48 31.6846 100.4648 29.9229 100.6479 28.1929 C 100.7813 26.9541 101.9102 25.9971 102.832 25.2778 C 103.625 24.6846 104.4771 24.1611 105.355 23.7041 C 105.3481 23.6846 105.3359 23.665 105.332 23.646 C 96.6089 28.2471 88.293 33.478 80.3281 39.29 C 80.3398 39.3057 80.3521 39.3208 80.3628 39.3408 C 81.9302 38.1846 84.5898 36.2588 86.6328 37.1416 L 86.6328 37.1416 ZM 93.9878 44.376 C 92.4448 43.7158 91.23 42.1416 90.3091 40.7861 C 90.1519 40.5596 92.5161 39.376 92.7539 39.2666 C 93.7852 38.7979 95.0391 38.3291 96.1411 38.8252 C 97.6602 39.5049 98.7891 41.1069 99.6563 42.4697 C 99.688 42.5166 99.7148 42.564 99.7461 42.6138 C 98.1992 43.5791 95.8672 45.1807 93.9878 44.376 L 93.9878 44.376 ZM 103.918 38.3208 C 103.7231 40.1958 101.4448 41.5518 99.9961 42.458 C 99.7192 42.6299 99.668 42.314 99.5229 42.064 C 99.3159 41.708 99.125 41.3486 98.9448 40.9819 C 98.4922 40.0557 98.0698 39.04 98.0039 38.001 C 97.8521 35.7388 100.5552 34.1528 102.2661 33.1958 C 103.1172 34.6567 104.0981 36.583 103.918 38.3208 L 103.918 38.3208 ZM 95.4341 29.5708 C 96.4609 29.1846 97.7461 28.7666 98.813 29.2471 C 100.3911 29.9541 101.3911 31.7002 102.2188 33.1377 C 100.668 34.021 98.6992 35.146 96.8521 34.9819 C 95.1719 34.833 93.8672 32.9658 93.0161 31.6846 C 92.875 31.4658 92.7378 31.2432 92.6021 31.021 C 93.4961 30.458 94.4409 29.9458 95.4341 29.5708 L 95.4341 29.5708 ZM 89.9839 32.9849 C 90.7578 32.2549 91.6211 31.626 92.5269 31.0679 C 93.4063 32.478 94.4609 34.1768 94.375 35.8999 C 94.2729 37.958 91.7461 39.5986 90.2271 40.6499 C 89.293 39.2749 88.1519 37.603 88.207 35.876 C 88.2461 34.708 89.188 33.7349 89.9839 32.9849 L 89.9839 32.9849 ZM 89.9839 32.9849 L 89.9839 32.9849 Z" stroke="#d3b158" stroke-width="2" fill="none"/>
			<path d="M 208.4531 4.3838 C 209.1289 5.9619 208.9922 7.8447 208.832 9.5166 C 208.6719 11.1729 208.395 13.7319 206.8911 14.7588 C 205.4258 15.7549 203.2383 15.6138 201.543 15.5479 C 201.543 15.5679 201.5391 15.5869 201.5391 15.6099 C 206.0942 15.958 210.6909 16.1138 215.2031 16.6221 C 217.4341 16.876 219.7661 17.1611 222.0122 17.5361 C 223.1909 17.7319 224.3711 17.9268 225.5508 18.1221 C 226.27 18.2388 226.9839 18.376 227.6992 18.5127 C 228.0122 18.5708 228.5078 18.7666 228.7622 18.6846 C 228.6172 18.5708 228.2148 18.5518 227.9922 18.5088 C 227.5469 18.4229 227.0981 18.2939 226.6641 18.165 C 225.645 17.8682 224.48 17.4819 223.7422 16.6807 C 222.4922 15.3247 222.813 12.7158 223.043 11.0479 C 223.2813 9.3682 223.5659 7.439 224.6641 6.083 C 226.1021 4.314 229.4019 4.8999 231.3442 5.2861 C 231.3481 5.2627 231.3521 5.2432 231.3589 5.2236 C 221.688 3.3721 211.8979 2.251 202.0591 1.876 C 202.0591 1.8999 202.0552 1.9189 202.0552 1.9429 C 204.1021 2.0049 207.5122 2.1958 208.4531 4.3838 L 208.4531 4.3838 ZM 215.1909 16.4067 C 215.188 16.4658 215.1802 16.521 215.1758 16.5791 C 213.457 16.3799 210.8242 16.1929 209.7378 14.6499 C 208.7109 13.1929 208.7969 10.8799 208.9341 9.1729 C 210.7729 9.333 213.7231 9.4971 214.6992 11.3447 C 215.48 12.8208 215.3589 14.7979 215.1909 16.4067 L 215.1909 16.4067 ZM 221.0981 15.833 C 219.7461 17.1846 217.082 16.7939 215.3628 16.5986 C 215.1289 16.5708 215.543 14.8838 215.5981 14.6528 C 215.8242 13.6768 216.1289 12.6499 216.7231 11.8252 C 218.043 9.9932 221.0781 10.5088 223.0122 10.7778 C 222.7661 12.4541 222.332 14.5908 221.0981 15.833 L 221.0981 15.833 ZM 219.9219 3.689 C 220.9019 4.0049 222.0981 4.4429 222.6719 5.3638 C 223.5229 6.7349 223.3091 8.7319 223.0781 10.251 C 223.02 10.6299 223.0938 10.7197 222.7031 10.6567 C 222.1411 10.5708 221.582 10.458 221.0269 10.3179 C 219.9141 10.04 218.6841 9.665 217.7852 8.9111 C 216.438 7.7817 216.582 5.415 216.7148 3.8369 C 216.7461 3.5752 216.7769 3.3179 216.8052 3.0596 C 217.8589 3.1729 218.9141 3.3638 219.9219 3.689 L 219.9219 3.689 ZM 213.5391 2.9619 C 214.5942 2.8721 215.668 2.9229 216.7188 3.0479 C 216.5352 4.6768 216.2969 6.5679 215.2339 7.8838 C 214.4839 8.814 213.145 9.0127 212.0269 9.1138 C 211.7969 9.1377 208.9409 9.2236 208.9531 9.0752 C 209.0781 7.4229 209.2339 5.396 210.3711 4.0947 C 211.1289 3.228 212.457 3.0518 213.5391 2.9619 L 213.5391 2.9619 ZM 213.5391 2.9619 L 213.5391 2.9619 Z" stroke="#d3b158" stroke-width="2" fill="none"/>
			<path d="M 229.0742 11.8208 C 230.8711 12.165 233.6992 12.6138 234.5508 14.478 C 235.2852 16.0747 234.8828 18.2388 234.4961 19.8916 C 234.5161 19.896 234.5352 19.8999 234.5591 19.9067 C 234.5781 19.9111 234.5981 19.915 234.6172 19.9189 C 234.9839 18.2627 235.5552 16.1099 236.9219 14.9932 C 237.9961 14.1182 239.7271 14.333 240.9961 14.521 C 241.1641 14.5479 242.9448 15.0557 243.0161 14.915 C 242.0161 14.6499 241.0229 14.3057 240.0742 13.8877 C 239.0898 13.4458 237.938 12.853 237.5078 11.7939 C 236.8481 10.1768 237.2891 8.2041 237.6641 6.564 C 237.6411 6.5596 237.6211 6.5557 237.6021 6.5518 C 237.5781 6.6377 237.5552 6.7236 237.5352 6.8096 C 237.5508 6.7236 237.5698 6.6377 237.5859 6.5479 C 237.5659 6.5439 237.543 6.54 237.5229 6.5361 C 237.1563 8.146 236.7148 10.0166 235.5078 11.2236 C 234.7109 12.021 233.4961 12.0986 232.4258 12.0908 C 231.3052 12.0791 230.1841 11.9658 229.0859 11.7471 C 229.0859 11.7627 229.082 11.814 229.0742 11.8208 L 229.0742 11.8208 ZM 229.0742 11.8208 L 229.0742 11.8208 Z" stroke="#d3b158" stroke-width="2" fill="none"/>
			<path d="M 187.5742 8.7817 C 189.3589 8.7158 191.9302 8.5679 193.3052 9.9307 C 194.5981 11.2275 194.6602 13.728 194.6479 15.4458 C 194.6641 15.4429 194.707 15.4429 194.7192 15.4458 C 194.707 13.7041 194.7539 10.8799 196.293 9.7319 C 197.2578 9.0127 198.625 8.8486 199.7852 8.7749 C 200.0039 8.7588 201.7622 8.8599 201.8008 8.708 C 199.8633 8.6416 196.645 8.5518 195.5659 6.6221 C 195.0469 5.7002 194.875 4.5869 194.7852 3.5439 C 194.77 3.3721 194.8052 1.7979 194.6948 1.751 C 194.6909 1.7471 194.6089 3.2197 194.5981 3.3721 C 194.52 4.415 194.3589 5.521 193.8828 6.4697 C 192.8481 8.5361 189.5781 8.6377 187.5659 8.708 C 187.5698 8.7236 187.5781 8.7749 187.5742 8.7817 L 187.5742 8.7817 ZM 187.5742 8.7817 L 187.5742 8.7817 Z" stroke="#d3b158" stroke-width="2" fill="none"/>
			<path d="M 164.5859 5.1099 C 166.4492 5.7939 166.9409 8.415 167.1992 10.1416 C 167.4531 11.8569 167.688 13.7349 167.1719 15.4229 C 166.4839 17.6611 163.5313 18.0947 161.543 18.478 C 161.5469 18.4971 161.5508 18.5166 161.5552 18.5361 C 163.8398 18.189 166.105 17.7119 168.3979 17.3916 C 170.6211 17.0791 172.9531 16.771 175.1211 16.5317 C 177.4019 16.2778 179.6948 16.064 181.9839 15.9189 C 183.2578 15.8369 184.5269 15.7349 185.8008 15.6846 C 186.48 15.6567 187.1641 15.6338 187.8481 15.6069 C 188.1211 15.5986 188.5859 15.6567 188.7852 15.5439 C 188.6133 15.4619 188.2231 15.5317 187.9961 15.54 C 187.3359 15.5679 186.6641 15.5249 186.0122 15.4502 C 184.8481 15.314 183.5229 15.083 182.8091 14.0479 C 181.8589 12.6729 181.6172 10.7549 181.5 9.1221 C 181.3872 7.4697 181.2461 5.5127 182.0898 4.0088 C 183.1641 2.0908 186.4141 1.9658 188.3442 1.9028 C 188.3398 1.8799 188.3398 1.8599 188.3442 1.8369 C 178.5122 2.1997 168.6948 3.1768 159.0269 5.0278 C 159.0313 5.0479 159.0352 5.0708 159.0391 5.0908 C 160.793 4.7549 162.8672 4.4819 164.5859 5.1099 L 164.5859 5.1099 ZM 174.3789 16.5557 C 173.7891 16.6221 173.188 16.6416 172.5942 16.6299 C 171.418 16.6069 169.9692 16.5317 169.125 15.5869 C 167.9883 14.3096 167.5781 12.29 167.3481 10.6416 C 169.1841 10.3838 172.0659 9.8877 173.438 11.4736 C 174.5352 12.7349 174.8521 14.7002 175.0391 16.3096 C 175.1411 16.6069 174.582 16.5317 174.3789 16.5557 L 174.3789 16.5557 ZM 181.4302 9.1099 C 181.5591 10.8208 181.6563 13.2778 180.5039 14.6807 C 179.3359 16.126 176.8589 16.271 175.1479 16.4697 C 174.9531 14.7627 174.7578 12.2861 175.895 10.8569 C 177.0859 9.3877 179.6802 9.2197 181.4302 9.1099 L 181.4302 9.1099 ZM 173.77 2.9189 C 174.3159 2.8569 174.8672 2.8179 175.4219 2.8179 C 176.7769 2.8096 178.5313 2.8208 179.6641 3.6729 C 181.1602 4.8057 181.2891 7.3208 181.4102 9.0361 C 179.625 9.1567 176.9409 9.376 175.4731 8.1221 C 174.2891 7.1099 173.9609 5.1689 173.7622 3.708 C 173.7422 3.5317 173.582 2.9429 173.77 2.9189 L 173.77 2.9189 ZM 167.5552 5.5127 C 168.4771 3.5317 171.6841 3.1499 173.5898 2.9429 C 173.77 4.5708 173.9531 6.4697 173.207 7.9888 C 172.6992 9.0249 171.5469 9.4736 170.52 9.8291 C 169.8911 10.0479 169.2461 10.2119 168.5981 10.3486 C 168.4219 10.3838 167.5039 10.6846 167.3442 10.5679 C 167.25 10.4932 167.2461 9.9229 167.23 9.79 C 167.1802 9.3447 167.1411 8.8999 167.1289 8.4502 C 167.0981 7.4775 167.1372 6.415 167.5552 5.5127 L 167.5552 5.5127 ZM 167.5552 5.5127 L 167.5552 5.5127 Z" stroke="#d3b158" stroke-width="2" fill="none"/>
			<path d="M 278.5122 36.2666 C 280.5161 37.4229 282.5898 38.458 284.582 39.6377 C 286.5122 40.7778 288.5269 41.9932 290.3711 43.1528 C 292.3281 44.3838 294.2661 45.6611 296.1641 46.9819 C 297.2661 47.751 298.375 48.5166 299.4609 49.3096 C 299.9341 49.6528 300.4063 49.9971 300.875 50.3408 C 301.1133 50.5127 301.438 50.853 301.6758 50.8877 C 301.5898 50.7119 301.2231 50.5249 301.0352 50.3799 C 300.5938 50.0439 300.1719 49.6846 299.77 49.3018 C 298.9922 48.5596 298.0352 47.5747 297.9341 46.4458 C 297.7769 44.6377 299.0469 42.6958 300.0269 41.271 C 301.0659 39.7627 302.6289 37.4189 304.707 37.521 C 306.5508 37.6099 308.3979 38.8838 309.8359 39.9458 C 309.8481 39.9307 309.8633 39.915 309.875 39.8999 C 301.9141 34.0869 293.6641 28.7549 284.9531 24.1299 C 284.9448 24.1499 284.9341 24.165 284.9258 24.1846 C 286.5 25.0166 288.2891 26.0869 289.2422 27.6416 C 290.313 29.3877 288.9922 31.7817 288.0898 33.333 C 287.2461 34.79 286.2729 36.3408 284.8711 37.3179 C 282.938 38.6611 280.3442 37.165 278.5391 36.2119 C 278.5313 36.2319 278.5229 36.2471 278.5122 36.2666 L 278.5122 36.2666 ZM 295.7339 45.0596 C 293.9102 45.4541 291.9019 44.0361 290.438 43.1221 C 291.3281 41.6929 292.5742 39.8999 294.2148 39.29 C 296.1021 38.5869 298.4448 40.2549 299.9302 41.2817 C 298.9688 42.6958 297.5078 44.689 295.7339 45.0596 L 295.7339 45.0596 ZM 297.7969 31.665 C 298.2661 31.958 298.7188 32.2749 299.1519 32.6182 C 300.1909 33.4346 301.4409 34.4541 301.8872 35.7432 C 302.52 37.5869 300.9531 39.771 299.9609 41.2158 C 298.5938 40.2861 297.0742 39.1338 296.2339 37.6846 C 295.2383 35.9619 296.395 33.7979 297.3008 32.2778 C 297.395 32.126 297.6411 31.564 297.7969 31.665 L 297.7969 31.665 ZM 291.6021 29.7002 C 293.5229 28.9971 296.082 30.5791 297.645 31.5679 C 296.7539 32.9775 295.6758 34.6567 294.082 35.333 C 292.957 35.8096 291.625 35.3179 290.5552 34.896 C 290.355 34.8179 287.9531 33.7349 288.0229 33.6182 C 288.8672 32.165 289.9409 30.3057 291.6021 29.7002 L 291.6021 29.7002 ZM 287.9648 33.6997 C 289.5313 34.6299 292.0269 35.9971 292.2031 38.0278 C 292.3481 39.7236 291.313 41.5361 290.4492 42.9307 C 290.3438 43.2236 289.9492 42.8179 289.7769 42.708 C 289.3198 42.4268 288.8872 42.103 288.4688 41.7666 C 287.5552 41.0317 286.4102 40.0596 286.2852 38.814 C 286.1089 37.0791 287.105 35.1567 287.9648 33.6997 L 287.9648 33.6997 ZM 287.9648 33.6997 L 287.9648 33.6997 Z" stroke="#d3b158" stroke-width="2" fill="none"/>
			<path d="M 304.9409 44.853 C 306.375 45.896 308.4883 47.4189 308.7109 49.3179 C 308.9019 51.1499 307.395 53.1377 306.3052 54.4849 C 306.3198 54.4971 306.3398 54.5088 306.355 54.5249 C 306.3711 54.5361 306.3872 54.5479 306.4019 54.564 C 307.4648 53.2158 308.98 51.4346 310.75 51.103 C 312.105 50.8486 313.543 51.8096 314.5859 52.5518 C 314.7383 52.6567 316.0229 53.7979 316.1519 53.7002 C 314.7891 52.5596 313.145 51.0557 312.6289 49.3018 C 312.0659 47.3916 313.8481 45.2549 314.957 43.8638 C 314.9409 43.8525 314.9219 43.8369 314.9063 43.8247 C 314.8398 43.9028 314.7729 43.9819 314.707 44.0596 C 314.77 43.978 314.832 43.8999 314.895 43.8179 C 314.8789 43.8018 314.8589 43.79 314.8438 43.7749 C 313.8242 45.0557 312.6328 46.5166 311.0469 47.0908 C 309.0229 47.8252 306.52 45.9268 304.9839 44.79 C 304.9771 44.8018 304.9492 44.8486 304.9409 44.853 L 304.9409 44.853 ZM 304.9409 44.853 L 304.9409 44.853 Z" stroke="#d3b158" stroke-width="2" fill="none"/>
			<path d="M 268.9302 23.9849 C 268.9258 23.9971 268.9102 24.0479 268.9019 24.0557 C 270.5391 24.771 272.9219 25.7471 273.5659 27.5708 C 274.1719 29.3057 273.1372 31.583 272.3789 33.126 C 272.395 33.1299 272.4341 33.1499 272.4448 33.1611 C 273.1802 31.6138 274.2622 29.5361 275.9141 28.8247 C 277.1602 28.2939 278.8091 28.8838 279.9731 29.3799 C 280.1411 29.4541 281.645 30.29 281.75 30.1689 C 280.8198 29.6846 279.938 29.1138 279.0981 28.4888 C 278.1089 27.751 277.0942 26.8252 277.0352 25.5127 C 276.9883 24.3799 277.3633 23.2319 277.7813 22.1929 C 277.8672 21.9736 278.4692 20.8999 278.3242 20.79 C 277.6089 22.2749 276.7661 23.9775 275.332 24.896 C 274.3091 25.5439 272.9961 25.3018 271.8911 25.0127 C 270.8789 24.7471 269.8872 24.4067 268.9302 23.9849 L 268.9302 23.9849 ZM 268.9302 23.9849 L 268.9302 23.9849 Z" stroke="#d3b158" stroke-width="2" fill="none"/>
			<path d="M 250.395 11.876 C 250.8672 13.5596 250.2622 15.439 249.7622 17.0518 C 249.2769 18.6138 248.5659 20.4932 247.2729 21.5596 C 245.7109 22.8525 242.9922 22.001 241.2422 21.5278 C 241.2378 21.5439 241.2339 21.564 241.2271 21.583 C 243.4102 22.2666 245.645 22.8096 247.832 23.4819 C 249.9961 24.146 252.25 24.9067 254.3198 25.646 C 256.4839 26.4189 258.6519 27.189 260.7769 28.0596 C 261.9258 28.5278 263.082 28.9888 264.2271 29.4697 C 264.8398 29.728 265.4492 29.9971 266.063 30.2666 C 266.3521 30.3916 266.793 30.6929 267.0591 30.6689 C 266.9409 30.5249 266.5591 30.415 266.3481 30.3247 C 265.8789 30.1182 265.4258 29.8682 264.98 29.6099 C 263.9648 29.0127 262.6948 28.2388 262.3872 27.0166 C 261.957 25.3208 262.6602 23.2939 263.2852 21.7236 C 263.895 20.189 264.6133 18.3799 266.0078 17.3877 C 267.8091 16.1069 270.8091 17.4028 272.582 18.189 C 272.5898 18.1689 272.5981 18.1499 272.6089 18.1338 C 263.5781 14.1807 254.3091 10.8877 244.7891 8.314 C 244.7852 8.333 244.7769 8.353 244.7729 8.376 C 246.645 8.8682 249.7969 9.751 250.395 11.876 L 250.395 11.876 ZM 253.645 25.3447 C 253.25 25.2041 252.8628 25.0317 252.48 24.8599 C 251.5391 24.439 250.5313 23.9346 249.8438 23.1416 C 248.6021 21.7041 249.2578 19.165 249.7031 17.5249 C 249.8242 17.0752 249.7661 16.9229 250.2539 17.0869 C 250.7271 17.2388 251.1948 17.4067 251.6519 17.6025 C 252.7969 18.083 254.2852 18.751 254.8521 19.9458 C 255.6089 21.5596 254.8911 23.8252 254.3481 25.4111 C 254.3091 25.7197 253.8359 25.4111 253.645 25.3447 L 253.645 25.3447 ZM 260.3672 26.0791 C 258.7109 27.2588 256.0859 26.2041 254.375 25.603 C 254.9019 24.0908 255.6328 22.3838 256.8481 21.3018 C 258.5229 19.8096 261.4258 20.9458 263.2231 21.6807 C 262.6172 23.2349 261.7578 25.0869 260.3672 26.0791 L 260.3672 26.0791 ZM 258.9961 12.79 C 259.5161 12.9736 260.0313 13.1807 260.5313 13.4111 C 261.7339 13.9541 263.168 14.708 263.8911 15.8599 C 264.9258 17.5088 263.8872 19.9819 263.2422 21.6069 C 261.5742 20.9307 259.4648 20.0947 258.4409 18.5249 C 257.5313 17.126 258.1802 14.9497 258.6479 13.501 C 258.707 13.333 258.8198 12.7319 258.9961 12.79 L 258.9961 12.79 ZM 252.27 12.4307 C 253.2188 11.6528 254.605 11.771 255.7461 11.9346 C 256.793 12.083 257.8281 12.376 258.8281 12.7319 C 258.2813 14.271 257.6328 16.0439 256.3159 17.0986 C 254.6602 18.4229 251.6992 17.4541 249.8979 16.896 C 250.3828 15.333 250.9648 13.5049 252.27 12.4307 L 252.27 12.4307 ZM 252.27 12.4307 L 252.27 12.4307 Z" stroke="#d3b158" stroke-width="2" fill="none"/>
			<path d="M 348.3789 90.1221 C 347.0122 91.0518 345.2031 92.146 343.4922 92.0947 C 341.5352 92.0361 339.98 89.7388 338.9341 88.3057 C 338.918 88.3179 338.9019 88.3291 338.8872 88.3408 C 340.1519 90.228 341.5391 92.04 342.8359 93.9067 C 344.1411 95.7861 345.4258 97.7588 346.6133 99.6729 C 347.8052 101.583 349.0161 103.5908 350.145 105.5752 C 350.73 106.6069 351.3008 107.646 351.8828 108.6807 C 352.2383 109.3179 352.5742 109.9619 352.9141 110.6069 C 353.063 110.8877 353.2231 111.396 353.4409 111.5479 C 353.4409 111.3599 353.207 111.0361 353.1021 110.833 C 352.8359 110.3291 352.6172 109.7939 352.418 109.2627 C 352 108.1416 351.5352 106.7749 352.1289 105.6299 C 352.918 104.1138 354.6172 103.021 356.063 102.1929 C 357.5229 101.353 359.293 100.3179 361.043 100.5049 C 362.2813 100.6416 363.2339 101.7666 363.9531 102.6846 C 364.5508 103.478 365.0742 104.333 365.5313 105.2119 C 365.5508 105.2002 365.5698 105.1929 365.5898 105.1846 C 360.9883 96.4619 355.7539 88.1499 349.9409 80.1846 C 349.9258 80.1958 349.9102 80.208 349.8911 80.2197 C 351.0469 81.79 352.9731 84.4458 352.0898 86.4888 C 351.3979 88.0908 349.7729 89.1729 348.3789 90.1221 L 348.3789 90.1221 ZM 344.7622 94.0986 C 345.1211 92.9697 346.1021 92.0479 346.9731 91.2979 C 347.3521 90.9736 347.7461 90.665 348.1479 90.3721 C 348.5078 90.1138 348.4883 90.0752 348.75 90.4502 C 349.8198 91.9619 351.3052 94.4658 350.2578 96.2979 C 349.48 97.6567 348.063 98.6807 346.7661 99.5166 C 346.7192 99.5439 346.6719 99.5752 346.6211 99.6069 C 345.6948 98.1182 344.1802 95.9268 344.7622 94.0986 L 344.7622 94.0986 ZM 350.9141 103.7749 C 349.0391 103.5791 347.6802 101.3018 346.7769 99.8569 C 346.605 99.5752 346.9219 99.5249 347.1719 99.3799 C 347.5229 99.1768 347.8872 98.9819 348.25 98.8018 C 349.1802 98.3486 350.1909 97.9268 351.2339 97.8599 C 353.5 97.708 355.0742 100.415 356.0391 102.1221 C 354.5781 102.9697 352.6519 103.958 350.9141 103.7749 L 350.9141 103.7749 ZM 359.6602 95.2861 C 360.0508 96.314 360.4648 97.603 359.9878 98.6689 C 359.2813 100.2471 357.5352 101.2471 356.0981 102.0747 C 355.2109 100.5317 354.0898 98.5518 354.2539 96.708 C 354.3979 95.0278 356.27 93.7197 357.5469 92.8721 C 357.77 92.7319 357.9883 92.5947 358.2109 92.4541 C 358.7769 93.3486 359.2852 94.2979 359.6602 95.2861 L 359.6602 95.2861 ZM 353.355 88.064 C 354.5229 88.103 355.4961 89.04 356.25 89.8408 C 356.9771 90.6138 357.605 91.478 358.1641 92.3799 C 356.7578 93.2627 355.0591 94.3179 353.332 94.2319 C 351.2729 94.1299 349.6328 91.603 348.5859 90.083 C 349.957 89.1499 351.6289 88.0088 353.355 88.064 L 353.355 88.064 ZM 353.355 88.064 L 353.355 88.064 Z" stroke="#d3b158" stroke-width="2" fill="none"/>
			<path d="M 363.3589 112.1528 C 362.1479 111.9619 361.2622 110.8486 360.5942 109.915 C 360.0229 109.146 359.5122 108.3247 359.0659 107.4736 C 359.0552 107.4849 359.0161 107.5127 359.0039 107.5127 C 359.8711 109.1611 361.3281 111.7549 360.27 113.5869 C 359.4102 115.0791 357.5859 116.064 356.0781 116.7817 C 356.0859 116.7979 356.0942 116.8179 356.105 116.8369 C 356.1133 116.8569 356.125 116.8721 356.1328 116.8916 C 357.7031 116.1221 360.2769 114.9307 361.9839 115.8369 C 363.0659 116.415 363.8159 117.6069 364.3911 118.646 C 364.4922 118.8291 365.1211 120.3721 365.2729 120.3447 C 364.8872 119.4658 364.5659 118.5557 364.313 117.6299 C 364.0039 116.5317 363.6841 115.1528 364.2769 114.0908 C 365.1328 112.5679 366.957 111.6807 368.4731 110.9497 C 368.4648 110.9307 368.4531 110.9111 368.4448 110.8916 C 368.3521 110.9346 368.2578 110.978 368.1641 111.0166 C 368.2539 110.9697 368.3481 110.9268 368.438 110.8799 C 368.4302 110.8599 368.418 110.8408 368.4102 110.8208 C 366.895 111.5518 365.082 112.4189 363.3589 112.1528 L 363.3589 112.1528 ZM 363.3589 112.1528 L 363.3589 112.1528 Z" stroke="#d3b158" stroke-width="2" fill="none"/>
			<path d="M 340.4302 76.7319 C 339.3281 76.6499 338.3052 75.7979 337.5122 75.1069 C 336.813 74.4971 336.1602 73.8291 335.5659 73.1182 C 335.5552 73.1299 335.5229 73.165 335.5122 73.1689 C 336.6909 74.564 338.6328 76.689 338.1289 78.6729 C 337.6948 80.3799 336.0352 81.8179 334.7031 82.8682 C 334.7148 82.8721 334.7422 82.9111 334.7461 82.9229 C 336.1021 81.8252 338.375 80.0679 340.2339 80.5791 C 341.4141 80.9028 342.4019 81.9067 343.1948 82.79 C 343.332 82.9429 344.3091 84.3018 344.4409 84.2432 C 343.3398 82.751 341.4961 80.3291 342.082 78.3486 C 342.5742 76.6846 344.1479 75.4268 345.457 74.3838 C 345.3198 74.271 344.2422 75.2002 344.0552 75.3291 C 343.0269 76.021 341.7148 76.8247 340.4302 76.7319 L 340.4302 76.7319 ZM 340.4302 76.7319 L 340.4302 76.7319 Z" stroke="#d3b158" stroke-width="2" fill="none"/>
			<path d="M 311.6411 58.9268 C 315.0552 61.9429 318.5122 65.021 321.6758 68.2549 C 323.2422 69.853 324.8359 71.5439 326.3828 73.2041 C 327.145 74.021 327.8872 74.853 328.6289 75.689 C 329.1328 76.2549 329.645 76.8179 330.1411 77.3916 C 330.3711 77.6567 330.6992 78.228 330.98 78.3369 C 330.938 78.1567 330.6411 77.8916 330.4922 77.7158 C 330.1719 77.3369 329.875 76.939 329.5942 76.5317 C 328.9839 75.6567 328.3091 74.5869 328.3052 73.4849 C 328.3008 71.665 330.0981 69.9067 331.332 68.7471 C 332.5698 67.5869 334.0352 66.2319 335.7622 65.9111 C 336.9961 65.6807 338.1411 66.4888 339.0591 67.2158 C 339.9019 67.8916 340.668 68.6528 341.3589 69.478 C 341.375 69.4658 341.3911 69.4502 341.4102 69.439 C 338.2422 65.6958 334.8789 62.1338 331.4531 58.626 C 328.0229 55.1138 324.3911 51.6729 320.6211 48.5249 C 320.605 48.54 320.5942 48.5557 320.5781 48.5752 C 321.4019 49.2549 322.1563 50.0557 322.8242 50.8916 C 323.5161 51.7588 324.2813 52.8525 324.1328 54.021 C 323.9141 55.7471 322.5352 57.2388 321.3911 58.458 C 320.2891 59.6338 318.98 60.8916 317.438 61.439 C 315.3198 62.1929 313.1641 60.1499 311.6841 58.8838 C 311.668 58.896 311.6563 58.9111 311.6411 58.9268 L 311.6411 58.9268 ZM 326.7813 71.3252 C 325.4731 71.478 324.188 70.4658 323.2422 69.6807 C 323.1172 69.5752 321.6519 68.3569 321.8052 68.2041 C 322.98 67.0361 324.5659 65.6025 326.27 65.376 C 328.293 65.1069 330.168 67.2471 331.4102 68.5791 C 330.1758 69.7319 328.5161 71.1221 326.7813 71.3252 L 326.7813 71.3252 ZM 334.3159 62.7388 C 335.0742 64.7388 333.48 66.5518 332.145 67.8799 C 331.9448 68.0752 331.7339 68.2627 331.5269 68.4541 C 331.3789 68.5908 331.0508 68.0708 330.9409 67.9429 C 330.1172 66.9819 329.3091 65.9229 328.793 64.7588 C 327.855 62.6377 329.4341 60.6958 330.8438 59.2119 C 331.0313 59.0278 331.2148 58.8447 331.3979 58.6611 C 332.5508 59.8252 333.73 61.189 334.3159 62.7388 L 334.3159 62.7388 ZM 325.6841 55.4658 C 326.8442 55.2349 327.9839 55.9268 328.8979 56.5557 C 329.77 57.1499 330.605 57.8369 331.3398 58.5986 C 330.1841 59.7471 328.8442 61.0439 327.2109 61.439 C 325.145 61.939 322.8481 59.7817 321.4771 58.4888 C 322.6089 57.271 323.9839 55.8057 325.6841 55.4658 L 325.6841 55.4658 ZM 318.75 62.6611 C 319.0122 61.7158 319.5698 60.853 320.1479 60.0679 C 320.2422 59.9429 321.3672 58.4888 321.438 58.5557 C 322.7539 59.7817 324.8711 61.6929 324.6021 63.689 C 324.3711 65.3721 322.9492 66.915 321.8008 68.0791 C 321.7622 68.1182 321.7231 68.1567 321.6802 68.2002 C 320.3281 66.8096 318.1479 64.8208 318.75 62.6611 L 318.75 62.6611 ZM 318.75 62.6611 L 318.75 62.6611 Z" stroke="#d3b158" stroke-width="2" fill="none"/>
			<path d="M 373.8198 167.0249 C 371.582 166.3408 371.1479 163.3838 370.77 161.396 C 370.75 161.3999 370.7271 161.4028 370.707 161.4067 C 371.395 165.9229 372.2192 170.4541 372.73 174.9697 C 372.9839 177.2041 373.1841 179.5479 373.3281 181.8208 C 373.4019 183.0088 373.4922 184.1929 373.5508 185.376 C 373.5859 186.1069 373.605 186.833 373.6328 187.5601 C 373.645 187.8799 373.5698 188.4067 373.707 188.6377 C 373.7852 188.4697 373.7148 188.0747 373.707 187.8486 C 373.6802 187.189 373.7231 186.521 373.7969 185.8638 C 373.938 184.6997 374.1641 183.376 375.1948 182.6611 C 376.5742 181.7119 378.4922 181.4697 380.125 181.3569 C 381.7852 181.2388 383.7339 181.0947 385.2339 181.9429 C 387.1563 183.021 387.2813 186.2627 387.3481 188.1958 C 387.3672 188.1929 387.3872 188.1929 387.4102 188.1958 C 387.0469 178.3638 386.0659 168.5479 384.2148 158.8799 C 384.1948 158.8838 384.1719 158.8877 384.1519 158.8916 C 384.4839 160.646 384.7622 162.7197 384.1328 164.439 C 383.4492 166.3018 380.832 166.7939 379.105 167.0479 C 377.3872 167.3057 375.5122 167.5439 373.8198 167.0249 L 373.8198 167.0249 ZM 372.688 174.2319 C 372.6211 173.6416 372.605 173.04 372.6133 172.4497 C 372.6372 171.271 372.7109 169.8208 373.6563 168.9819 C 374.9341 167.8408 376.9531 167.4307 378.605 167.1997 C 378.8589 169.0361 379.3589 171.915 377.7729 173.29 C 376.5078 174.3877 374.543 174.6997 372.9341 174.896 C 372.6411 174.9971 372.7109 174.4351 372.688 174.2319 L 372.688 174.2319 ZM 374.5659 180.3569 C 373.1211 179.1929 372.9731 176.7119 372.7769 175.001 C 374.4839 174.8057 376.957 174.6138 378.3911 175.7471 C 379.855 176.939 380.0229 179.5361 380.1372 181.2817 C 378.4258 181.4111 375.9692 181.5088 374.5659 180.3569 L 374.5659 180.3569 ZM 386.4302 175.2749 C 386.438 176.626 386.4258 178.3799 385.5742 179.5166 C 384.4409 181.0127 381.9219 181.1416 380.2109 181.2627 C 380.0898 179.478 379.8672 176.7939 381.125 175.3208 C 382.1372 174.1377 384.0781 173.814 385.5352 173.6138 C 385.7109 173.5947 386.3052 173.4351 386.3242 173.6177 C 386.3872 174.1689 386.4258 174.7197 386.4302 175.2749 L 386.4302 175.2749 ZM 380.793 166.978 C 381.77 166.9458 382.832 166.9849 383.73 167.4028 C 385.7109 168.3247 386.0981 171.5317 386.3052 173.4429 C 384.6758 173.6177 382.7769 173.8018 381.2578 173.0601 C 380.2231 172.5518 379.77 171.3999 379.4141 170.3721 C 379.1992 169.7432 379.0313 169.0986 378.8979 168.4497 C 378.8589 168.2749 378.563 167.3569 378.6802 167.1958 C 378.75 167.103 379.3198 167.0986 379.4531 167.083 C 379.8979 167.0278 380.3438 166.9932 380.793 166.978 L 380.793 166.978 ZM 380.793 166.978 L 380.793 166.978 Z" stroke="#d3b158" stroke-width="2" fill="none"/>
			<path d="M 387.5 194.5557 C 387.5 194.5361 387.5 194.5127 387.5 194.4932 C 385.8438 194.4932 383.9258 194.478 382.4771 193.5679 C 381.5229 192.9658 381.1641 191.7979 380.9409 190.7549 C 380.707 189.6611 380.5781 188.5361 380.5391 187.4189 C 380.5269 187.4229 380.4731 187.4307 380.4648 187.4268 C 380.5313 189.2119 380.6841 191.7817 379.3198 193.1567 C 378.0229 194.4541 375.5229 194.5127 373.8008 194.501 C 373.8008 194.5249 373.8008 194.5439 373.8008 194.564 C 373.8008 194.583 373.8008 194.6069 373.8008 194.626 C 375.543 194.6138 378.3672 194.6611 379.5161 196.1997 C 380.2339 197.165 380.4019 198.5317 380.4771 199.6929 C 380.4883 199.9111 380.3872 201.6689 380.5391 201.708 C 380.5742 200.6689 380.6948 199.6299 380.895 198.6099 C 381.1089 197.4971 381.457 196.2041 382.4771 195.5601 C 383.9258 194.6528 385.8438 194.6338 387.5 194.6377 C 387.5 194.6138 387.5 194.5947 387.5 194.5708 C 387.4102 194.5679 387.3198 194.5679 387.23 194.564 C 387.3198 194.5601 387.4102 194.5601 387.5 194.5557 L 387.5 194.5557 ZM 387.5 194.5557 L 387.5 194.5557 Z" stroke="#d3b158" stroke-width="2" fill="none"/>
			<path d="M 377.625 151.8291 C 375.6021 151.1377 374.8281 148.0869 374.3398 146.2588 C 374.3281 146.2627 374.2769 146.2817 374.27 146.2817 C 374.7271 147.9736 375.2813 150.0601 374.6089 151.7588 C 373.8828 153.5908 371.0469 154.2778 369.3359 154.6567 C 369.3398 154.665 369.3521 154.7158 369.3521 154.728 C 371.02 154.3369 373.3159 153.8877 374.9019 154.7388 C 376.1089 155.3838 376.6563 157.0361 377 158.2588 C 377.0469 158.4351 377.3359 160.1299 377.4961 160.1377 C 377.105 158.1729 376.5039 154.939 378.2769 153.4819 C 379.1411 152.771 380.2461 152.3599 381.3052 152.0479 C 381.5313 151.978 382.6909 151.7979 382.688 151.6138 C 381.082 151.978 379.23 152.3799 377.625 151.8291 L 377.625 151.8291 ZM 377.625 151.8291 L 377.625 151.8291 Z" stroke="#d3b158" stroke-width="2" fill="none"/>
			<path d="M 372.2729 124.1929 C 371.293 125.583 369.4839 126.3018 367.9492 126.896 C 366.3789 127.501 364.4648 128.1567 362.7661 127.8179 C 360.75 127.415 359.7339 124.7549 359 123.0791 C 358.9839 123.0869 358.9648 123.0947 358.9448 123.103 C 359.8008 125.2778 360.7969 127.4028 361.6289 129.5908 C 362.4141 131.6611 363.2271 133.8408 363.9341 135.8721 C 364.6948 138.0557 365.4219 140.2549 366.082 142.4736 C 366.4648 143.7627 366.8521 145.0518 367.207 146.3486 C 367.3589 146.9111 367.5161 147.4736 367.668 148.0361 C 367.7422 148.3179 367.7852 148.7861 367.9492 148.9619 C 367.9883 148.7817 367.832 148.4111 367.7729 148.1929 C 367.6021 147.5601 367.4922 146.896 367.418 146.2427 C 367.293 145.0791 367.2271 143.7319 368.0742 142.8096 C 369.2031 141.5791 371.02 140.9111 372.582 140.4346 C 374.1948 139.9458 376.1758 139.3291 377.8398 139.915 C 379.8438 140.6182 380.668 143.6768 381.1519 145.4971 C 381.1719 145.4927 381.1909 145.4888 381.2109 145.4849 C 378.645 135.9697 375.4922 126.646 371.543 117.6138 C 371.5229 117.6221 371.5039 117.6299 371.4839 117.6377 C 371.9219 118.626 372.2852 119.6416 372.5161 120.6958 C 372.7622 121.8179 372.98 123.1929 372.2729 124.1929 L 372.2729 124.1929 ZM 363.7461 135.1528 C 363.5508 134.5947 363.3979 134.0166 363.2769 133.4346 C 363.0313 132.2749 362.7813 130.8447 363.5229 129.8096 C 364.52 128.4229 366.3872 127.5752 367.9409 126.978 C 368.6021 128.7119 369.73 131.4189 368.4839 133.1138 C 367.4922 134.4541 365.6563 135.2002 364.1328 135.7432 C 363.8672 135.9067 363.813 135.3486 363.7461 135.1528 L 363.7461 135.1528 ZM 366.8052 140.6299 C 365.2378 139.7158 364.5742 137.501 364.0039 135.8877 C 365.6128 135.3179 368.1802 134.4849 369.7769 135.4307 C 371.3789 136.3799 372.0781 138.6846 372.5781 140.3638 C 370.9219 140.876 368.4141 141.5679 366.8052 140.6299 L 366.8052 140.6299 ZM 376.8979 131.5127 C 377.082 132.0317 377.2461 132.564 377.3711 133.0986 C 377.6841 134.4189 378.063 136.1338 377.4839 137.4307 C 376.7109 139.1377 374.293 139.8291 372.645 140.3291 C 372.1289 138.6299 371.3789 136.2002 372.145 134.4736 C 372.7729 133.0049 374.7383 132.208 376.1289 131.6807 C 376.2969 131.6221 376.8398 131.3369 376.8979 131.5127 L 376.8979 131.5127 ZM 376.8398 131.3408 C 375.2109 131.9067 372.875 132.7588 371.23 131.876 C 369.6719 131.0127 368.7769 128.8682 368.145 127.2979 C 367.9839 126.9028 368.0469 126.9458 368.438 126.7939 C 368.7539 126.6729 369.0659 126.5596 369.3872 126.458 C 370.4531 126.126 371.6289 125.8369 372.7461 125.9932 C 375.0391 126.3096 376.188 129.4541 376.8398 131.3408 L 376.8398 131.3408 ZM 376.8398 131.3408 L 376.8398 131.3408 Z" stroke="#d3b158" stroke-width="2" fill="none"/>
		</g>
		<path id="Ellipse" d="M 15 194.5 C 15 95.3636 95.3638 15 194.5 15 C 293.6365 15 374 95.3636 374 194.5 C 374 293.6364 293.6365 374 194.5 374 C 95.3638 374 15 293.6364 15 194.5 Z" stroke="#d3b158" stroke-width="3" fill="none"/>
	</g>
</svg>