<?xml version="1.0" standalone="no"?>
<!-- Generator: Adobe Fireworks 10, Export SVG Extension by Aaron Beall (http://fireworks.abeall.com) . Version: 0.6.0  -->
<!DOCTYPE svg PUBLIC "-//W3C//DTD SVG 1.1//EN" "http://www.w3.org/Graphics/SVG/1.1/DTD/svg11.dtd">
<svg id="game_version" viewBox="0 0 110 124" style="background-color:#ffffff00" version="1.1"
	xmlns="http://www.w3.org/2000/svg" xmlns:xlink="http://www.w3.org/1999/xlink" xml:space="preserve"
	x="0px" y="0px" width="110px" height="124px"
>
	<g id="Layer%201">
		<path d="M 74.1561 18.578 C 72.7377 16.7806 69.5737 15.0486 66.5417 17.1025 C 67.0175 21.7713 74.4016 19.9622 74.1561 18.578 ZM 92.5476 49.4193 C 90.9977 47.3928 92.4531 43.8864 92.6313 42.8239 C 92.7695 47.4158 96.9819 50.6546 96.9819 50.6546 C 97.5229 49.2025 95.1862 45.9073 98.3552 42.3011 C 97.4102 45.6461 98.512 50.6143 99.1477 50.1846 C 100.0005 49.6083 99.88 45.1361 99.88 45.1361 C 101.4144 47.4108 99.6741 52.4369 100.5522 51.3466 C 101.4305 50.2563 101.8167 47.8842 101.8167 47.8842 C 102.8568 50.1618 101.0294 54.998 101.0294 54.998 C 101.0294 54.998 100.1124 55.5248 102.025 54.4496 C 103.9375 53.3743 104.3403 50.1527 104.3403 50.1527 C 105.188 52.4673 103.0415 57.6124 103.0415 57.6124 C 103.0415 57.6124 102.4109 58.3801 104.5251 57.6033 C 106.6393 56.8267 107.5226 52.8456 107.5226 52.8456 C 108.411 56.0949 105.2518 59.9686 105.2518 59.9686 C 105.2518 59.9686 102.9904 62.4592 105.6055 61.965 C 108.2205 61.4708 109.2657 58.3737 109.2657 58.3737 C 109.6069 61.9619 105.9121 65.7318 105.9121 65.7318 C 105.9121 65.7318 103.5422 68.7822 105.9012 68.8439 C 108.2601 68.9056 109.847 65.308 109.847 65.308 C 110.0677 69.0088 105.7197 72.0712 105.7197 72.0712 C 105.7197 72.0712 102.6991 74.4024 105.3081 74.9573 C 107.9171 75.5125 110 72.1593 110 72.1593 C 109.7738 75.8723 104.417 78.7887 104.417 78.7887 C 104.417 78.7887 100.5328 81.4963 103.3231 82.1358 C 106.1132 82.7754 109.1298 79.702 109.1298 79.702 C 107.9896 83.2874 102.0864 85.4552 102.0864 85.4552 C 102.0864 85.4552 96.9711 87.3804 100.5643 88.7194 C 104.1572 90.0582 106.9185 87.2814 106.9185 87.2814 C 105.304 91.022 98.5581 92.1863 98.5581 92.1863 C 98.5581 92.1863 93.5309 92.8928 96.663 95.0815 C 99.7948 97.2702 103.5095 94.9254 103.5095 94.9254 C 101.7031 98.3815 94.2837 98.1796 94.2837 98.1796 C 94.2837 98.1796 88.9512 98.6785 91.9878 100.8488 C 95.0244 103.0191 99.184 101.9468 99.184 101.9468 C 96.2137 104.7819 89.0652 103.6932 89.0652 103.6932 C 89.0652 103.6932 83.4612 103.2993 86.0552 106.2242 C 88.649 109.149 93.573 108.7191 93.573 108.7191 C 89.8754 110.7213 82.7596 108.6997 82.7596 108.6997 C 82.7596 108.6997 77.9961 107.2823 79.7731 110.3454 C 81.5498 113.4084 86.7003 114.3571 86.7003 114.3571 C 82.7363 114.6764 76.3027 112.1938 76.3027 112.1938 C 76.3027 112.1938 71.9452 110.2125 72.6021 113.7012 C 73.259 117.1899 79.1648 118.8287 79.1648 118.8287 C 75.0593 119.3677 68.3579 114.955 68.3579 114.955 C 68.3579 114.955 62.5944 111.5641 64.1692 115.9227 C 65.7441 120.2813 69.8837 122.3687 69.8837 122.3687 C 64.0637 120.796 59.7781 116.4065 59.7781 116.4065 C 59.7781 116.4065 55.58 112.3304 55.3274 116.4337 C 55.0748 120.537 59.9352 124 59.9352 124 C 53.2109 122.252 50.6464 116.1198 50.6464 116.1198 C 50.6464 116.1198 46.5784 109.8445 45.9612 115.0636 C 45.344 120.2826 49.3754 123.4366 49.3754 123.4366 C 42.9672 122.0958 40.9031 113.6385 40.9031 113.6385 C 40.9031 113.6385 38.0872 106.7655 36.2692 111.5541 C 34.451 116.3427 38.4618 120.8767 38.4618 120.8767 C 32.5077 117.4491 31.4327 108.9857 31.4327 108.9857 C 31.4327 108.9857 29.6757 100.9831 27.4214 105.9838 C 25.1671 110.9845 28.1625 115.9149 28.1625 115.9149 C 21.9684 110.4141 23.005 102.0139 23.005 102.0139 C 23.005 102.0139 22.5027 93.9085 19.6438 97.9516 C 16.785 101.9948 18.5046 108.4082 18.5046 108.4082 C 13.8989 101.213 16.3062 93.0043 16.3062 93.0043 C 16.3062 93.0043 18.626 84.4819 14.1708 88.7348 C 9.7153 92.9875 10.4054 98.979 10.4054 98.979 C 7.8939 91.2999 11.8562 83.0959 11.8562 83.0959 C 11.8562 83.0959 14.7675 75.7263 10.5414 77.6508 C 6.3156 79.5753 4.2333 87.254 4.2333 87.254 C 2.8302 78.8258 9.6509 71.5463 9.6509 71.5463 C 9.6509 71.5463 15.5518 65.5717 9.5662 66.6361 C 3.5804 67.7006 0.5082 74.3718 0.5082 74.3718 C 1.3563 65.416 10.2979 59.808 10.2979 59.808 C 10.2979 59.808 17.9303 54.8364 11.4385 54.6906 C 4.9468 54.5447 0 60.1852 0 60.1852 C 2.9071 52.0734 13.4834 47.9686 13.4834 47.9686 C 13.4834 47.9686 22.7626 44.0574 15.7389 43.2153 C 8.7155 42.3732 2.6571 45.7223 2.6571 45.7223 C 7.1533 38.5856 19.2715 37.2266 19.2715 37.2266 C 19.2715 37.2266 29.8402 34.3068 23.2963 32.5197 C 16.7524 30.7325 8.9998 32.1219 8.9998 32.1219 C 15.4386 27.9569 29.2566 27.0013 29.2566 27.0013 C 29.2566 27.0013 43.3188 26.3157 35.9077 22.5067 C 28.4966 18.6978 19.7738 20.1216 19.7738 20.1216 C 27.105 15.1297 45.8113 18.0492 45.8113 18.0492 L 41.911 14.4758 C 47.0662 15.4006 55.8815 12.7342 55.8815 12.7342 C 48.0701 3.7315 30.4479 5.5811 30.4479 5.5811 C 44.1674 -0.2132 61.1766 10.6461 61.1766 10.6461 C 55.5419 4.8088 55.9806 0 55.9806 0 C 58.3822 9.2643 81.358 17.3746 81.358 17.3746 C 83.0841 23.2455 90.0798 25.8864 94.701 25.7439 C 99.3224 25.6014 97.8556 28.5797 97.8556 28.5797 C 94.9025 31.0722 86.8413 33.4151 86.8413 33.4151 C 83.8204 30.6547 74.4398 30.1221 62.115 30.2547 C 42.6465 28.5087 24.041 41.4135 19.438 61.5793 C 15.7992 79.0651 24.7693 102.85 50.4615 108.6692 C 74.7358 112.6318 92.3042 97.9443 97.0778 77.663 C 98.7836 68.1331 98.6443 60.3112 92.5476 49.4193 ZM 92.6278 42.5444 C 92.6559 42.592 92.6543 42.6878 92.6313 42.8239 C 92.6287 42.7312 92.6272 42.6382 92.6278 42.5444 Z" fill="#d3b158"/>
	</g>
</svg>