<?xml version="1.0" standalone="no"?>
<!-- Generator: Adobe Fireworks 10, Export SVG Extension by Aaron Beall (http://fireworks.abeall.com) . Version: 0.6.0  -->
<!DOCTYPE svg PUBLIC "-//W3C//DTD SVG 1.1//EN" "http://www.w3.org/Graphics/SVG/1.1/DTD/svg11.dtd">
<svg id="logo_alert4" viewBox="0 0 110 128" style="background-color:#ffffff00" version="1.1"
	xmlns="http://www.w3.org/2000/svg" xmlns:xlink="http://www.w3.org/1999/xlink" xml:space="preserve"
	x="0px" y="0px" width="110px" height="128px"
>
	<path d="M 47.3528 20.4036 C 49.0742 18.9216 52.4839 17.8328 55.0493 20.4036 C 53.7036 24.8579 46.8521 21.7043 47.3528 20.4036 ZM 16.0942 59.0081 C 15.4956 60.5088 14.9888 62.0576 14.5781 63.6438 C 15.4094 57.792 16.8711 56.1323 16.8711 56.1323 L 17.0942 55.6299 C 18.7402 50.8103 21.2153 46.5129 24.7 43.0024 C 24.9048 42.6443 25.0806 42.3052 25.2168 41.9861 C 26.4116 39.1929 30.9243 36.6663 30.9243 36.6663 C 23.4915 34.937 19.6428 40.3901 17.6519 39.0603 C 15.6611 37.7302 18.3159 35.4692 18.3159 35.4692 C 13.2725 36.5332 8.627 44.2466 8.7593 46.5076 C 8.8923 48.7686 6.6362 58.0784 3.6782 62.866 C 0.7207 67.6541 2.1235 78.8252 2.1235 78.8252 C 0.53 78.4316 0 77.8943 0 77.8943 C 0.0708 81.2307 1.7163 84.6099 3.2354 87.0352 C 4.8921 89.6814 6.3398 92.4497 7.6392 95.2893 C 9.7683 99.9417 12.7119 104.2769 16.1982 107.9414 C 20.656 112.6501 26.4805 116.7463 33.2271 119.4214 C 33.6494 119.5864 35.3523 120.2112 35.7822 120.3579 C 34.7529 120.9063 33.7778 121.2173 33.7778 121.2173 C 35.6748 121.6096 37.3706 121.6819 38.8145 121.5923 C 39.4404 121.5537 40.0674 121.5959 40.6802 121.7292 C 41.373 121.8804 42.2004 122.0591 42.5015 122.1174 L 43.7083 122.3164 C 43.1497 123.8855 42.2383 125.1074 42.2383 125.1074 C 44.0322 125.4668 46.1274 124.6931 47.8896 123.7341 C 48.8862 123.1917 50.0078 122.9211 51.1418 122.9377 L 51.9658 122.9419 C 51.8032 125.4084 49.9277 128 49.9277 128 C 53.4565 127.8447 56.4531 125.699 58.519 123.6719 C 59.4321 122.7761 60.5723 122.1482 61.8223 121.8828 L 61.9141 121.8635 C 61.9834 124.489 60.6538 127.6008 60.6538 127.6008 C 63.1797 126.6899 64.6543 125.3162 65.5852 123.8457 C 67.0239 121.5715 69.1602 119.8259 71.627 118.7578 L 71.646 118.75 C 72.5068 121.8616 71.1055 125.0078 71.1055 125.0078 C 75.3669 124.0176 77.5195 119.4956 78.5403 116.2046 C 78.8062 115.3474 80.9282 113.4929 81.6665 112.9844 L 81.7178 112.9492 C 82.5159 115.4919 82.6416 120.2073 82.6416 120.2073 C 86.0264 118.0129 86.2253 115.8184 87.2207 111.5254 L 87.2319 111.4773 C 87.7607 109.2046 89.1396 106.1621 89.2864 105.9985 C 91.6743 108.0547 91.8101 112.0408 91.8101 112.0408 C 94.9185 108.1838 94 103.1714 93.3237 100.853 C 93.355 100.8079 93.3955 100.7495 93.4521 100.6895 C 96.9224 97.0073 101.3198 102.5647 101.3198 102.5647 C 101.8906 99.6001 100.7061 96.7568 99.7063 94.9966 C 98.9116 93.5972 98.9966 91.8491 99.9604 90.5608 C 100.1494 90.3081 100.3267 90.1318 100.4702 90.0967 C 104.5513 89.0994 106.2437 92.7898 106.2437 92.7898 C 107.5376 88.4009 105.0491 85.6082 104.1533 82.8152 C 103.2573 80.022 103.9541 76.4314 103.9541 76.4314 C 107.1396 76.3315 109.7275 79.5237 109.7275 79.5237 C 111.1206 74.636 106.8406 70.2471 104.3523 68.7512 C 101.8638 67.2549 102.2622 62.0681 102.2622 62.0681 C 105.3481 61.7688 107.8359 63.1655 107.8359 63.1655 C 106.7415 54.9861 97.7827 51.7942 97.7827 51.7942 C 101.3662 50.0989 106.6421 52.4924 106.6421 52.4924 C 104.5513 45.6104 94.4978 44.8123 94.4978 44.8123 L 93.7012 42.6509 C 96.7544 40.124 101.3989 42.6509 101.3989 42.6509 C 99.9395 38.395 95.6924 36.5332 91.1797 36.2673 C 86.6675 36.0012 85.4727 32.4104 85.4727 32.4104 L 92.8872 31.8782 C 88.8872 27.6226 75.1201 25.2288 75.1201 25.2288 L 79.6328 22.5686 C 75.1201 22.7017 66.2095 18.29 66.2095 18.29 C 72.6465 11.9595 85.3198 8.5425 89.2666 2.8616 C 89.2666 2.8616 66.1772 15.4746 60.876 15.4604 C 65.0298 12.29 72.9795 7.9084 75.8235 0 C 69.9619 7.5881 59.3896 13.6763 51.3779 15.9268 L 40.772 17.7114 L 37.834 21.8489 C 35.0498 24.0022 29.332 24.1958 24.6006 23.3728 C 23.2964 23.1458 22.1516 24.2698 22.334 25.5833 C 24.9016 28.5771 25.5684 33.9399 29.5752 35.0002 C 28.1626 33.3435 27.4429 31.3394 27.2817 29.2295 L 32.1602 32.5466 C 32.2822 32.2993 29.9976 27.8599 30.1836 27.7971 C 32.4309 28.8958 35.1206 30.2769 37.3674 31.3755 L 36.5898 28.207 C 36.4128 27.3789 37.2358 26.9929 38.1379 26.6907 C 39.6157 26.196 41.7173 26.8054 43.1396 27.1931 C 45.4106 27.812 48.6123 28.7322 49.5439 31.1663 C 49.8818 32.0496 52.2417 33.3508 55.0447 34.51 C 75.7244 35.0327 92.2222 52.5203 92.2222 73.4609 C 92.2222 94.9761 74.8115 112.4175 53.333 112.4175 C 31.855 112.4175 14.4443 94.9761 14.4443 73.4609 C 14.4443 68.407 14.9517 63.5232 16.0942 59.0081 Z" fill="#d3b158"/>
</svg>