<?xml version="1.0" standalone="no"?>
<!-- Generator: Adobe Fireworks 10, Export SVG Extension by Aaron Beall (http://fireworks.abeall.com) . Version: 0.6.0  -->
<!DOCTYPE svg PUBLIC "-//W3C//DTD SVG 1.1//EN" "http://www.w3.org/Graphics/SVG/1.1/DTD/svg11.dtd">
<svg id="logo_alert4" viewBox="0 0 116 117" style="background-color:#ffffff00" version="1.1"
	xmlns="http://www.w3.org/2000/svg" xmlns:xlink="http://www.w3.org/1999/xlink" xml:space="preserve"
	x="0px" y="0px" width="116px" height="117px"
>
	<path d="M 105.2629 50.15 C 105.4358 52.155 105.5222 54.1726 105.8025 56.1621 C 106.1526 58.6421 105.7419 61.0428 105.3079 63.4547 C 104.6306 67.2125 103.4321 70.8069 101.781 74.2455 C 98.8022 80.4482 94.9404 85.9869 89.4976 90.3269 C 88.4448 91.166 87.4487 92.0813 86.4763 93.0129 C 86.2637 93.2168 85.5645 93.3073 86.022 93.9012 C 86.0305 93.9114 85.9751 93.9922 85.9348 94.0173 C 84.9963 94.5999 84.2644 95.4907 83.345 96.0386 C 78.5581 98.8889 73.3169 100.4395 67.8071 101.04 C 56.8523 102.2354 46.8115 99.6425 37.6096 93.6935 C 37.2229 93.4436 36.855 93.1599 36.2346 93.1537 C 36.9561 94.2582 37.7783 95.1428 38.7322 95.9293 C 41.6035 98.2959 44.8296 100.0605 48.2246 101.5439 C 48.3833 101.6313 48.3416 101.712 48.2148 101.7893 C 44.5249 100.623 41.1445 98.8384 37.8655 96.8077 C 34.2427 94.5645 30.9185 91.9744 28.0408 88.8362 C 27.1521 87.8674 26.4556 86.7224 25.564 85.7576 C 21.8 81.6843 19.9546 76.6821 18.624 71.4463 C 18.085 69.3258 17.5063 67.205 17.2344 65.0212 C 17.1951 64.7039 17.1772 64.3615 16.9224 63.9946 C 16.3574 65.1802 16.3499 66.3499 16.3701 67.5244 C 16.281 67.6281 16.2007 67.6497 16.1392 67.5002 C 15.3479 62.076 15.8105 56.7249 17.1543 51.4307 C 18.4756 46.2275 20.6704 41.3951 23.4626 36.8191 C 23.718 36.4006 23.9556 35.9695 24.1689 35.5281 C 24.2578 35.3447 24.5405 35.1196 24.2739 34.9243 C 24.0659 34.7722 23.9216 35.061 23.7671 35.1722 C 21.502 36.804 19.7898 38.9353 18.262 41.2361 C 16.4219 44.0061 14.9514 46.957 13.8472 50.0901 C 13.7666 50.2529 13.6968 50.2017 13.6294 50.0811 C 14.3105 46.5852 15.8936 43.3652 16.8076 39.9249 C 15.5718 40.5964 14.9941 41.8489 14.0801 42.7969 C 14.5964 41.2438 15.4539 39.8259 15.7554 38.2258 C 15.4292 38.0338 15.3621 38.4518 15.0386 38.3623 C 17.8662 33.3455 21.4634 28.927 25.2368 24.4012 C 24.3354 24.5002 23.7588 24.8837 23.2 25.3107 C 22.9287 25.1252 23.271 25.0492 23.2725 24.9128 C 27.5635 21.0229 32.3218 17.8501 37.6436 15.5367 C 40.3984 14.3398 43.2212 13.3341 46.1504 12.6816 C 46.8477 12.5259 47.1655 11.6954 47.958 11.8447 C 47.9666 11.8467 48.0425 11.6619 48.031 11.5715 C 48.0078 11.3914 47.834 11.4512 47.7227 11.4344 C 46.6399 11.2759 45.5552 11.3384 44.4712 11.4224 C 44.1372 11.448 43.8037 11.4823 43.4702 11.5125 C 43.2937 11.3029 43.4243 11.2267 43.6172 11.1772 C 47.6406 10.0112 51.7378 9.4626 55.9326 9.4275 C 63.5881 9.3635 70.7583 11.3738 77.7603 14.1942 C 78.2803 14.4036 78.8035 14.6057 79.3774 14.8325 C 79.2114 14.1487 78.6743 13.873 78.2871 13.4739 C 78.1475 13.3765 78.1775 13.2963 78.3125 13.2274 C 85.6208 17.2275 91.698 22.5651 96.2961 29.5522 C 100.8589 36.4849 103.2524 44.198 104.5295 52.337 C 105.0352 51.6161 104.95 50.8552 105.0327 50.1237 C 105.1235 50.0137 105.2036 49.9941 105.2629 50.15 ZM 115.7024 55.3851 C 115.6472 55.2299 115.5718 55.2589 115.4885 55.3635 C 115.3484 56.3093 115.3745 57.272 115.2603 58.2144 C 113.4175 73.4058 106.9497 86.0201 94.4194 95.2441 C 91.5298 97.3716 88.5544 99.3364 85.0947 100.4369 C 84.8245 100.5229 84.5562 100.6624 84.1843 100.5173 C 84.429 100.365 84.6033 100.2552 84.7791 100.1487 C 91.1438 96.2869 96.7231 91.5205 101.1357 85.5125 C 110.9954 72.0878 113.8325 57.1771 110.0962 41.0925 C 107.5525 30.142 101.8235 20.9204 93.5742 13.3402 C 89.762 9.8372 85.6145 6.7902 80.6282 4.9093 C 76.0491 3.1814 71.5203 1.3901 66.6873 0.4921 C 66.5669 0.5708 66.5337 0.6547 66.6721 0.748 C 70.5313 2.0566 74.3508 3.4513 77.7439 5.774 C 76.6965 5.6648 75.728 5.3108 74.7656 4.9492 C 73.7708 4.5757 72.7124 4.4463 71.7085 4.1458 C 57.7461 -0.0365 44.1138 0.9263 30.7871 6.8027 C 28.083 7.9949 25.3198 9.1931 23.0439 11.0586 C 18.8174 14.5229 14.7578 18.198 11.2302 22.4063 C 11.2969 22.5366 11.3701 22.5719 11.4563 22.4213 C 11.7209 22.1726 11.9917 21.9302 12.2495 21.6746 C 18.594 15.3882 25.8777 10.6425 34.4983 8.0737 C 37.2295 7.2605 39.9502 6.4128 42.8403 6.4373 C 43.0671 6.4392 43.3506 6.3044 43.5469 6.6124 C 42.9802 7.0723 42.3003 7.2644 41.647 7.4802 C 37.3135 8.9109 33.0898 10.572 29.116 12.8606 C 18.2324 19.1277 10.3567 28.0498 5.3213 39.5048 C 0.562 50.3337 -0.4536 61.575 1.5654 73.1382 C 2.5493 78.7722 4.4399 84.0984 7.0964 89.1542 C 7.2019 89.3555 7.2144 89.751 7.5056 89.7192 C 8.0923 89.655 8.3965 90.0333 8.5903 90.4141 C 9.3589 91.926 10.4993 93.1741 11.4429 94.5598 C 12.187 95.6525 13.0015 96.6953 13.9888 97.5903 C 13.876 97.354 13.7231 97.1495 13.5715 96.9431 C 13.4189 96.7347 13.2664 96.5259 13.1174 96.3149 C 9.1934 90.7542 6.6274 84.5964 5.125 77.9803 C 4.0103 73.0703 3.3115 68.1195 3.9492 63.0662 C 4.1006 61.8717 4.2051 60.6583 4.7544 59.481 C 5.0137 59.8285 5.0662 60.1699 5.0962 60.5328 C 5.2939 62.927 5.377 65.3396 5.7295 67.7111 C 7.6309 80.5046 12.9451 91.6108 22.2927 100.6583 C 29.9124 108.033 38.9407 112.8816 49.2654 115.3164 C 55.0776 116.6869 60.9731 117.1014 66.9316 116.5144 C 67.0986 116.4561 67.0771 116.3777 66.9561 116.2888 C 65.8667 116.1377 64.7156 116.4791 63.6682 115.8984 C 64.1133 115.7303 64.5552 115.6033 65.0059 115.5538 C 67.0913 115.3247 69.166 115.0251 71.2241 114.621 C 72.7053 114.3304 74.2502 114.2158 75.5024 113.2042 C 75.6741 113.0657 75.9275 113.021 76.1492 112.9539 C 78.2068 112.3325 80.2322 111.6151 82.2141 110.7874 C 85.9468 109.2297 89.5625 107.4404 92.9387 105.1948 C 93.1333 105.0715 93.4661 105.0535 93.3328 104.6799 C 91.4561 105.7551 89.604 106.8887 87.4011 107.1963 C 89.343 105.5406 91.6917 104.5034 93.6448 102.881 C 91.8906 103.6752 90.3044 104.8513 88.335 105.1892 C 91.4529 102.8323 94.6816 100.6428 97.627 98.0813 C 100.5649 95.5269 104.1233 91.7119 105.5938 89.4583 L 104.7813 90.0392 L 104.5779 89.9258 C 109.7983 82.2361 113.9336 74.0874 115.4805 64.8462 C 115.3853 64.5557 115.4485 64.2363 115.321 63.9515 C 115.468 61.0968 115.7202 58.2467 115.7024 55.3851 Z" fill="#d3b158"/>
</svg>