<?xml version="1.0" standalone="no"?>
<!-- Generator: Adobe Fireworks 10, Export SVG Extension by Aaron Beall (http://fireworks.abeall.com) . Version: 0.6.0  -->
<!DOCTYPE svg PUBLIC "-//W3C//DTD SVG 1.1//EN" "http://www.w3.org/Graphics/SVG/1.1/DTD/svg11.dtd">
<svg id="sprite_sheet_demo" viewBox="0 0 87 87" style="background-color:#ffffff00" version="1.1"
	xmlns="http://www.w3.org/2000/svg" xmlns:xlink="http://www.w3.org/1999/xlink" xml:space="preserve"
	x="0px" y="0px" width="87px" height="87px"
>
	<g>
		<g>
			<path d="M 0.8556 42.7167 C 0.8556 40.8181 2.3947 39.279 4.2933 39.279 L 83.3617 39.279 C 85.2604 39.279 86.7995 40.8181 86.7995 42.7167 L 86.7995 45.0802 C 86.7995 46.9788 85.2604 48.5179 83.3617 48.5179 L 4.2933 48.5179 C 2.3947 48.5179 0.8556 46.9788 0.8556 45.0802 L 0.8556 42.7167 Z" fill="#d3b158"/>
		</g>
		<g>
			<path d="M 45.0092 0.9265 C 46.908 0.9265 48.447 2.4656 48.447 4.3643 L 48.447 83.4326 C 48.447 85.3313 46.908 86.8704 45.0092 86.8704 L 42.6458 86.8704 C 40.7471 86.8704 39.208 85.3313 39.208 83.4326 L 39.208 4.3643 C 39.208 2.4656 40.7471 0.9265 42.6458 0.9265 L 45.0092 0.9265 Z" fill="#d3b158"/>
		</g>
	</g>
</svg>