<?xml version="1.0" standalone="no"?>
<!-- Generator: Adobe Fireworks 10, Export SVG Extension by Aaron Beall (http://fireworks.abeall.com) . Version: 0.6.0  -->
<!DOCTYPE svg PUBLIC "-//W3C//DTD SVG 1.1//EN" "http://www.w3.org/Graphics/SVG/1.1/DTD/svg11.dtd">
<svg id="sprite_sheet_demo" viewBox="0 0 410 410" style="background-color:#ffffff00" version="1.1"
	xmlns="http://www.w3.org/2000/svg" xmlns:xlink="http://www.w3.org/1999/xlink" xml:space="preserve"
	x="0px" y="0px" width="410px" height="410px"
>
	<g>
		<path id="Ellipse" d="M 2 205 C 2 163.9418 35.2833 130.6586 76.3414 130.6586 C 102.6607 130.6586 159.2773 190.2611 159.2773 205 C 159.2773 220.4445 101.9551 279.3414 76.3414 279.3414 C 35.2833 279.3414 2 246.0582 2 205 Z" stroke="#d3b158" stroke-width="4" fill="none"/>
		<path id="Ellipse2" d="M 408 205 C 408 163.9418 374.7167 130.6586 333.6586 130.6586 C 307.3393 130.6586 250.7227 190.2611 250.7227 205 C 250.7227 220.4445 308.0449 279.3414 333.6586 279.3414 C 374.7167 279.3414 408 246.0582 408 205 Z" stroke="#d3b158" stroke-width="4" fill="none"/>
		<path id="Ellipse3" d="M 205 2 C 246.0581 2 279.3414 35.2833 279.3414 76.3414 C 279.3414 102.6607 219.7389 159.2773 205 159.2773 C 189.5555 159.2773 130.6586 101.9551 130.6586 76.3414 C 130.6586 35.2833 163.9419 2 205 2 Z" stroke="#d3b158" stroke-width="4" fill="none"/>
		<path id="Ellipse4" d="M 205 408 C 246.0581 408 279.3414 374.7167 279.3414 333.6586 C 279.3414 307.3393 219.7389 250.7227 205 250.7227 C 189.5555 250.7227 130.6586 308.0449 130.6586 333.6586 C 130.6586 374.7167 163.9419 408 205 408 Z" stroke="#d3b158" stroke-width="4" fill="none"/>
		<path id="Ellipse5" d="M 159.7997 250.4574 C 134.9314 225.589 134.9314 185.2704 159.7997 160.402 C 184.6683 135.5336 224.9868 135.5336 249.8553 160.402 C 274.7236 185.2704 274.7236 225.589 249.8553 250.4574 C 224.9868 275.3258 184.6683 275.3258 159.7997 250.4574 Z" fill="#d3b158"/>
		<path d="M 98.532 139.0197 C 102.6667 140.8333 128.1481 162.2214 128.1481 162.2214 C 136.6857 147.061 147.6627 136.2584 162.958 127.9648 C 162.958 127.9648 140 101.6667 139 98.7219 C 111.3333 116.3333 98.532 139.0197 98.532 139.0197 Z" fill="#d3b158"/>
		<path d="M 311.958 139.0197 C 307.8233 140.8333 282.3419 162.2214 282.3419 162.2214 C 273.8043 147.061 262.8273 136.2584 247.532 127.9648 C 247.532 127.9648 270.49 101.6667 271.49 98.7219 C 299.1567 116.3333 311.958 139.0197 311.958 139.0197 Z" fill="#d3b158"/>
		<path d="M 98.532 271.9237 C 102.6667 270.11 128.1481 248.7219 128.1481 248.7219 C 136.6857 263.8824 147.6627 274.685 162.958 282.9786 C 162.958 282.9786 140 309.2767 139 312.2214 C 111.3333 294.61 98.532 271.9237 98.532 271.9237 Z" fill="#d3b158"/>
		<path d="M 311.958 271.9237 C 307.8233 270.11 282.3419 248.7219 282.3419 248.7219 C 273.8043 263.8824 262.8273 274.685 247.532 282.9786 C 247.532 282.9786 270.49 309.2767 271.49 312.2214 C 299.1567 294.61 311.958 271.9237 311.958 271.9237 Z" fill="#d3b158"/>
	</g>
</svg>