<?xml version="1.0" standalone="no"?>
<!-- Generator: Adobe Fireworks 10, Export SVG Extension by Aaron Beall (http://fireworks.abeall.com) . Version: 0.6.0  -->
<!DOCTYPE svg PUBLIC "-//W3C//DTD SVG 1.1//EN" "http://www.w3.org/Graphics/SVG/1.1/DTD/svg11.dtd">
<svg id="sprite_sheet_demo" viewBox="0 0 91 90" style="background-color:#ffffff00" version="1.1"
	xmlns="http://www.w3.org/2000/svg" xmlns:xlink="http://www.w3.org/1999/xlink" xml:space="preserve"
	x="0px" y="0px" width="91px" height="90px"
>
	<g>
		<path id="Ellipse" d="M 38.4461 45.3594 C 38.4461 40.8502 42.1015 37.1948 46.6108 37.1948 C 51.1201 37.1948 54.7755 40.8502 54.7755 45.3594 C 54.7755 49.8687 51.1201 53.5241 46.6108 53.5241 C 42.1015 53.5241 38.4461 49.8687 38.4461 45.3594 Z" fill="#d3b158"/>
		<path d="M 46.6721 0.2389 C 46.7105 0.3016 46.778 0.29 46.8357 0.3029 C 47.4698 0.4443 48.0177 0.737 48.4801 1.2001 C 53.201 5.9274 57.9232 10.6535 62.6499 15.375 C 63.2085 15.9329 63.6099 16.5657 63.7476 17.3505 C 63.9475 18.49 63.6783 19.5057 62.9015 20.365 C 62.3531 20.9718 61.7798 21.5569 61.2076 22.1418 C 59.9883 23.3877 57.9799 23.3901 56.7348 22.2578 C 56.5835 22.1203 56.4339 21.9807 56.2893 21.8361 C 53.0188 18.5668 49.7489 15.2967 46.4788 12.0267 C 46.2172 11.7652 46.2172 11.765 45.9532 12.029 C 42.6252 15.3568 39.2961 18.6835 35.9708 22.0139 C 35.5283 22.4571 35.0315 22.806 34.4213 22.9646 C 33.2568 23.2674 32.1978 23.0464 31.3192 22.2166 C 30.681 21.6135 30.0784 20.9683 29.498 20.3083 C 28.2772 18.9202 28.3435 16.8802 29.6255 15.5443 C 29.7531 15.4114 29.8836 15.2814 30.0139 15.1512 C 34.4414 10.7236 38.8689 6.2961 43.2962 1.8685 C 43.506 1.6587 43.715 1.4481 43.9221 1.2355 C 44.4077 0.7368 44.9897 0.4188 45.6758 0.2946 C 45.7266 0.2854 45.7761 0.2798 45.8126 0.2389 C 46.0992 0.2389 46.3857 0.2389 46.6721 0.2389 Z" fill="#d3b158"/>
		<path d="M 0.6308 44.5 C 0.7206 44.4322 0.7296 44.3297 0.7523 44.2303 C 0.8801 43.669 1.1466 43.1799 1.5434 42.765 C 1.7907 42.5063 2.0513 42.2602 2.3044 42.0071 C 6.7889 37.5229 11.2748 33.0399 15.7556 28.5519 C 16.2424 28.0644 16.7805 27.6687 17.4516 27.494 C 18.6832 27.1733 19.8071 27.3902 20.7664 28.2514 C 21.3748 28.7977 21.9641 29.3662 22.5482 29.9388 C 23.2096 30.587 23.5325 31.3892 23.5159 32.3116 C 23.5014 33.1275 23.2089 33.8472 22.6621 34.4575 C 22.5394 34.5944 22.4063 34.7222 22.2763 34.8524 C 18.9998 38.1291 15.7231 41.4055 12.4477 44.683 C 12.3623 44.7685 12.2567 44.8385 12.1875 45.0088 C 12.2752 45.0811 12.386 45.1577 12.4796 45.2513 C 15.8009 48.5699 19.1188 51.8916 22.4422 55.2082 C 22.8787 55.6436 23.2182 56.1325 23.3837 56.7281 C 23.7041 57.881 23.4819 58.9319 22.6718 59.8067 C 22.0545 60.4733 21.3883 61.0997 20.7032 61.6975 C 19.3505 62.878 17.3068 62.809 16.0071 61.5737 C 15.8737 61.4468 15.7442 61.3159 15.6139 61.1857 C 11.1728 56.7448 6.7321 52.3038 2.291 47.8629 C 2.0522 47.6242 1.8119 47.387 1.5721 47.1494 C 1.1617 46.7428 0.9017 46.2516 0.7601 45.6954 C 0.7301 45.5775 0.7131 45.4564 0.6308 45.3594 C 0.6308 45.073 0.6308 44.7865 0.6308 44.5 Z" fill="#d3b158"/>
		<path d="M 45.6286 89.6205 C 45.5902 89.5593 45.5231 89.5683 45.4654 89.5535 C 44.8233 89.3885 44.2845 89.0525 43.8332 88.5705 C 43.6934 88.4212 43.5536 88.2717 43.4093 88.1272 C 38.9035 83.6204 34.3974 79.1141 29.8906 74.6084 C 29.5861 74.3041 29.2961 73.993 29.0779 73.615 C 28.3473 72.3487 28.5173 70.6326 29.5085 69.5586 C 30.084 68.9348 30.6699 68.3197 31.2701 67.7198 C 32.4762 66.5151 34.4557 66.4851 35.7176 67.6393 C 35.8456 67.7566 35.9669 67.8817 36.0898 68.0046 C 39.3737 71.2883 42.6579 74.5719 45.94 77.8574 C 46.0262 77.9437 46.0913 78.0511 46.1532 78.1321 C 46.3294 78.0505 46.4014 77.9473 46.487 77.8616 C 49.7863 74.5642 53.0855 71.2668 56.3815 67.9662 C 56.7682 67.5789 57.1773 67.2296 57.6977 67.0363 C 59.0017 66.5517 60.1805 66.7766 61.1852 67.7291 C 61.8151 68.3264 62.4021 68.9708 62.9817 69.6183 C 64.053 70.8156 64.0887 72.7584 63.0807 74.0369 C 62.942 74.213 62.787 74.3779 62.6283 74.5367 C 58.174 78.9935 53.718 83.4489 49.2628 87.9047 C 48.9952 88.1723 48.7317 88.4441 48.4631 88.7107 C 48.0246 89.1463 47.5072 89.44 46.8991 89.5657 C 46.8575 89.5742 46.8223 89.5881 46.795 89.6205 C 46.4062 89.6205 46.0174 89.6205 45.6286 89.6205 Z" fill="#d3b158"/>
		<path d="M 90.0125 45.5435 C 89.9075 45.6602 89.9558 45.8162 89.9059 45.9509 C 89.7433 46.3885 89.5211 46.7867 89.1956 47.1221 C 88.939 47.3862 88.673 47.641 88.4125 47.9015 C 83.9349 52.3788 79.4562 56.8551 74.9815 61.3354 C 74.5035 61.8142 73.9775 62.2077 73.3176 62.3889 C 72.0603 62.7344 70.9266 62.4995 69.9514 61.6219 C 69.3815 61.1089 68.8391 60.5654 68.2761 60.0446 C 66.8823 58.7557 66.8856 56.5978 68.238 55.2532 C 71.5311 51.9785 74.8092 48.6885 78.0911 45.4025 C 78.2396 45.2536 78.4948 45.1293 78.4906 44.9306 C 78.4871 44.7507 78.2401 44.6279 78.0968 44.4844 C 74.8143 41.1989 71.5316 37.9137 68.2447 34.6325 C 67.7527 34.1411 67.4131 33.5711 67.2872 32.8866 C 67.0969 31.8501 67.312 30.9035 68.0267 30.1187 C 68.6599 29.4231 69.3515 28.7791 70.0638 28.1665 C 71.4108 27.0081 73.449 27.095 74.7371 28.3248 C 74.8703 28.4519 74.9998 28.5829 75.1301 28.7131 C 79.7821 33.3631 84.4338 38.0136 89.0865 42.6631 C 89.5378 43.1142 89.8732 43.6267 89.973 44.2709 C 89.9755 44.2876 89.9988 44.3009 90.0125 44.3159 C 90.0125 44.725 90.0125 45.1343 90.0125 45.5435 Z" fill="#d3b158"/>
	</g>
</svg>