<?xml version="1.0" standalone="no"?>
<!-- Generator: Adobe Fireworks 10, Export SVG Extension by Aaron Beall (http://fireworks.abeall.com) . Version: 0.6.0  -->
<!DOCTYPE svg PUBLIC "-//W3C//DTD SVG 1.1//EN" "http://www.w3.org/Graphics/SVG/1.1/DTD/svg11.dtd">
<svg id="bar_bottom" viewBox="0 0 721 20" style="background-color:#ffffff00" version="1.1"
	xmlns="http://www.w3.org/2000/svg" xmlns:xlink="http://www.w3.org/1999/xlink" xml:space="preserve"
	x="0px" y="0px" width="721px" height="20px"
>
	<g id="Layer%201">
		<path d="M 242.4128 15.0798 C 242.2659 13.3433 242.0656 1.1373 241.9648 0 L 262.7109 0 L 262.343 13.3197 L 261.7219 18.92 L 278.9858 18.92 L 278.3499 14.3597 L 277.7329 0 L 298.5037 0 C 298.5271 0.8225 298.4365 11.9963 298.2458 13.6397 L 297.6396 18.92 L 314.7811 18.92 L 313.6884 0 L 334.7302 0 C 334.6616 0.9244 334.5242 12.1316 334.334 13.3947 C 333.9585 15.8998 333.8699 18.165 334.1289 18.4349 C 334.3877 18.705 338.1698 18.92 342.5231 18.92 L 350.4446 18.92 L 350.1162 13.4547 L 349.9102 0 L 370.3406 0 L 370.1395 13.4947 L 369.8214 18.92 L 386.9771 18.92 L 386.4836 15.7998 C 386.2097 14.0847 385.8777 1.6146 385.7355 0.3146 L 385.7027 0 L 406.572 0 L 405.5823 18.92 L 422.6753 18.92 L 421.6878 0 L 442.6163 0 L 442.5123 11.2996 C 442.3705 13.1147 442.0429 15.5748 441.7933 16.7599 C 441.3383 18.88 441.4998 18.92 449.8945 18.92 L 458.4556 18.92 L 458.1279 13.3997 L 457.9291 0 L 478.3448 0 L 478.1511 13.3997 L 477.8379 18.92 L 485.8462 18.92 C 490.2489 18.92 494.0452 18.6 494.2753 18.2 C 494.51 17.8049 494.3877 15.4298 494.011 12.9197 C 493.8174 11.639 493.6634 0.6932 493.6528 0 L 514.5813 0 L 514.2202 13.2747 L 513.5938 18.92 L 530.7797 18.92 L 529.766 0 L 550.6008 0 L 550.1472 15.0798 L 549.8539 18.4399 L 566.4769 19 L 565.9434 0 L 586.7831 0 L 586.3633 13.6397 L 585.7566 18.925 L 603.0059 18.925 L 602.5118 15.8048 C 602.0591 12.9323 601.6499 1.1318 601.7805 0 L 622.6005 0 L 622.2268 13.4047 L 621.6151 18.925 L 638.7081 18.925 L 638.0916 13.3897 L 637.7163 0 L 658.5856 0 L 658.5552 0.2795 C 658.4132 1.5996 658.0757 14.0847 657.8066 15.7998 L 657.3126 18.92 L 674.5669 18.92 L 673.9553 13.6397 L 673.5385 0 L 694.3832 0 L 694.1838 13.4597 L 693.8708 18.92 L 711.0223 18.92 L 710.4255 15.3198 C 709.9878 12.6603 709.7444 1.0161 709.2771 0 L 721 0 L 721 20 L 0 20 L 0 0 L 10.5892 0 L 10.3822 13.4247 L 10.0558 18.92 L 18.6171 18.92 C 27.011 18.92 27.1731 18.88 26.7168 16.7599 C 26.4681 15.5748 26.1399 13.1147 25.9983 11.2996 L 25.8972 0 L 46.8304 0 L 46.452 13.3997 L 45.8358 18.925 L 62.9329 18.925 L 62.317 13.3547 L 61.9463 0 L 82.8054 0 C 82.7992 1.1462 82.48 12.9601 82.0313 15.7998 L 81.5378 18.92 L 98.7872 18.92 L 98.1807 13.6397 C 97.9856 11.9379 97.853 0.7845 97.8525 0 L 118.8696 0 C 118.7915 0.9124 118.6128 12.1898 118.365 13.5547 C 117.3521 19.08 117.3922 19.1 127.2595 18.725 L 134.6898 18.4449 L 134.3966 15.0848 C 134.2488 13.3414 134.0511 1.132 133.9508 0 L 154.7758 0 L 154.4246 13.0797 L 153.7646 18.92 L 170.9493 18.92 L 169.9604 0 L 190.7804 0 L 190.1658 14.3597 L 189.5244 18.92 L 206.7308 18.92 L 206.1047 13.3997 L 205.7135 0 L 227.0464 0 C 226.9005 0.9193 226.642 12.3682 226.3613 13.8547 C 225.9419 16.0848 225.8344 18.15 226.1226 18.45 C 226.4153 18.75 230.2664 18.865 234.6785 18.715 L 242.7063 18.4399 L 242.4128 15.0798 Z" fill="#d3b158"/>
	</g>
</svg>