<?xml version="1.0" standalone="no"?>
<!-- Generator: Adobe Fireworks 10, Export SVG Extension by Aaron Beall (http://fireworks.abeall.com) . Version: 0.6.0  -->
<!DOCTYPE svg PUBLIC "-//W3C//DTD SVG 1.1//EN" "http://www.w3.org/Graphics/SVG/1.1/DTD/svg11.dtd">
<svg id="email_logo" viewBox="0 0 149 64" style="background-color:#ffffff00" version="1.1"
	xmlns="http://www.w3.org/2000/svg" xmlns:xlink="http://www.w3.org/1999/xlink" xml:space="preserve"
	x="0px" y="0px" width="149px" height="64px"
>
	<g id="Layer%201">
		<path d="M 0.0908 32 L 19.9241 15 L 21.7273 18.8633 L 9.106 32 L 21.7273 45.1367 L 19.9241 49 L 0.0908 32 Z" fill="#d3b158"/>
		<path d="M 148.7273 32 L 128.894 15 L 127.0908 18.8633 L 139.7122 32 L 127.0908 45.1367 L 128.894 49 L 148.7273 32 Z" fill="#d3b158"/>
		<path d="M 98.9375 48.2466 L 106 48.2466 C 103.7917 52.2739 100.3958 56.7839 95.8125 59.3433 C 90.5833 62.28 84.1875 64 76.6459 64 C 69.3541 64 63.0391 62.8882 57.7266 60.3921 C 52.4141 57.9167 48.4791 54.3088 45.8776 49.4631 C 43.2891 44.6174 42 39.3733 42 33.6677 C 42 27.4165 43.4818 21.606 46.4141 16.2151 C 49.3541 10.8003 53.375 6.7571 58.5 4.051 C 63.6041 1.3452 69.4401 0 76.0209 0 C 81.5834 0 86.5416 1.0908 90.875 3.2725 C 95.2083 5.4514 98.5208 8.5559 100.8125 12.5835 C 103.1042 16.5952 104.25 20.9978 104.25 25.762 C 104.25 31.4231 102.5 36.5598 99.0417 41.1563 C 94.6667 46.9458 89.0834 49.8408 82.2709 49.8408 C 80.4375 49.8408 79.0625 49.5261 78.125 48.8757 C 77.2084 48.2256 76.5834 47.2815 76.2709 46.0229 C 73.6693 48.582 70.6666 49.8408 67.2526 49.8408 C 63.5834 49.8408 60.5416 48.561 58.1068 46.0229 C 55.6901 43.4639 54.4791 40.0891 54.4791 35.8467 C 54.4791 30.626 55.9349 25.8433 58.875 21.5247 C 62.3932 16.2571 66.9375 13.6348 72.4584 13.6348 C 76.3959 13.6348 79.3125 15.9238 81.1875 18.9419 L 82.0209 16.0261 L 90.7708 16.0261 L 85.7709 39.2029 C 85.4584 40.7158 85.2916 41.3032 85.2916 41.7437 C 85.2916 42.3127 85.4166 42.5435 85.6875 42.8108 C 85.9375 43.0862 86.25 43.1282 86.6041 43.1282 C 87.6666 43.1282 89.0209 42.436 90.7083 41.1563 C 92.9583 39.4546 94.7917 37.1733 96.1875 34.2942 C 97.5833 31.4651 98.2708 28.5049 98.2708 25.4448 C 98.2708 19.9673 96.3125 15.376 92.375 11.6814 C 88.4166 8.0132 82.9375 6.1672 75.875 6.1672 C 69.8776 6.1672 64.7943 7.3865 60.6224 9.8616 C 56.4584 12.3159 53.3125 15.7744 51.2109 20.2427 C 49.0807 24.7107 48.0416 29.3491 48.0416 34.1921 C 48.0416 38.8909 49.2109 43.1702 51.5834 47.0088 C 53.9349 50.8687 57.2318 53.6794 61.4818 55.4624 C 65.7474 57.2246 70.6224 58.1055 76.1041 58.1055 C 81.3959 58.1055 85.9375 56.8679 89.75 55.3997 C 93.5417 53.9102 96.6042 52.2739 98.9375 48.2466 L 98.9375 48.2466 ZM 63.0807 35.4717 C 63.0807 38.3062 63.6459 40.4011 64.7734 41.7227 C 65.9193 43.0652 67.3334 43.7366 69.0234 43.7366 C 70.2709 43.7366 71.4609 43.4219 72.5651 42.79 C 73.3959 42.3494 74.2291 41.6624 75.0599 40.6948 C 76.2291 39.3313 77.25 37.3596 78.0834 34.7559 C 78.9375 32.1362 79.375 29.7241 79.375 27.4585 C 79.375 24.9414 78.7916 23.0115 77.625 21.6689 C 76.4584 20.3264 75.0026 19.6553 73.2318 19.6553 C 71.3125 19.6553 69.5625 20.3921 67.9557 21.8787 C 66.3359 23.3445 65.125 25.4658 64.2916 28.1929 C 63.4818 30.938 63.0807 33.3767 63.0807 35.4717 L 63.0807 35.4717 ZM 63.0807 35.4717 L 63.0807 35.4717 Z" fill="#d3b158"/>
	</g>
</svg>