<?xml version="1.0" standalone="no"?>
<!-- Generator: Adobe Fireworks 10, Export SVG Extension by Aaron Beall (http://fireworks.abeall.com) . Version: 0.6.0  -->
<!DOCTYPE svg PUBLIC "-//W3C//DTD SVG 1.1//EN" "http://www.w3.org/Graphics/SVG/1.1/DTD/svg11.dtd">
<svg id="info_logo" viewBox="0 0 100 80" style="background-color:#ffffff00" version="1.1"
	xmlns="http://www.w3.org/2000/svg" xmlns:xlink="http://www.w3.org/1999/xlink" xml:space="preserve"
	x="0px" y="0px" width="100px" height="80px"
>
	<g id="Layer%201">
		<g>
			<path d="M 94.9618 22.5778 C 96 24.3689 95.2064 26.8608 95.4713 28.7269 C 95.677 30.1755 95.2925 31.7025 96.0606 33.0774 C 94.9541 33.7448 95.619 34.8687 95.3712 35.7574 C 94.91 37.4401 93.5428 38.1724 92.1921 39.0563 C 87.1157 42.3781 82.0012 45.6575 77.344 49.5762 C 76.4666 49.879 75.8068 50.4714 75.2232 51.1674 C 73.4248 52.243 71.505 53.161 69.8502 54.4254 C 64.3062 58.6597 58.7336 62.8456 52.8519 66.6051 C 50.3629 68.1958 47.6241 69.5293 45.5103 71.5233 C 44.1921 72.767 43.1283 73.7219 41.3161 73.6296 C 40.4109 73.1047 41.9228 61.5515 42.9399 60.7269 C 47.8974 57.0414 52.9023 53.4167 57.7862 49.6359 C 59.3483 48.4269 61.3157 47.5825 62.188 45.5935 C 65.2515 44.6134 67.2816 42.198 69.633 40.228 C 72.2011 39.9199 73.0003 37.3297 74.9127 36.1323 C 78.8294 33.6809 82.6372 31.0557 86.4895 28.5016 C 88.2533 27.7791 94.653 24.3949 94.9618 22.5778 Z" fill="#a69b9d"/>
			<path d="M 48.2843 23.5763 C 48.9226 23.7349 49.1986 24.7092 50.0887 24.369 C 50.4619 23.4227 49.3624 22.818 49.5163 21.9316 C 51.0719 22.2802 53.7856 24.9333 53.2754 25.7244 C 52.7045 26.6104 51.47 27.0604 50.5327 26.6736 C 49.3077 26.1685 47.0146 26.1263 48.211 23.64 C 48.2105 23.6405 48.2843 23.5763 48.2843 23.5763 Z" fill="#a56f3d"/>
			<path d="M 70.5727 34.2394 C 70.3228 34.9348 70.0736 35.6304 69.8258 36.3256 C 69.5299 36.4718 69.2324 36.6182 68.9349 36.7644 C 67.7543 36.8542 67.0628 38.1047 65.8314 38.0737 L 65.6961 37.927 C 67.0634 36.3552 68.5607 34.9567 70.5727 34.2394 Z" fill="#a56f3d"/>
			<path d="M 75.2854 31.0616 C 74.7769 31.861 74.1892 32.5541 73.1599 32.6594 C 73.1858 31.2178 74.1161 30.9803 75.2854 31.0616 Z" fill="#a56f3d"/>
			<path d="M 73.1599 32.6526 C 72.9759 33.1708 72.5991 33.4829 72.0944 33.6597 C 72.1011 32.9545 72.4571 32.6205 73.1599 32.6526 Z" fill="#a56f3d"/>
			<path d="M 33.3836 69.8024 C 31.0392 68.1425 28.4463 66.5569 26.1835 64.8955 C 24.18 63.4237 21.9845 62.3641 19.8327 61.1707 C 15.9819 59.0339 12.7738 56.032 10.3257 52.3052 C 9.8916 51.6443 9.5892 50.8872 9.0992 50.2762 C 8.365 49.3602 7.9841 48.9102 9.6783 48.8303 C 11.2858 48.754 10.37 47.4548 10.3946 46.6224 C 10.4343 45.2776 8.5705 43.8213 10.4151 42.6237 C 12.128 41.5121 13.0308 43.3649 14.3003 43.9675 C 20.3518 46.8408 25.4119 51.34 31.6205 54.069 C 35.3893 55.7261 38.7069 58.5957 42.4351 60.5889 C 42.849 60.8102 42.9635 61.2729 42.9399 61.7422 C 41.9228 62.5659 41.8043 73.0524 41.4063 74.38 C 41.1456 75.2495 36.0988 71.7249 33.3836 69.8024 Z" fill="#6c6262"/>
			<path d="M 16.9485 29.9934 C 17.1192 29.8606 17.2903 29.7273 17.461 29.5955 C 17.2903 29.7289 17.1192 29.8611 16.9485 29.9934 Z" fill="#5a5151"/>
			<path d="M 33.3245 48.5735 C 33.4673 48.808 33.6101 49.0424 33.7524 49.2773 C 33.6096 49.0439 33.467 48.809 33.3245 48.5735 Z" fill="#905337"/>
			<path d="M 15.7657 38.526 C 15.944 38.7034 16.1228 38.8801 16.3009 39.0581 C 16.1223 38.8807 15.944 38.7034 15.7657 38.526 Z" fill="#905337"/>
			<path d="M 56.6454 44.2325 C 56.8486 43.8829 57.0648 43.9089 57.2918 44.2087 C 57.0767 44.2159 56.8611 44.2242 56.6454 44.2325 Z" fill="#5a5151"/>
			<path d="M 15.2959 31.0182 C 15.4807 30.8777 15.6655 30.7372 15.8503 30.5975 C 15.6655 30.7382 15.4807 30.8782 15.2959 31.0182 Z" fill="#5a5151"/>
			<g>
				<path d="M 21.6801 27.563 C 20.2738 28.2412 17.1192 29.8606 16.9485 29.9934 C 16.5823 30.1951 12.1355 34.7404 9.9396 35.3906 C 8.9074 34.8229 6.8164 33.7633 5.7894 34.3427 C 5.5832 34.0917 5.3771 33.8412 5.1711 33.5913 C 7.4782 31.5305 10.2624 30.2039 12.9069 28.6903 C 21.8708 23.5597 30.3097 17.6342 38.769 11.7417 C 43.6639 8.3315 48.5331 4.8711 52.973 0.861 C 54.675 -0.6765 56.1987 0.1195 57.7354 1.1244 C 57.7095 1.5585 58.0168 2.1831 57.6566 2.4257 C 56.0831 3.486 54.9569 4.2437 53.6242 5.1453 C 51.1766 6.8025 49.8239 7.6748 47.7238 9.8585 C 44.4913 11.9187 34.9858 18.7535 30.6456 21.4597 C 27.5376 23.3975 24.2183 24.8663 21.6801 27.563 Z" fill="#a06341"/>
				<path d="M 5.1711 33.5913 C 5.3771 33.8412 5.5832 34.0917 5.7894 34.3427 C 5.2457 37.4542 3.6774 40.1453 1.6577 42.6569 C 3.2737 43.3167 2.9829 41.5645 3.7691 41.9485 C 4.5334 42.322 4.2198 43.1211 4.1451 43.8368 C 3.6847 48.2588 4.0612 52.4353 7.6511 55.6913 C 9.3984 57.2762 8.3606 59.0715 7.6798 58.566 C -1.2377 51.9435 -0.4449 46.4232 0.6528 41.1893 C 1.2752 38.222 3.4209 35.9832 5.1711 33.5913 Z" fill="#a06341"/>
				<path d="M 63.0727 4.9535 C 65.7635 5.5566 68.3337 6.4436 70.5494 8.1578 C 70.5555 9.3069 70.796 11.1382 71.6574 11.0574 C 74.1405 10.8246 73.9808 12.8003 74.6687 14.0028 C 75.7311 15.8597 76.9024 17.5677 79.1217 18.0267 C 80.6257 18.3379 82.392 18.5791 82.4631 20.3107 C 82.5211 21.723 81.0211 22.6732 79.7218 23.2126 C 76.1835 24.6813 74.0327 27.0262 74.2882 31.0789 C 74.2882 31.0782 74.2753 31.0616 74.2753 31.0616 C 73.106 30.9803 72.1757 31.2178 72.1498 32.6594 L 72.1498 32.6526 C 71.447 32.6205 71.091 32.9545 71.0843 33.6597 C 70.5768 33.8525 70.07 34.046 69.5626 34.2394 C 67.5506 34.9567 66.0533 36.3552 64.686 37.9265 C 63.7127 38.3263 62.7166 38.6775 61.7744 39.1395 C 60.9737 39.5327 60.2574 39.6266 59.6064 38.9368 C 58.1236 37.365 56.6891 38.0057 55.0723 38.8137 C 52.7615 39.9684 50.9595 42.1611 48.1188 42.2664 C 47.8451 42.2762 47.3346 42.6663 47.3546 42.8286 C 47.8291 46.7299 42.7473 46.0043 42.192 49.0382 C 42.1679 49.1704 41.7129 49.2036 41.4778 49.3209 C 40.1658 49.9785 38.8597 50.6481 37.5517 51.3135 C 35.9633 50.7606 34.3751 50.2083 32.7868 49.6559 C 35.1191 49.5771 37.1176 48.4365 39.2852 47.8241 C 37.2663 47.2007 35.2528 47.7935 33.2815 47.2256 C 32.1467 46.8983 32.4191 47.9611 32.3136 48.5787 C 26.1653 46.2589 20.5798 42.924 15.2604 39.11 C 16.0335 38.8839 17.0309 39.349 17.4589 38.1344 C 19.0527 33.6168 19.4238 33.3066 23.7988 33.4476 C 24.8771 33.4824 25.4156 33.1309 25.3689 32.2388 C 25.2554 30.0566 26.1987 28.9781 28.3397 28.682 C 29.0173 28.5881 29.3043 27.7228 29.7665 27.2031 C 31.0817 25.7244 32.0811 23.6161 34.0605 23.1799 C 36.2484 22.6976 37.9087 21.7988 39.3 20.1151 C 39.9051 19.3829 40.7528 18.8525 41.4853 18.2244 C 43.27 16.6941 44.3219 17.6881 45.0464 19.3446 C 45.7839 21.0305 46.5082 22.6842 48.211 23.64 C 47.0146 26.1263 49.3077 26.1685 50.5327 26.6736 C 51.47 27.0604 52.7045 26.6104 53.2754 25.7244 C 53.7856 24.9333 51.0719 22.2802 49.5163 21.9316 C 49.3624 22.818 50.4619 23.4227 50.0887 24.369 C 49.1986 24.7092 48.9226 23.7349 48.2843 23.5763 C 47.9275 21.9415 49.5135 20.2214 49.11 19.1766 C 47.4917 14.9845 50.796 13.5742 53.0209 11.8953 C 54.475 10.7976 55.8452 8.923 58.5077 9.6353 C 59.7826 9.9766 60.6477 11.6079 61.3654 11.1533 C 62.6658 10.3286 60.0988 9.0425 61.1867 7.7539 C 61.4432 7.45 61.4427 6.9296 61.5603 6.5083 C 62.3777 6.2953 62.4652 5.3711 63.0727 4.9535 Z" fill="#a06341"/>
				<path d="M 74.2887 31.0793 C 74.0327 27.0262 76.1835 24.6813 79.7218 23.2126 C 81.0211 22.6732 82.5211 21.723 82.4631 20.3107 C 82.392 18.5791 80.6257 18.3379 79.1217 18.0267 C 76.9024 17.5677 75.7311 15.8597 74.6687 14.0028 C 73.9808 12.8003 74.1405 10.8246 71.6574 11.0574 C 70.796 11.1382 70.5555 9.3069 70.5494 8.1578 C 74.7982 8.9584 78.7019 10.9003 82.8776 11.9211 C 86.7477 12.8682 90.4067 14.5913 94.3881 15.0881 C 96.2958 15.3257 95.2158 16.6503 93.8525 18.1752 C 92.6234 19.55 90.7207 20.0181 90.1574 20.9537 C 89.1354 21.0637 88.4973 21.7875 87.7147 22.3512 C 83.3809 25.4734 79.1082 28.7012 74.2887 31.0793 Z" fill="#a06341"/>
				<path d="M 14.7556 38.526 C 13.5395 38.7966 12.853 37.8062 11.9432 37.3458 C 10.5309 36.6311 10.7343 36.0479 11.8833 35.1149 C 14.6004 32.9083 17.7979 31.4569 20.5759 29.3613 C 24.6348 27.4116 28.2182 24.7118 31.9369 22.2173 C 35.634 19.7372 39.4117 17.3744 43.1972 15.0297 C 44.0778 14.4839 45.238 13.8887 45.5282 15.7218 C 45.6445 16.4592 45.545 17.644 46.6336 17.2976 C 47.5744 16.999 47.0929 15.9177 46.7632 15.2205 C 45.8487 13.2839 46.6761 12.1659 48.3048 11.1014 C 51.8209 8.8021 55.2345 6.3467 58.6901 3.9543 C 59.1426 3.9766 59.5955 3.9984 60.047 4.0201 C 59.9739 5.2009 60.0599 6.2859 61.5603 6.5083 C 61.4427 6.9296 61.4432 7.45 61.1867 7.7539 C 60.0988 9.0425 62.6658 10.3286 61.3654 11.1533 C 60.6477 11.6079 59.7826 9.9766 58.5077 9.6353 C 55.8452 8.923 54.475 10.7976 53.0209 11.8953 C 50.796 13.5742 47.4917 14.9845 49.11 19.1766 C 49.5135 20.2214 47.9275 21.9415 48.2843 23.5763 L 48.2105 23.6405 C 46.5082 22.6842 45.7839 21.0305 45.0464 19.3446 C 44.3219 17.6881 43.27 16.6941 41.4853 18.2244 C 40.7528 18.8525 39.9051 19.3829 39.3 20.1151 C 37.9087 21.7988 36.2484 22.6976 34.0605 23.1799 C 32.0811 23.6161 31.0817 25.7244 29.7665 27.2031 C 29.3043 27.7228 29.0173 28.5881 28.3397 28.682 C 26.1987 28.9781 25.2554 30.0566 25.3689 32.2388 C 25.4156 33.1309 24.8771 33.4824 23.7988 33.4476 C 19.4238 33.3066 19.0527 33.6168 17.4589 38.1344 C 17.0309 39.349 16.0335 38.8839 15.2604 39.11 C 15.2599 39.1105 15.2908 39.0581 15.2908 39.0581 C 15.1127 38.8801 14.9339 38.7034 14.7556 38.526 Z" fill="#a06341"/>
				<path d="M 62.5704 6.5083 C 61.07 6.2859 60.984 5.2009 61.0571 4.0201 C 62.1279 4.1338 63.2966 3.9253 64.0833 4.954 C 63.4753 5.3711 63.3878 6.2953 62.5704 6.5083 Z" fill="#a06341"/>
				<path d="M 41.7502 53.4275 C 40.0756 53.2698 38.8522 52.2159 37.5522 51.313 C 38.8597 50.6481 40.1658 49.9785 41.4778 49.3209 C 41.7129 49.2036 42.1679 49.1704 42.192 49.0382 C 42.7473 46.0043 47.8291 46.7299 47.3546 42.8286 C 47.3346 42.6663 47.8451 42.2762 48.1188 42.2664 C 50.9595 42.1611 52.7615 39.9684 55.0723 38.8137 C 56.6891 38.0057 58.1236 37.365 59.6064 38.9368 C 60.2574 39.6266 60.9737 39.5327 61.7744 39.1395 C 62.7166 38.6775 63.7127 38.3263 64.686 37.927 C 64.686 37.927 64.8213 38.0737 64.8198 38.0721 C 62.5705 40.7045 59.2706 41.9692 56.7668 44.2704 C 56.6056 44.2485 51.951 47.0939 50.1996 48.5959 C 49.3702 49.3064 48.2882 49.9028 48.2281 51.2228 C 45.9322 51.5557 44.17 53.4597 41.7502 53.4275 ZM 52.9688 44.6926 C 52.8815 44.0692 52.5635 43.7522 52.0738 43.8815 C 50.8729 44.1989 49.7358 44.6906 49.3981 46.0472 C 49.2795 46.5234 49.6301 46.9438 50.1665 46.7241 C 51.2774 46.2682 52.3531 45.7216 52.9688 44.6926 Z" fill="#a06341"/>
				<path d="M 33.7969 49.6559 C 33.7391 49.5356 33.7241 49.4102 33.7524 49.2773 C 33.6101 49.0424 33.4673 48.808 33.3245 48.5735 L 33.3237 48.5787 C 33.4292 47.9611 33.1568 46.8983 34.2916 47.2256 C 36.2629 47.7935 38.2764 47.2007 40.2953 47.8241 C 38.1277 48.4365 36.1292 49.5771 33.7969 49.6559 Z" fill="#a06341"/>
				<path d="M 52.9688 44.6926 C 52.3531 45.7216 51.2774 46.2682 50.1665 46.7241 C 49.6301 46.9438 49.2795 46.5234 49.3981 46.0472 C 49.7358 44.6906 50.8729 44.1989 52.0738 43.8815 C 52.5635 43.7522 52.8815 44.0692 52.9688 44.6926 Z" fill="#a06341"/>
			</g>
			<g>
				<path d="M 43.4452 60.5889 C 39.717 58.5957 36.3994 55.7261 32.6306 54.069 C 26.422 51.34 21.3619 46.8408 15.3104 43.9675 C 14.0409 43.3649 13.1381 41.5121 11.4252 42.6237 C 9.5806 43.8213 11.4444 45.2776 11.4047 46.6224 C 11.3801 47.4548 12.2959 48.754 10.6884 48.8303 C 8.9942 48.9102 9.3751 49.3602 10.1093 50.2762 C 10.5993 50.8872 10.9017 51.6443 11.3358 52.3052 C 13.7839 56.032 16.992 59.0339 20.8428 61.1707 C 22.9946 62.3641 25.1901 63.4237 27.1936 64.8955 C 29.4564 66.5569 31.6787 68.3342 34.3937 69.2714 C 35.7032 71.1281 37.8034 71.8988 39.6154 73.0621 C 40.4949 73.6268 41.421 74.1191 42.3264 74.644 C 43.1515 75.6154 42.3482 79.7277 42.363 79.9309 C 42.2778 81.3468 7.8644 60.566 8.0728 58.6575 C 8.1508 57.2878 9.3984 57.2762 7.6511 55.6913 C 4.0612 52.4353 3.6847 48.2588 4.1451 43.8368 C 4.2198 43.1211 4.5334 42.322 3.7691 41.9485 C 2.9829 41.5645 3.2737 43.3167 1.6577 42.6569 C 3.6774 40.1453 5.2457 37.4542 5.7894 34.3436 C 6.8164 33.7633 7.846 33.7607 8.8781 34.3286 C 9.0759 35.5007 9.4754 35.8679 10.6156 35.0397 C 12.1774 33.9049 13.6522 32.7107 14.8196 31.1644 C 14.978 31.114 15.1368 31.0654 15.2959 31.0182 C 15.4807 30.8782 15.6655 30.7382 15.8503 30.5986 C 16.2161 30.3967 16.5823 30.1951 16.9485 29.9934 C 17.1192 29.8611 17.2903 29.7289 17.461 29.5972 C 18.8674 28.9189 20.2738 28.2412 21.6796 27.5657 C 21.648 28.1659 21.6166 28.7633 21.5855 29.3608 C 18.808 31.4569 15.6105 32.9083 12.8934 35.1149 C 11.7444 36.0479 11.541 36.6311 12.9533 37.3458 C 13.8631 37.8062 14.5496 38.7966 15.7657 38.526 C 15.944 38.7034 16.1223 38.8807 16.3009 39.0581 L 16.27 39.1105 C 21.5899 42.924 27.1754 46.2589 33.3237 48.5787 L 33.3245 48.5735 C 33.467 48.809 33.6096 49.0439 33.7521 49.2794 C 33.7241 49.4102 33.7391 49.5356 33.7969 49.6559 C 35.3852 50.2083 36.9734 50.7606 38.5623 51.313 C 39.8623 52.2159 41.0857 53.2698 42.7603 53.4275 C 42.8012 53.5758 42.8443 53.7231 42.8904 53.8699 C 42.907 54.4181 42.9231 54.9663 42.9396 55.515 C 42.9427 56.0083 42.9459 56.5015 42.9489 56.9946 C 42.5043 58.0138 42.7028 58.6481 43.7691 58.7948 C 43.9267 59.2606 43.8591 60.8102 43.4452 60.5889 Z" fill="#7e472c"/>
				<path d="M 41.3081 78.3073 C 41.0691 77.6958 42.1414 74.6011 41.3163 73.6296 C 43.1283 73.7219 44.1921 72.767 45.5103 71.5233 C 47.6241 69.5293 50.3629 68.1958 52.8519 66.6051 C 58.7336 62.8456 64.3062 58.6597 69.8502 54.4254 C 71.505 53.161 87.5521 43.0961 96.0732 36.3256 C 100.5846 32.7411 99.2526 37.5515 99.7885 37.5204 C 100.8706 38.8387 97.6655 42.9636 93.2561 45.395 C 86.9503 48.8723 81.53 53.741 75.4817 57.6515 C 68.8047 61.9688 44.3747 79.7139 43.8745 79.1024 C 43.3195 78.4235 42.7992 78.2393 41.3081 78.3073 Z" fill="#7e472c"/>
				<path d="M 53.6242 5.1453 C 54.9569 4.2437 55.5523 3.7515 57.6566 2.4257 C 58.0241 2.1942 57.7095 1.5585 57.7354 1.1244 C 59.1358 1.5486 59.3208 2.8203 59.7023 3.9543 C 56.2446 6.3467 52.831 8.8021 49.3149 11.1014 C 47.6862 12.1659 46.8588 13.2839 47.7733 15.2205 C 48.103 15.9177 48.5845 16.999 47.6437 17.2976 C 46.5551 17.644 46.6546 16.4592 46.5383 15.7218 C 46.2481 13.8887 45.0879 14.4839 44.2073 15.0297 C 40.4218 17.3744 36.6441 19.7372 32.947 22.2173 C 29.2283 24.7118 25.6449 27.4116 21.586 29.3613 C 21.6166 28.7633 21.648 28.1659 21.6796 27.5657 C 24.2183 24.8663 27.326 23.0068 30.6461 21.4597 C 30.9816 21.3767 31.3721 21.3772 31.6438 21.1981 C 35.8091 18.4458 39.3883 15.6073 43.6063 12.9392 C 44.8608 12.1458 51.1766 6.8025 53.6242 5.1453 Z" fill="#7e472c"/>
				<path d="M 86.9978 23.7051 C 88.6838 22.8605 91.8449 18.0211 93.7916 17.7939 C 93.8455 17.9567 94.9604 21.3051 95.0132 21.468 C 94.7043 23.285 92.1782 25.598 90.7601 26.2655 C 89.0379 27.0759 87.2432 28.7935 85.4794 29.5154 C 84.9192 27.9629 87.2234 28.1509 87.0913 26.8588 C 87.8091 26.8339 86.5512 24.1261 86.9978 23.7051 Z" fill="#7e472c"/>
				<path d="M 99.0614 35.4889 C 98.3907 36.3817 98.456 38.8137 96.3813 36.7717 C 96.6291 35.8829 95.9642 34.759 97.0707 34.0917 C 97.7341 34.5574 98.398 35.0231 99.0614 35.4889 Z" fill="#7e472c"/>
				<path d="M 88.1014 26.8588 C 88.2335 28.1509 85.9293 27.9629 86.4895 29.5154 C 82.6372 32.0701 78.8294 34.6953 74.9127 37.1467 C 73.0003 38.344 72.2011 40.9343 69.6309 41.2424 C 69.5558 40.9576 69.4817 40.6735 69.4081 40.3912 C 69.2106 39.0378 69.0121 37.6819 68.8142 36.3256 C 69.0635 35.6304 69.3127 34.9348 69.5626 34.2394 C 70.07 34.046 70.5768 33.8525 71.0843 33.6597 C 71.589 33.4829 71.9658 33.1708 72.1498 32.6526 L 72.1498 32.6594 C 73.1791 32.5541 73.7668 31.861 74.2753 31.0616 C 74.2753 31.0616 74.2882 31.0782 74.2882 31.0789 C 79.1082 28.7012 83.3809 25.4734 87.7147 22.3512 C 88.4973 21.7875 89.1354 21.0637 90.1579 20.9537 C 90.1496 21.6563 90.1413 22.3595 90.1336 23.0627 C 89.4743 23.1058 89.1374 23.455 89.1307 24.1185 C 87.694 24.7522 87.3099 26.632 88.1014 26.8588 Z" fill="#7e472c"/>
				<path d="M 69.4071 40.3892 C 69.4817 40.6735 69.5558 40.9576 69.6309 41.2424 C 67.2816 43.2124 65.2515 45.6277 62.188 46.6079 C 62.131 46.5378 62.0719 46.4695 62.0123 46.4036 C 62.5668 44.0983 65.137 43.8654 66.3223 42.2087 C 67.3505 41.6023 68.3788 40.996 69.4071 40.3892 Z" fill="#7e472c"/>
				<path d="M 70.375 40 C 69.1897 41.6566 62.6182 44.0983 62.0637 46.4036 C 60.8602 46.2621 59.1389 48.7322 58.3486 49.3876 C 57.6987 49.926 52.2347 54.0049 51.3671 53.6149 C 50.5472 53.2456 55.5421 47.2971 55.3556 46.5063 C 55.1959 45.8306 55.6012 45.0214 55.7567 44.2709 C 58.2605 41.9692 61.5604 40.7045 63.8097 38.0721 C 65.0426 38.1047 69.7341 33.8542 70.9142 33.7655 C 71.1733 35.8142 70.1661 37.9675 70.375 40 Z" fill="#7e472c"/>
				<path d="M 41.7502 53.4275 C 44.17 53.4597 45.9322 51.5557 48.2284 51.2228 C 49.7024 50.9656 52.4571 52.4063 53.0853 53.8811 C 50.491 56.0465 46.3191 58.7615 43.6969 60.8926 C 43.2467 61.2588 42.9166 59.2606 42.7608 58.7938 C 43.0029 57.9567 42.9886 57.2384 41.9388 56.9946 C 41.9358 56.5015 41.9326 56.0083 41.929 55.5144 C 42.5499 55.2443 42.3959 54.4481 41.8803 53.8699 C 41.8342 53.7231 41.7911 53.5758 41.7502 53.4275 Z" fill="#7e472c"/>
				<path d="M 52.5545 53.8811 C 51.9264 52.4063 49.7024 50.9656 48.2284 51.2228 C 48.2882 49.9028 49.3702 49.3064 50.1996 48.5959 C 51.951 47.0939 54.8512 45.6941 56.6534 44.2528 C 57.6962 48.2618 56.3118 52.1707 52.5545 53.8811 Z" fill="#7e472c"/>
				<path d="M 89.1115 26.8588 C 88.32 26.632 87.6727 27.5723 86.7284 27.0911 C 87.4623 25.5974 88.7041 24.7522 90.1408 24.1185 C 90.772 24.5573 90.6429 25.2054 90.6103 25.8281 C 90.1636 26.2502 89.8293 26.8339 89.1115 26.8588 Z" fill="#7e472c"/>
				<path d="M 91.1437 23.0627 C 91.1514 22.3595 91.1597 21.6563 91.168 20.9537 C 91.7308 20.0181 92.672 19.4043 93.4608 20.2391 C 94.1377 20.9547 92.8581 21.4431 92.5176 22.0712 C 92.2238 22.6136 91.8718 23.1074 91.1437 23.0627 Z" fill="#7e472c"/>
				<path d="M 65.3122 42.2087 C 65.1033 40.1763 67.1733 38.8142 66.9142 36.7655 C 67.2122 36.6182 67.5097 36.4718 67.8056 36.3256 C 68.002 37.6819 68.2005 39.0378 68.398 40.3912 C 67.3687 40.996 66.3404 41.6023 65.3122 42.2087 Z" fill="#7e472c"/>
				<path d="M 21.2291 27.3433 C 22.5791 26.7756 20.4978 29.67 19.2434 30.4636 C 15.0253 33.1318 10.7373 36.0736 10.5291 35.7977 C 8.8537 33.5782 6.5925 36.5598 8.8763 35.1146 C 12.1153 33.0647 17.3456 28.9761 21.2291 27.3433 Z" fill="#7e472c"/>
			</g>
			<path d="M 42.5256 26.551 C 42.558 26.52 42.5505 26.4915 42.5029 26.4653 L 42.2699 26.3375 C 41.6525 25.9988 41.2559 25.6376 41.0808 25.2504 C 41.0031 25.0782 41.0175 24.9399 41.1231 24.8369 L 41.178 24.7832 L 45.2774 22.8849 C 45.2819 22.8805 45.3068 22.8688 45.3555 22.8513 C 45.5986 22.7743 45.8119 22.7849 45.996 22.8875 L 49.2231 24.6831 C 49.4022 24.7827 49.4549 24.921 49.3813 25.098 C 49.3679 25.1365 49.3612 25.1616 49.3594 25.1727 L 47.983 28.4249 C 47.9604 28.4615 47.9366 28.4926 47.9121 28.5148 C 47.5804 28.8174 46.9728 28.7723 46.0896 28.3784 C 45.938 28.308 45.7497 28.2162 45.5226 28.1045 C 45.2937 27.9918 45.1655 27.9507 45.1327 27.9813 L 44.984 28.1199 C 44.9512 28.1503 44.9584 28.1783 45.0055 28.2042 L 50.4015 31.1624 C 50.448 31.1877 50.488 31.1858 50.5216 31.156 L 50.6676 31.0273 C 50.7058 30.9937 50.7017 30.9641 50.6553 30.9386 C 50.4322 30.8162 50.2355 30.639 50.0647 30.4049 C 49.8346 30.1447 49.7364 29.8979 49.7703 29.6654 C 49.7813 29.5608 49.808 29.4535 49.8516 29.3423 C 49.8941 29.2318 49.9318 29.1007 49.9657 28.9525 L 54.0241 19.5881 C 54.033 19.5602 54.0295 19.5363 54.0132 19.5195 C 53.9967 19.5028 53.9839 19.4901 53.9757 19.478 L 52.1132 18.421 C 52.0868 18.406 52.0632 18.411 52.0414 18.4316 L 51.919 18.7057 C 51.9045 18.7195 51.8904 18.7279 51.8752 18.7322 L 40.4982 24.0079 C 39.6418 24.4073 38.7892 24.3917 37.9388 23.9609 C 37.8585 23.917 37.8041 23.9117 37.7725 23.9435 L 37.6293 24.0873 C 37.5978 24.119 37.606 24.1479 37.6558 24.1752 L 42.2591 26.6987 C 42.3066 26.7247 42.3464 26.7224 42.3789 26.6914 L 42.5256 26.551 L 42.5256 26.551 ZM 46.9478 22.3361 C 46.8555 22.2845 46.8341 22.2363 46.8844 22.1881 C 46.9336 22.1411 46.9907 22.1035 47.0601 22.0763 L 51.0523 20.2275 C 51.2463 20.1479 51.3587 20.1158 51.3898 20.1334 C 51.4193 20.1501 51.4058 20.2344 51.3461 20.3843 L 49.9824 23.7081 C 49.9608 23.7617 49.9353 23.8046 49.9005 23.8369 C 49.8344 23.8983 49.7473 23.8981 49.6381 23.837 L 46.9478 22.3361 L 46.9478 22.3361 Z" fill="#ffffff"/>
			<path d="M 54.9103 33.9493 C 55.8056 34.4398 56.7529 34.7924 57.7598 35.0077 C 59.7043 35.4331 61.2885 35.1563 62.5233 34.1642 C 63.1071 33.6952 63.3941 33.1671 63.3828 32.5825 C 63.37 31.9935 63.1513 31.3436 62.7234 30.6312 C 62.7392 30.6333 62.812 30.6484 62.9402 30.6759 C 63.0685 30.7034 63.2367 30.7257 63.4422 30.7435 C 64.7523 30.8649 65.7465 30.6526 66.4286 30.1012 C 68.0586 28.7831 67.1858 27.1493 63.7626 25.2073 L 60.4562 23.4438 L 58.8788 22.5601 L 58.4697 22.337 C 58.4211 22.3096 58.3769 22.3136 58.3396 22.3469 L 58.1643 22.5034 C 58.127 22.5366 58.1326 22.567 58.1811 22.5945 L 58.703 22.8901 C 58.9386 23.0237 59.1448 23.1548 59.3211 23.2819 C 59.9189 23.6964 59.9449 24.1826 59.4064 24.7404 L 52.3171 30.9285 C 51.9092 31.2845 51.1068 31.2271 49.9083 30.7561 C 49.5324 30.6111 49.207 30.4631 48.9322 30.3124 C 48.8498 30.2673 48.7927 30.2601 48.7593 30.29 L 48.6083 30.4255 C 48.5749 30.4553 48.5816 30.4829 48.6281 30.5084 L 54.9103 33.9493 L 54.9103 33.9493 ZM 59.6056 29.2937 C 60.6105 29.8545 61.2142 30.505 61.4163 31.2416 C 61.6153 31.9723 61.3639 32.6241 60.6643 33.1962 C 59.9691 33.7645 59.089 34.0735 58.0247 34.1288 C 56.9644 34.184 56.0118 33.9773 55.16 33.51 C 54.7166 33.2667 54.3943 32.9603 54.1948 32.5911 C 53.9945 32.2206 54.0486 31.9034 54.3568 31.639 L 58.0072 28.5073 C 58.0566 28.465 58.1195 28.4644 58.1979 28.5081 L 59.6056 29.2937 L 59.6056 29.2937 ZM 61.8175 25.2133 C 61.9258 25.1204 62.0247 25.0651 62.1142 25.0475 C 62.2036 25.0299 62.3122 25.0482 62.4424 25.1003 C 62.5711 25.1536 62.6908 25.2123 62.8031 25.2795 C 62.9154 25.3468 63.0242 25.4102 63.1293 25.4697 C 63.2345 25.5293 63.4288 25.6304 63.7147 25.7708 C 64.6013 26.2729 65.1382 26.8153 65.3296 27.3977 C 65.5199 27.9773 65.2401 28.574 64.4931 29.1885 C 64.0769 29.5309 63.5091 29.7305 62.7915 29.7893 C 62.0758 29.848 61.4385 29.719 60.8736 29.4032 L 58.6927 28.1842 C 58.556 28.1077 58.5307 28.0336 58.618 27.9587 L 61.8175 25.2133 L 61.8175 25.2133 Z" fill="#ffffff"/>
		</g>
	</g>
</svg>