<?xml version="1.0" standalone="no"?>
<!-- Generator: Adobe Fireworks 10, Export SVG Extension by Aaron Beall (http://fireworks.abeall.com) . Version: 0.6.0  -->
<!DOCTYPE svg PUBLIC "-//W3C//DTD SVG 1.1//EN" "http://www.w3.org/Graphics/SVG/1.1/DTD/svg11.dtd">
<svg id="" viewBox="0 0 140 142" style="background-color:#ffffff00" version="1.1"
	xmlns="http://www.w3.org/2000/svg" xmlns:xlink="http://www.w3.org/1999/xlink" xml:space="preserve"
	x="0px" y="0px" width="140px" height="142px"
>
	<defs>
		<linearGradient id="gradient1" x1="50.0003%" y1="0%" x2="50.0003%" y2="100%">
			<stop stop-color="#e1f0ff" stop-opacity="1" offset="0%"/>
			<stop stop-color="#006699" stop-opacity="1" offset="100%"/>
		</linearGradient>
		<linearGradient id="gradient2" x1="50.0004%" y1="-0.0002%" x2="50.0004%" y2="99.9998%">
			<stop stop-color="#e1f0ff" stop-opacity="1" offset="0%"/>
			<stop stop-color="#006699" stop-opacity="1" offset="100%"/>
		</linearGradient>
		<linearGradient id="gradient3" x1="50.0003%" y1="-0.0003%" x2="50.0003%" y2="100%">
			<stop stop-color="#e1f0ff" stop-opacity="1" offset="0%"/>
			<stop stop-color="#006699" stop-opacity="1" offset="100%"/>
		</linearGradient>
		<linearGradient id="gradient4" x1="50.0003%" y1="0%" x2="50.0003%" y2="100%">
			<stop stop-color="#e1f0ff" stop-opacity="1" offset="0%"/>
			<stop stop-color="#006699" stop-opacity="1" offset="100%"/>
		</linearGradient>
		<linearGradient id="gradient5" x1="50.0004%" y1="-0.0004%" x2="50.0004%" y2="99.9996%">
			<stop stop-color="#e1f0ff" stop-opacity="1" offset="0%"/>
			<stop stop-color="#006699" stop-opacity="1" offset="100%"/>
		</linearGradient>
		<linearGradient id="gradient6" x1="50%" y1="0%" x2="50%" y2="100%">
			<stop stop-color="#e1f0ff" stop-opacity="1" offset="0%"/>
			<stop stop-color="#006699" stop-opacity="1" offset="100%"/>
		</linearGradient>
		<linearGradient id="gradient7" x1="50%" y1="0%" x2="50%" y2="100%">
			<stop stop-color="#e1f0ff" stop-opacity="1" offset="0%"/>
			<stop stop-color="#006699" stop-opacity="1" offset="100%"/>
		</linearGradient>
	</defs>
	<g>
		<path d="M 11.8275 75.8965 C 11.8275 40.6052 40.0873 11.9966 74.9482 11.9966 C 109.8093 11.9966 138.069 40.6052 138.069 75.8965 C 138.069 111.188 109.8093 139.7966 74.9482 139.7966 C 40.0873 139.7966 11.8275 111.188 11.8275 75.8965 ZM 0 71 C 0 110.2126 31.3396 142 70 142 C 108.6604 142 140 110.2126 140 71 C 140 31.7874 108.6604 0 70 0 C 31.3396 0 0 31.7874 0 71 Z" fill="url(#gradient1)"/>
		<path d="M 35.889 72.5281 C 35.889 44.3276 58.4536 21.4673 86.2892 21.4673 C 114.1248 21.4673 136.6891 44.3276 136.6891 72.5281 C 136.6891 100.7285 114.1248 123.5889 86.2892 123.5889 C 58.4536 123.5889 35.889 100.7285 35.889 72.5281 ZM 27.2758 76.019 C 27.2758 107.051 52.0774 132.207 82.6724 132.207 C 113.2675 132.207 138.069 107.051 138.069 76.019 C 138.069 44.9868 113.2675 19.8311 82.6724 19.8311 C 52.0774 19.8311 27.2758 44.9868 27.2758 76.019 Z" fill="url(#gradient2)"/>
		<path d="M 43.2068 63.5327 C 43.2068 41.0193 61.2542 22.769 83.5173 22.769 C 105.7803 22.769 123.8276 41.0193 123.8276 63.5327 C 123.8276 86.0464 105.7803 104.2966 83.5173 104.2966 C 61.2542 104.2966 43.2068 86.0464 43.2068 63.5327 ZM 41.7587 66.5933 C 41.7587 91.4729 61.697 111.6416 86.2931 111.6416 C 110.8892 111.6416 130.8276 91.4729 130.8276 66.5933 C 130.8276 41.7134 110.8892 21.5449 86.2931 21.5449 C 61.697 21.5449 41.7587 41.7134 41.7587 66.5933 Z" fill="url(#gradient3)"/>
		<path d="M 43.4482 63.0339 C 43.4482 69.4771 45.1006 75.5291 47.999 80.7771 C 45.8591 76.4341 44.6552 71.5337 44.6552 66.3481 C 44.6552 48.4998 58.9202 34.0313 76.5172 34.0313 C 94.1145 34.0313 108.3793 48.4998 108.3793 66.3481 C 108.3793 84.1968 94.1145 98.6655 76.5172 98.6655 C 73.2217 98.6655 70.043 98.1584 67.053 97.2166 C 70.8723 98.6238 74.9944 99.3906 79.2932 99.3906 C 99.09 99.3906 115.1379 83.1135 115.1379 63.0339 C 115.1379 42.9541 99.09 26.677 79.2932 26.677 C 59.4963 26.677 43.4482 42.9541 43.4482 63.0339 Z" fill="url(#gradient4)"/>
		<path d="M 58.8965 74.4275 C 58.8965 62.3933 68.5146 52.6379 80.3792 52.6379 C 92.2441 52.6379 101.8621 62.3933 101.8621 74.4275 C 101.8621 86.4619 92.2441 96.2173 80.3792 96.2173 C 68.5146 96.2173 58.8965 86.4619 58.8965 74.4275 ZM 49.4828 70.6328 C 49.4828 85.8445 61.6404 98.176 76.6379 98.176 C 91.6355 98.176 103.7931 85.8445 103.7931 70.6328 C 103.7931 55.4211 91.6355 43.0898 76.6379 43.0898 C 61.6404 43.0898 49.4828 55.4211 49.4828 70.6328 Z" fill="url(#gradient5)"/>
		<path d="M 76.7587 71.3672 C 76.7587 64.8093 82 59.4932 88.4656 59.4932 C 94.9312 59.4932 100.1724 64.8093 100.1724 71.3672 C 100.1724 77.9253 94.9312 83.2415 88.4656 83.2415 C 82 83.2415 76.7587 77.9253 76.7587 71.3672 ZM 69.0345 74.5498 C 69.0345 83.677 76.3291 91.0759 85.3276 91.0759 C 94.3262 91.0759 101.6207 83.677 101.6207 74.5498 C 101.6207 65.4231 94.3262 58.0242 85.3276 58.0242 C 76.3291 58.0242 69.0345 65.4231 69.0345 74.5498 Z" fill="url(#gradient6)"/>
		<path id="Ellipse" d="M 81.1035 67.2053 C 81.1035 63.0811 84.3994 59.738 88.4656 59.738 C 92.5315 59.738 95.8276 63.0811 95.8276 67.2053 C 95.8276 71.3293 92.5315 74.6724 88.4656 74.6724 C 84.3994 74.6724 81.1035 71.3293 81.1035 67.2053 Z" fill="url(#gradient7)"/>
	</g>
</svg>