<?xml version="1.0" standalone="no"?>
<!-- Generator: Adobe Fireworks 10, Export SVG Extension by Aaron Beall (http://fireworks.abeall.com) . Version: 0.6.0  -->
<!DOCTYPE svg PUBLIC "-//W3C//DTD SVG 1.1//EN" "http://www.w3.org/Graphics/SVG/1.1/DTD/svg11.dtd">
<svg id="" viewBox="0 0 121 176" style="background-color:#ffffff00" version="1.1"
	xmlns="http://www.w3.org/2000/svg" xmlns:xlink="http://www.w3.org/1999/xlink" xml:space="preserve"
	x="0px" y="0px" width="121px" height="176px"
>
	<g>
		<path d="M 16.4641 118.3506 C 17.4866 119.2444 25.7559 127.7974 25.8417 128.2476 C 25.8417 128.2476 30.5505 142.2175 33.53 146.0457 L 35.4172 146.3413 L 38.9249 141.9277 L 41.1077 142.4211 C 41.0435 144.054 52.4481 153.5959 52.4586 150.3225 L 66.2041 156.6853 L 66.4159 159.6484 L 74.2502 165.6741 L 77.458 165.5159 C 82.063 161.1526 87.4187 150.3452 89.2046 144.4495 L 88.2979 141.0911 C 89.8595 141.5586 91.2321 143.4153 91.9788 144.7539 L 101.1316 127.3989 C 105.6021 118.1663 103.6152 131.1418 95.1711 153.2256 C 94.3125 154.8792 79.8975 171.9404 75.427 173.0635 C 64.3096 175.856 59.0358 175.3091 44.1345 169.6946 C 31.8411 162.2087 24.6522 147.2422 24.3489 146.7346 C 22.5624 143.7451 16.345 119.6934 16.4641 118.3506 Z" fill="#f4af78"/>
		<path d="M 33.3075 147.2629 C 30.8928 141.7253 18.3914 122.1138 16.9624 116.3286 C 16.9624 116.3286 11.764 93.0334 16.5966 74.2258 C 17.147 75.5857 13.896 44.5088 23.2728 37.5669 C 35.2147 24.8809 91.693 24.9382 102.2493 37.5669 C 111.5444 47.4329 111.1543 91.27 110.5535 93.4873 C 108.2385 102.0315 106.0747 121.8208 106.1439 122.5669 C 106.5428 126.8682 96.6296 143.7346 93.6689 146.5938 C 88.0806 151.991 83.3979 165.1538 76.6199 166.7095 C 40.7817 174.9348 45.7222 155.4355 33.3075 147.2629 Z" fill="#f9be8e"/>
		<path d="M 51.1565 117.6436 C 48.8889 115.1943 50.084 112.7273 52.3658 110.1143 C 54.8137 107.3115 55.5588 108.1848 56.7892 105.1628 C 57.4146 103.6267 56.3638 101.7722 58.8655 102.5864 C 59.4338 102.7712 60.2423 102.1721 60.9504 101.9692 C 63.2302 101.3164 64.1987 102.9412 66.552 102.5264 C 67.3247 102.3904 67.3793 102.708 67.604 103.6931 C 67.8904 104.9497 70.7131 108.2837 70.7493 108.9617 C 70.7782 109.5059 71.0496 109.8921 71.5515 110.1045 C 72.1804 110.3706 72.8828 110.3787 73.5085 110.6389 C 74.2705 110.9558 74.2024 111.0742 74.0198 112.2795 C 73.8867 113.156 73.3787 113.8936 72.3806 113.5781 C 71.6069 113.3335 68.7019 113.6006 68.093 113.0962 C 67.1294 112.2979 66.127 112.1611 64.9985 112.5896 C 64.2324 112.6001 63.8296 112.0049 63.3123 111.5845 C 62.0491 110.5579 61.2627 110.6604 60.1746 111.9001 C 59.3905 112.7932 59.1124 113.9812 58.3853 114.905 C 57.3784 116.1174 55.332 116.7458 53.4023 116.0261 C 51.6398 115.5564 52.3831 116.7383 51.1565 117.6436 Z" fill="#f4ad74"/>
		<path d="M 51.7603 76.9756 C 44.614 75.6646 42.4851 75.6887 35.1943 75.825 C 32.1027 75.8828 23.6534 79.9868 23.9072 78.7488 C 26.7312 76.7068 25.2927 75.4163 34.2769 72.0059 C 40.778 71.5061 41.2561 71.1978 46.9136 71.1821 C 48.8228 71.177 50.1558 70.8745 51.8245 71.8174 C 53.4148 72.7161 53.2423 77.2476 51.7603 76.9756 Z" fill="#402b13"/>
		<path d="M 53.4163 115.3867 C 54.6451 115.8948 56.7899 116.6421 57.3235 115.1318 C 57.4532 114.7649 57.8772 114.6721 58.2598 114.6372 C 58.9298 115.1162 58.9348 115.9324 59.2352 116.5972 C 59.8258 117.9038 60.8422 118.5103 62.2178 118.2273 C 63.5543 117.9529 64.6278 117.3157 64.7515 115.6919 C 64.8353 114.5923 64.4359 113.4592 64.9652 112.3916 C 65.8389 111.2468 66.8059 111.4229 67.8202 112.1821 C 68.5 112.6914 71.423 112.4412 72.1045 112.948 C 73.222 113.78 72.8359 112.906 73.547 112.2869 C 73.9608 111.9265 72.6863 110.9199 71.8153 110.8391 C 70.6902 110.7351 67.8318 110.9031 67.8394 109.666 C 67.8425 109.0933 74.1002 111.9114 74.8743 112.8135 C 76.342 114.5247 76.5557 115.2537 74.6636 117.6377 C 71.4832 115.3718 70.3213 116.0691 67.3936 118.9026 C 64.6853 121.5237 56.1362 120.7173 53.405 115.9255 C 53.3098 115.7583 53.3486 115.5654 53.4163 115.3867 Z" fill="#f3ad74"/>
		<path d="M 44.1345 134.8987 C 44.1826 134.3369 44.5146 134.3315 45.099 134.1672 C 48.0659 133.3333 50.4285 133.5134 53.3665 133.2705 C 54.8059 133.1516 57.077 132.5852 58.4969 132.8345 C 61.7139 133.3987 63.1868 133.1157 66.425 132.5713 C 70.9016 131.8186 73.5679 131.7717 77.8354 133.1802 C 78.5105 133.4031 79.248 133.7605 79.9659 133.7756 C 80.748 133.6426 80.9867 134.2417 81.3876 134.9053 C 74.3174 135.7678 76.5662 136.1125 69.5127 137.1306 C 61.9304 135.7078 58.4954 137.2507 55.7102 136.9426 C 51.994 136.5315 47.8035 135.6677 44.1345 134.8987 Z" fill="#f29f5b"/>
		<path d="M 53.4163 115.3867 C 54.4966 116.3977 56.6438 118.2197 57.7864 119.1536 C 59.5933 120.6299 64.9968 120.3396 66.6721 118.6946 C 67.4758 117.9053 70.5508 116.4275 71.5165 115.8672 C 73.5598 114.6809 73.6152 115.4514 74.6633 117.6375 C 74.1826 118.3057 71.7113 119.7852 71.1431 119.9128 C 64.4747 121.4119 61.271 121.2229 54.5654 120.2871 C 54.0317 120.2126 53.3236 119.2891 51.9331 118.3665 C 51.5955 118.1423 51.3254 117.9827 51.1566 117.6436 C 51.7874 115.5205 51.5356 115.2051 53.4163 115.3867 Z" fill="#db9764"/>
		<path d="M 75.4897 93.5166 C 76.4595 93.4207 78.1344 94.7175 78.7659 95.0476 C 81.2543 96.3496 84.0304 97.4902 86.6907 97.2727 C 89.552 97.0391 87.6666 98.4165 83.5039 98.0698 C 81.2631 97.8828 79.1821 97.2656 77.3145 95.9561 C 76.4445 95.3459 75.7097 94.6953 75.4897 93.5166 Z" fill="#f1a86d"/>
		<path d="M 81.4502 119.3433 C 82.42 119.2473 84.0731 120.5901 84.7263 120.8743 C 91.6942 123.9053 93.7546 134.9231 91.9426 131.1418 C 88.714 124.4045 85.1426 123.0923 83.2749 121.7827 C 82.4049 121.1726 81.6703 120.522 81.4502 119.3433 Z" fill="#f1a86d"/>
		<path d="M 43.0959 120.1257 C 37.0564 124.155 33.6818 133.3242 34.7621 129.2703 C 37.0564 120.6614 43.689 119.73 43.0959 120.1257 Z" fill="#f1a86d"/>
		<path d="M 46.8921 95.166 C 47.5916 94.8867 49.5131 91.9578 50.0605 92.646 C 50.5957 93.3186 49.5151 93.998 48.9851 94.5591 C 46.4857 97.2041 39.4539 96.9885 36.2756 96.9219 C 34.0775 96.876 43.864 96.3765 46.8921 95.166 Z" fill="#efa86f"/>
		<path d="M 67.1941 120.6594 C 66.3749 120.394 65.0469 121.3552 64.7855 120.2603 C 64.5879 119.4319 65.9573 119.0142 66.7458 118.5901 C 67.3871 118.2451 70.3265 117.2466 71.0291 117.0476 C 71.6091 116.8831 72.3602 116.687 72.7478 117.2449 C 73.2302 117.9395 72.2144 118.2041 72.0686 118.7583 C 71.1891 119.1426 68.074 120.2754 67.1941 120.6594 Z" fill="#4e3111"/>
		<path d="M 53.7958 117.9922 C 53.8523 117.3726 54.0879 116.9741 54.8014 116.9304 C 56.1405 116.8494 59.5933 119.0991 60.2471 120.533 C 59.4821 120.9568 58.6919 120.5491 57.9204 120.6064 C 56.8055 120.1677 54.6213 118.9021 53.7958 117.9922 Z" fill="#4e2f12"/>
		<path d="M 82.1115 135.5344 C 82.4154 134.6116 78.6161 136.2986 77.8285 136.3689 C 72.4884 136.8445 69.7825 138.3818 64.3838 137.1357 C 63.1896 136.8604 57.6956 137.9824 56.4818 137.9824 C 51.3716 137.9824 51.6243 136.9714 46.663 136.3218 C 46.0227 136.238 42.9592 135.4392 43.4407 136.0859 C 45.3726 138.6821 50.5627 141.884 53.5825 142.001 C 62.7329 142.3547 66.3622 143.8679 77.8496 140.4724 C 78.7661 140.2014 81.2227 138.2324 82.1115 135.5344 Z" fill="#f29f5b"/>
		<path d="M 64.9652 112.3916 C 65.6296 113.8115 65.5002 115.3513 65.2288 116.7642 C 64.9139 118.4028 63.2103 118.7878 61.9031 118.9629 C 60.7808 119.1135 59.4332 118.6792 58.8694 117.3201 C 58.5145 116.4651 58.1838 115.5955 58.2598 114.6372 C 58.4338 113.4497 58.9982 112.4377 59.7224 111.5195 C 61.1526 109.7061 62.5298 109.7341 64.0206 111.5442 C 64.2869 111.8672 64.6481 112.1113 64.9652 112.3916 Z" fill="#f9be8e"/>
		<path d="M 17.493 128.4963 C 17.4351 128.9434 12.99 134.1453 8.2374 127.3813 C 1.7638 114.5879 -1.0708 103.4099 0.3652 96.792 C 2.6515 92.0828 4.8508 90.4692 7.9331 94.009 C 8.1689 94.28 12.4534 91.4673 13.7473 95.8513 C 16.5649 105.3975 17.3892 126.5176 17.493 128.4963 Z" fill="#eea66b"/>
		<path d="M 72.5637 77.814 C 80.0131 76.9956 82.1599 77.1697 89.457 77.8142 C 92.5281 78.0854 100.7927 82.8076 100.5598 81.5251 C 97.8115 79.2756 99.2574 78.0901 90.5947 74.1311 C 84.2388 73.1841 83.7933 72.8525 78.1882 72.4272 C 76.2856 72.283 74.991 71.8936 73.1967 72.6836 C 71.4688 73.4446 70.9971 77.9858 72.5637 77.814 Z" fill="#402b13"/>
		<path d="M 105.5088 126.8237 C 105.4552 126.5769 103.3416 127.9968 103.2998 127.7478 C 102.9761 127.2856 103.127 126.8049 103.2417 126.324 C 103.677 124.5022 103.6993 122.6614 103.5576 120.8008 C 103.4799 119.7788 104.6458 113.5012 104.9629 110.5439 C 105.4399 106.0989 107.5686 101.7559 107.9341 97.2988 C 108.0635 95.7229 109.949 94.4834 111.0421 93.2307 C 111.6632 92.5186 110.199 91.4995 111.1337 95.1106 C 112.7498 92.5686 117.3447 92.4458 118.0367 94.7161 C 120.4464 98.5906 117.6493 111.1106 116.9838 115.6638 C 115.9075 123.0276 112.0474 127.2224 111.52 128.1335 C 108.4197 130.5991 106.1132 129.6052 105.5088 126.8237 Z" fill="#efa66b"/>
		<path d="M 111.8108 92.7139 C 112.9688 92.0117 117.7197 76.3589 118.9785 71.104 C 121.6599 59.9336 121.6685 55.8582 119.0356 49.5625 C 117.1523 45.0657 116.8896 43.364 117.7972 41.5872 C 118.343 40.5208 118.2078 40.104 116.9387 38.9602 C 116.0029 38.1196 115.5464 37.198 115.7401 36.5313 C 115.9381 35.8389 115.428 34.9343 114.2979 33.981 C 112.4594 32.4282 112.0083 31.1873 113.0057 30.4412 C 113.3354 30.1982 113.4105 29.7397 113.1799 29.4255 C 112.946 29.1116 113.0564 28.4187 113.4271 27.8901 C 113.9854 27.0869 113.8373 26.9443 112.553 27.0557 C 110.8505 27.2036 109.7999 26.3914 109.2903 24.531 C 109.0896 23.8005 108.4685 23.3574 107.7312 23.4182 C 106.9136 23.4893 106.5225 23.1563 106.5649 22.427 C 106.6016 21.8228 106.6581 20.8362 106.6915 20.2314 C 106.7335 19.5352 106.2827 19.1099 105.4613 19.0608 C 104.3994 19.0039 104.1875 18.6443 104.2823 17.0728 C 104.3805 15.4644 104.2197 15.2109 103.2599 15.4832 C 102.6011 15.6704 102.1632 16.3259 102.2202 17.0405 C 102.3555 18.6477 100.5778 18.7954 100.1846 17.207 C 100.0177 16.5356 99.1632 14.71 98.2864 13.1565 C 96.7645 10.459 96.5967 10.3528 94.7111 10.8811 C 93.2153 11.2976 92.6162 11.1965 92.266 10.4688 C 92.0072 9.9382 91.3992 9.5388 90.9097 9.5813 C 90.4202 9.6238 89.4734 8.8633 88.8074 7.8928 C 87.427 5.8813 87.0951 5.7935 86.1294 7.1851 C 85.2941 8.3931 83.1516 8.6865 83.0311 7.6096 C 82.8015 5.5503 78.8774 3.1282 76.1589 3.364 C 74.4226 3.5146 71.3784 2.4409 68.8359 0.7864 C 66.6675 -0.6296 60.7017 -0.0669 56.5503 1.9412 C 54.8208 2.7781 52.765 3.5198 51.9855 3.5874 C 51.2091 3.6548 50.2887 4.0474 49.9409 4.4583 C 49.5967 4.8723 47.989 5.5754 46.369 6.0215 C 44.7494 6.4714 41.8141 7.6602 39.8438 8.6709 C 32.0118 12.6765 25.7139 15.3057 24.5588 15.0444 C 23.6919 14.8499 22.764 15.4868 21.3123 17.2683 C 19.1133 19.9709 18.2979 19.8826 17.7057 16.8726 C 17.3813 15.2285 17.1838 15.532 15.8856 19.6396 C 14.8804 22.8203 14.1995 24.0925 13.6919 23.7393 C 12.7976 23.1177 12.1809 23.7473 12.3037 25.1609 C 12.3538 25.7351 11.7996 26.9736 11.0706 27.9143 C 10.1954 29.0405 9.9484 29.8909 10.3438 30.4092 C 11.479 31.9001 11.0752 32.6272 8.5313 33.6934 C 6.7068 34.4534 6.0552 35.0522 6.2427 35.79 C 6.3893 36.3552 6.0321 37.1309 5.449 37.51 C 4.8662 37.8918 4.1003 39.2964 3.7465 40.6304 C 3.1875 42.7349 3.231 43.1213 4.073 43.5554 C 4.9017 43.9866 4.8538 44.478 3.7186 46.9993 C 2.5332 49.6487 2.4491 50.7273 2.9053 57.7317 C 3.1853 62.0139 4.2706 70.6226 5.3146 76.864 C 6.3608 83.0999 8.1296 82.2559 8.3339 84.5957 L 6.6665 88.6357 C 5.5461 88.52 6.6616 94.9753 7.1082 94.2693 C 7.8989 93.0225 6.4777 93.0332 8.187 94.6677 C 10.3729 96.7598 10.2343 98.2036 13.4629 103.9429 C 14.3322 115.0469 18.8025 130.3933 16.1948 97.0806 C 15.6194 89.7292 19.3765 70.6914 18.4299 69.0081 C 17.6021 67.5354 19.0378 52.2446 18.9574 51.3945 C 18.6287 47.9065 24.066 39.9155 29.0742 36.5283 C 32.6276 34.1204 32.7765 34.0815 37.3716 34.196 C 39.9453 34.2617 42.3086 34.0669 42.6261 33.7629 C 43.261 33.1523 57.1547 32.1636 63.0459 32.3118 C 65.106 32.364 68.0828 32.7876 69.6624 33.252 C 75.8077 35.0608 79.0129 35.585 82.186 35.3096 C 85.6096 35.009 92.392 35.8232 95.9277 36.9658 C 99.7457 38.1934 103.3668 45.053 105.2295 49.9189 C 106.6782 53.7034 104.3602 71.0044 105.3538 89.4697 C 105.5211 92.5811 103.6152 97.2053 103.1185 102.196 C 102.6218 108.9333 104.0667 111.7971 105.6021 110.9297 C 107.0922 97.9541 111.115 93.1357 111.8108 92.7139 Z" fill="#4e3125"/>
		<path d="M 91.7285 151.3398 L 91.702 151.342 L 91.7502 149.1753 C 91.2648 146.0254 93.3616 142.8416 92.5276 138.6685 C 89.843 125.2349 86.9065 121.0073 62.101 122.9695 C 50.8164 123.3186 39.588 120.8794 35.059 128.7588 C 34.0764 137.833 31.6075 145.0801 38.8162 158.9712 C 41.3287 146.3633 38.2286 137.8784 39.4675 134.9929 C 42.5647 127.7803 81.1329 128.1348 85.4531 133.5222 C 89.8351 137.196 87.7544 154.6785 90.3801 153.1399 " fill="#4e3125"/>
		<path d="M 52.5786 160.2124 C 59.0358 158.8401 59.7808 150.6055 59.7808 150.6055 L 58.9116 147.3613 C 57.3667 146.5854 57.1731 145.6147 54.1929 143.1194 C 59.6566 144.2424 69.094 144.6167 73.1919 143.1194 C 71.9023 146.5408 70.0874 144.8662 68.2249 147.1121 L 67.4797 150.2312 C 67.4797 150.2312 68.2249 158.2161 74.4337 160.3372 C 82.5051 158.8401 86.7292 156.4958 90.8301 148.4285 C 90.8301 148.4285 95.6112 117.5488 105.3538 109.4324 C 105.3538 109.4324 105.1346 115.2522 105.1563 122.7256 C 105.1563 122.7256 101.824 144.9387 95.7769 153.7988 C 79.9283 179.7507 58.2908 181.6724 37.7357 166.1892 C 24.7629 156.22 21.7827 144.6167 17.3668 129.2295 L 14.3322 109.4324 C 23.0232 118.0676 28.4539 143.2209 35.834 149.4082 C 45.4548 158.1582 46.618 158.5903 52.5786 160.2124 Z" fill="#4e3125"/>
		<g>
			<path d="M 30.351 89.8774 C 33.4553 85.4773 43.8862 82.9819 49.7224 89.5256 C 46.8665 91.9653 34.4487 92.2146 30.351 89.8774 Z" fill="#ffffff"/>
			<path id="Ellipse" d="M 35.5839 88.1333 C 35.6738 85.9204 37.5194 85.4778 39.907 85.4778 C 42.2948 85.4778 44.5005 85.3672 44.2303 88.1333 C 45.131 91.7842 43.8701 91.3416 39.907 91.4521 C 35.8541 91.5627 35.4646 91.0625 35.5839 88.1333 Z" fill="#130b06"/>
			<path d="M 40.3789 89.6978 C 39.618 89.7019 38.9056 89.1682 38.8811 88.5051 C 38.8538 87.7639 39.6013 87.2234 40.2578 87.2222 C 40.8748 87.2209 41.5713 87.7744 41.5452 88.4573 C 41.5211 89.0837 40.9106 89.7668 40.3789 89.6978 Z" fill="#3c3839"/>
		</g>
		<g>
			<path d="M 94.0536 90.2517 C 91.3217 85.7268 81.1392 82.9819 74.682 89.1511 C 78.6556 91.9653 88.3414 91.9653 94.0536 90.2517 Z" fill="#ffffff"/>
			<path id="Ellipse2" d="M 88.8207 88.3511 C 88.7306 86.1816 86.8851 85.6567 84.4974 85.5381 C 82.1097 85.4192 79.9041 85.2014 80.1742 87.9211 C 79.2736 91.4487 80.5344 91.0784 84.4974 91.3838 C 88.5504 91.6934 88.9398 91.2231 88.8207 88.3511 Z" fill="#130b06"/>
			<path d="M 84.0256 89.6846 C 84.7865 89.718 85.4989 89.2119 85.5234 88.5498 C 85.5508 87.8096 84.8032 87.2402 84.1467 87.2136 C 83.5298 87.1885 82.8333 87.7151 82.8594 88.3992 C 82.8833 89.0264 83.4939 89.7332 84.0256 89.6846 Z" fill="#3c3839"/>
		</g>
	</g>
</svg>